{
.appVersion = "3135";
DisplayStrings = (
"/Aringacute"
);
classes = (
{
automatic = 1;

glyphs = (
{
glyphname = A;
lastChange = "2022-06-13 13:01:00 +0000";
layers = (
{
anchors = (
{
name = bottom;
position = "{325, 0}";
},
{
name = ogonek;
position = "{617, 0}";
},
{
name = top;
position = "{342, 700}";
}
);
guideLines = (
{
angle = 90;
position = "{413, 35}";
}
);
layerId = "45069982-2EFC-4B7D-8C53-1932E6EAC4CA";
paths = (
{
closed = 1;
nodes = (
"43 0 OFFCURVE",
"68 0 OFFCURVE",
"92 0 CURVE SMOOTH",
"115 0 OFFCURVE",
"160 0 OFFCURVE",
"215 -2 CURVE",
"217 8 OFFCURVE",
"217 25 OFFCURVE",
"215 35 CURVE",
"134 35 LINE",
"139 95 OFFCURVE",
"152 150 OFFCURVE",
"175 210 CURVE SMOOTH",
"307 550 LINE",
"373 720 LINE",
"353 723 OFFCURVE",
"333 723 OFFCURVE",
"313 720 CURVE",
"302 652 OFFCURVE",
"268 570 OFFCURVE",
"248 519 CURVE SMOOTH",
"128 210 LINE SMOOTH",
"105 150 OFFCURVE",
"84 95 OFFCURVE",
"53 35 CURVE",
"-4 35 LINE",
"-6 25 OFFCURVE",
"-6 8 OFFCURVE",
"-4 -2 CURVE"
);
},
{
closed = 1;
nodes = (
"595 95 OFFCURVE",
"571 150 OFFCURVE",
"549 210 CURVE SMOOTH",
"442 500 LINE SMOOTH",
"407 596 OFFCURVE",
"383 652 OFFCURVE",
"373 720 CURVE",
"307 550 LINE",
"433 210 LINE SMOOTH",
"455 150 OFFCURVE",
"471 95 OFFCURVE",
"482 35 CURVE",
"413 35 LINE",
"411 25 OFFCURVE",
"411 8 OFFCURVE",
"413 -2 CURVE",
"458 0 OFFCURVE",
"508 0 OFFCURVE",
"554 0 CURVE SMOOTH",
"600 0 OFFCURVE",
"630 0 OFFCURVE",
"677 -2 CURVE",
"679 8 OFFCURVE",
"679 25 OFFCURVE",
"677 35 CURVE",
"623 35 LINE"
);
},
{
closed = 1;
nodes = (
"438 275 LINE",
"178 275 LINE",
"178 235 LINE",
"438 235 LINE"
);
}
);
width = 681;
},
{
anchors = (
{
name = bottom;
position = "{318, 0}";
},
{
name = ogonek;
position = "{606, 0}";
},
{
name = top;
position = "{344, 700}";
}
);
guideLines = (
{
angle = 90;
position = "{392, 17}";
}
);
layerId = "503E420B-61F7-4277-A1BE-A8852071B452";
paths = (
{
closed = 1;
nodes = (
"34 0 OFFCURVE",
"59 0 OFFCURVE",
"83 0 CURVE SMOOTH",
"106 0 OFFCURVE",
"161 0 OFFCURVE",
"216 -2 CURVE",
"218 8 OFFCURVE",
"218 25 OFFCURVE",
"216 35 CURVE",
"125 35 LINE",
"129 95 OFFCURVE",
"144 149 OFFCURVE",
"167 210 CURVE SMOOTH",
"286 525 LINE",
"392 720 LINE",
"372 723 OFFCURVE",
"322 723 OFFCURVE",
"302 720 CURVE",
"292 652 OFFCURVE",
"259 570 OFFCURVE",
"239 519 CURVE SMOOTH",
"120 210 LINE SMOOTH",
"97 150 OFFCURVE",
"74 95 OFFCURVE",
"44 35 CURVE",
"-13 35 LINE",
"-15 25 OFFCURVE",
"-15 8 OFFCURVE",
"-13 -2 CURVE"
);
},
{
closed = 1;
nodes = (
"616 91 OFFCURVE",
"590 150 OFFCURVE",
"568 210 CURVE SMOOTH",
"454 518 LINE SMOOTH",
"425 596 OFFCURVE",
"403 652 OFFCURVE",
"392 720 CURVE",
"286 525 LINE",
"405 210 LINE SMOOTH",
"428 149 OFFCURVE",
"450 95 OFFCURVE",
"462 35 CURVE",
"392 35 LINE",
"390 25 OFFCURVE",
"390 8 OFFCURVE",
"392 -2 CURVE",
"437 0 OFFCURVE",
"483 0 OFFCURVE",
"549 0 CURVE SMOOTH",
"620 0 OFFCURVE",
"640 0 OFFCURVE",
"687 -2 CURVE",
"689 8 OFFCURVE",
"689 25 OFFCURVE",
"687 35 CURVE",
"645 35 LINE"
);
},
{
closed = 1;
nodes = (
"426 270 LINE",
"161 270 LINE",
"161 230 LINE",
"426 230 LINE"
);
}
);
width = 690;
},
{
associatedMasterId = "503E420B-61F7-4277-A1BE-A8852071B452";
layerId = "0382C2FF-F800-4864-8231-4D40843BB73E";
name = "Nov 3 20, 17:23";
paths = (
{
closed = 1;
nodes = (
"641 0 LINE",
"641 32 LINE",
"588 32 LINE",
"564 77 OFFCURVE",
"542 124 OFFCURVE",
"524 172 CURVE SMOOTH",
"381 560 LINE SMOOTH",
"363 610 OFFCURVE",
"348 662 OFFCURVE",
"336 714 CURVE",
"286 714 LINE",
"277 662 OFFCURVE",
"264 610 OFFCURVE",
"247 560 CURVE SMOOTH",
"118 172 LINE SMOOTH",
"102 124 OFFCURVE",
"83 77 OFFCURVE",
"60 32 CURVE",
"7 32 LINE",
"7 0 LINE",
"170 0 LINE",
"170 32 LINE",
"118 32 LINE",
"125 80 OFFCURVE",
"137 126 OFFCURVE",
"152 172 CURVE SMOOTH",
"175 241 LINE",
"355 241 LINE",
"381 172 LINE SMOOTH",
"397 126 OFFCURVE",
"411 80 OFFCURVE",
"420 32 CURVE",
"367 32 LINE",
"367 0 LINE"
);
},
{
closed = 1;
nodes = (
"343 273 LINE",
"186 273 LINE",
"260 498 LINE"
);
}
);
width = 600;
},
{
associatedMasterId = "45069982-2EFC-4B7D-8C53-1932E6EAC4CA";
layerId = "2E6632BE-65B1-4B7E-A6E7-2954410A0793";
name = "Nov 3 20, 17:23";
paths = (
{
closed = 1;
nodes = (
"633 0 LINE",
"633 28 LINE",
"580 28 LINE",
"556 73 OFFCURVE",
"534 120 OFFCURVE",
"516 168 CURVE SMOOTH",
"372 560 LINE SMOOTH",
"353 610 OFFCURVE",
"338 662 OFFCURVE",
"327 714 CURVE",
"290 714 LINE",
"281 662 OFFCURVE",
"268 610 OFFCURVE",
"251 560 CURVE SMOOTH",
"120 168 LINE SMOOTH",
"104 120 OFFCURVE",
"85 73 OFFCURVE",
"62 28 CURVE",
"9 28 LINE",
"9 0 LINE",
"168 0 LINE",
"168 28 LINE",
"115 28 LINE",
"123 76 OFFCURVE",
"135 122 OFFCURVE",
"150 168 CURVE SMOOTH",
"176 245 LINE",
"383 245 LINE",
"411 168 LINE SMOOTH",
"428 122 OFFCURVE",
"441 76 OFFCURVE",
"451 28 CURVE",
"398 28 LINE",
"398 0 LINE"
);
},
{
closed = 1;
nodes = (
"372 273 LINE",
"185 273 LINE",
"274 540 LINE"
);
}
);
visible = 1;
width = 600;
}
);
leftKerningGroup = A;
rightKerningGroup = A;
unicode = 0041;
},
{
glyphname = AE;
lastChange = "2022-06-16 20:09:45 +0000";
layers = (
{
anchors = (
{
name = bottom;
position = "{503, 0}";
},
{
name = top;
position = "{503, 700}";
}
);
layerId = "45069982-2EFC-4B7D-8C53-1932E6EAC4CA";
paths = (
{
closed = 1;
nodes = (
"430 682 LINE",
"402 623 OFFCURVE",
"371 562 OFFCURVE",
"346 519 CURVE SMOOTH",
"166 210 LINE SMOOTH",
"130 149 OFFCURVE",
"96 95 OFFCURVE",
"51 35 CURVE",
"-6 35 LINE",
"-8 23 OFFCURVE",
"-8 10 OFFCURVE",
"-6 -2 CURVE",
"41 0 OFFCURVE",
"66 0 OFFCURVE",
"90 0 CURVE SMOOTH",
"113 0 OFFCURVE",
"158 0 OFFCURVE",
"213 -2 CURVE",
"215 10 OFFCURVE",
"215 23 OFFCURVE",
"213 35 CURVE",
"137 35 LINE",
"156 95 OFFCURVE",
"182 149 OFFCURVE",
"218 210 CURVE SMOOTH",
"417 550 LINE",
"488 682 LINE"
);
},
{
closed = 1;
nodes = (
"501 275 LINE",
"231 275 LINE",
"221 235 LINE",
"501 235 LINE"
);
},
{
closed = 1;
nodes = (
"888 0 LINE",
"888 40 LINE",
"568 40 LINE",
"561 100 OFFCURVE",
"558 150 OFFCURVE",
"558 210 CURVE SMOOTH",
"558 350 LINE",
"503 350 LINE",
"503 0 LINE"
);
},
{
closed = 1;
nodes = (
"888 185 LINE",
"877 187 OFFCURVE",
"867 187 OFFCURVE",
"856 185 CURVE",
"851 95 OFFCURVE",
"820 40 OFFCURVE",
"716 40 CURVE",
"888 40 LINE"
);
},
{
closed = 1;
nodes = (
"503 350 LINE",
"558 350 LINE",
"558 490 LINE SMOOTH",
"558 550 OFFCURVE",
"561 600 OFFCURVE",
"568 660 CURVE",
"853 660 LINE",
"853 700 LINE",
"503 700 LINE"
);
},
{
closed = 1;
nodes = (
"681 660 LINE",
"785 660 OFFCURVE",
"816 615 OFFCURVE",
"821 515 CURVE",
"832 513 OFFCURVE",
"842 513 OFFCURVE",
"853 515 CURVE",
"853 660 LINE"
);
},
{
closed = 1;
nodes = (
"754 398 OFFCURVE",
"739 380 OFFCURVE",
"693 380 CURVE SMOOTH",
"503 380 LINE",
"503 340 LINE",
"693 340 LINE SMOOTH",
"739 340 OFFCURVE",
"754 322 OFFCURVE",
"756 260 CURVE",
"767 258 OFFCURVE",
"777 258 OFFCURVE",
"788 260 CURVE",
"788 460 LINE",
"777 462 OFFCURVE",
"767 462 OFFCURVE",
"756 460 CURVE"
);
},
{
closed = 1;
nodes = (
"503 350 LINE",
"448 350 LINE",
"448 210 LINE SMOOTH",
"448 150 OFFCURVE",
"445 95 OFFCURVE",
"438 35 CURVE",
"366 35 LINE",
"364 25 OFFCURVE",
"364 8 OFFCURVE",
"366 -2 CURVE",
"412 0 OFFCURVE",
"457 0 OFFCURVE",
"503 0 CURVE"
);
},
{
closed = 1;
nodes = (
"457 700 OFFCURVE",
"372 700 OFFCURVE",
"326 702 CURVE",
"324 692 OFFCURVE",
"324 675 OFFCURVE",
"326 665 CURVE",
"438 665 LINE",
"445 605 OFFCURVE",
"448 550 OFFCURVE",
"448 490 CURVE SMOOTH",
"448 350 LINE",
"503 350 LINE",
"503 700 LINE"
);
}
);
width = 935;
},
{
anchors = (
{
name = bottom;
position = "{528, 0}";
},
{
name = top;
position = "{528, 700}";
}
);
layerId = "503E420B-61F7-4277-A1BE-A8852071B452";
paths = (
{
closed = 1;
nodes = (
"424 682 LINE",
"396 623 OFFCURVE",
"365 562 OFFCURVE",
"340 519 CURVE SMOOTH",
"160 210 LINE SMOOTH",
"124 149 OFFCURVE",
"90 95 OFFCURVE",
"45 35 CURVE",
"-12 35 LINE",
"-14 23 OFFCURVE",
"-14 10 OFFCURVE",
"-12 -2 CURVE",
"35 0 OFFCURVE",
"60 0 OFFCURVE",
"84 0 CURVE SMOOTH",
"107 0 OFFCURVE",
"162 0 OFFCURVE",
"217 -2 CURVE",
"219 10 OFFCURVE",
"219 23 OFFCURVE",
"217 35 CURVE",
"136 35 LINE",
"150 95 OFFCURVE",
"176 149 OFFCURVE",
"212 210 CURVE SMOOTH",
"411 550 LINE",
"482 682 LINE"
);
},
{
closed = 1;
nodes = (
"495 275 LINE",
"225 275 LINE",
"215 235 LINE",
"495 235 LINE"
);
},
{
closed = 1;
nodes = (
"903 0 LINE",
"903 40 LINE",
"613 40 LINE",
"606 100 OFFCURVE",
"603 150 OFFCURVE",
"603 210 CURVE SMOOTH",
"603 350 LINE",
"528 350 LINE",
"528 0 LINE"
);
},
{
closed = 1;
nodes = (
"903 190 LINE",
"892 192 OFFCURVE",
"882 192 OFFCURVE",
"871 190 CURVE",
"866 110 OFFCURVE",
"825 40 OFFCURVE",
"721 40 CURVE",
"903 40 LINE"
);
},
{
closed = 1;
nodes = (
"528 350 LINE",
"603 350 LINE",
"603 490 LINE SMOOTH",
"603 550 OFFCURVE",
"606 600 OFFCURVE",
"613 660 CURVE",
"868 660 LINE",
"868 700 LINE",
"528 700 LINE"
);
},
{
closed = 1;
nodes = (
"686 660 LINE",
"790 660 OFFCURVE",
"831 600 OFFCURVE",
"836 510 CURVE",
"847 508 OFFCURVE",
"857 508 OFFCURVE",
"868 510 CURVE",
"868 660 LINE"
);
},
{
closed = 1;
nodes = (
"759 408 OFFCURVE",
"734 380 OFFCURVE",
"678 380 CURVE SMOOTH",
"528 380 LINE",
"528 340 LINE",
"678 340 LINE SMOOTH",
"734 340 OFFCURVE",
"759 312 OFFCURVE",
"761 250 CURVE",
"772 248 OFFCURVE",
"782 248 OFFCURVE",
"793 250 CURVE",
"793 470 LINE",
"782 472 OFFCURVE",
"772 472 OFFCURVE",
"761 470 CURVE"
);
},
{
closed = 1;
nodes = (
"528 350 LINE",
"453 350 LINE",
"453 210 LINE SMOOTH",
"453 150 OFFCURVE",
"450 90 OFFCURVE",
"443 35 CURVE",
"376 35 LINE",
"374 25 OFFCURVE",
"374 8 OFFCURVE",
"376 -2 CURVE",
"422 0 OFFCURVE",
"482 0 OFFCURVE",
"528 0 CURVE"
);
},
{
closed = 1;
nodes = (
"482 700 OFFCURVE",
"452 700 OFFCURVE",
"326 702 CURVE",
"324 692 OFFCURVE",
"324 675 OFFCURVE",
"326 665 CURVE",
"443 665 LINE",
"450 610 OFFCURVE",
"453 550 OFFCURVE",
"453 490 CURVE SMOOTH",
"453 350 LINE",
"528 350 LINE",
"528 700 LINE"
);
}
);
width = 947;
}
);
leftKerningGroup = AE;
rightKerningGroup = E;
unicode = 00C6;
},
{
glyphname = B;
lastChange = "2020-11-29 15:03:21 +0000";
layers = (
{
anchors = (
{
name = bottom;
position = "{312, 0}";
},
{
name = top;
position = "{312, 700}";
}
);
layerId = "45069982-2EFC-4B7D-8C53-1932E6EAC4CA";
paths = (
{
closed = 1;
nodes = (
"492 380 OFFCURVE",
"582 432 OFFCURVE",
"582 535 CURVE SMOOTH",
"582 650 OFFCURVE",
"467 700 OFFCURVE",
"332 700 CURVE SMOOTH",
"182 700 LINE SMOOTH",
"136 700 OFFCURVE",
"91 700 OFFCURVE",
"45 702 CURVE",
"43 692 OFFCURVE",
"43 675 OFFCURVE",
"45 665 CURVE",
"117 665 LINE",
"124 605 OFFCURVE",
"127 550 OFFCURVE",
"127 490 CURVE SMOOTH",
"127 210 LINE SMOOTH",
"127 150 OFFCURVE",
"124 95 OFFCURVE",
"117 35 CURVE",
"45 35 LINE",
"43 25 OFFCURVE",
"43 8 OFFCURVE",
"45 -2 CURVE",
"91 0 OFFCURVE",
"136 0 OFFCURVE",
"182 0 CURVE SMOOTH",
"352 0 LINE SMOOTH",
"507 0 OFFCURVE",
"627 72 OFFCURVE",
"627 200 CURVE SMOOTH",
"627 320 OFFCURVE",
"512 360 OFFCURVE",
"412 370 CURVE"
);
},
{
closed = 1;
nodes = (
"240 100 OFFCURVE",
"237 150 OFFCURVE",
"237 210 CURVE SMOOTH",
"237 495 LINE SMOOTH",
"237 555 OFFCURVE",
"240 600 OFFCURVE",
"247 660 CURVE",
"322 660 LINE SMOOTH",
"417 660 OFFCURVE",
"462 603 OFFCURVE",
"462 523 CURVE SMOOTH",
"462 442 OFFCURVE",
"412 385 OFFCURVE",
"342 385 CURVE SMOOTH",
"182 385 LINE",
"182 345 LINE",
"342 345 LINE SMOOTH",
"457 345 OFFCURVE",
"502 278 OFFCURVE",
"502 193 CURVE SMOOTH",
"502 107 OFFCURVE",
"452 40 OFFCURVE",
"362 40 CURVE SMOOTH",
"247 40 LINE"
);
}
);
width = 674;
},
{
anchors = (
{
name = bottom;
position = "{334, 0}";
},
{
name = top;
position = "{334, 700}";
}
);
layerId = "503E420B-61F7-4277-A1BE-A8852071B452";
paths = (
{
closed = 1;
nodes = (
"507 381 OFFCURVE",
"600 434 OFFCURVE",
"600 533 CURVE SMOOTH",
"600 653 OFFCURVE",
"492 700 OFFCURVE",
"337 700 CURVE SMOOTH",
"195 700 LINE SMOOTH",
"149 700 OFFCURVE",
"89 700 OFFCURVE",
"43 702 CURVE",
"41 692 OFFCURVE",
"41 675 OFFCURVE",
"43 665 CURVE",
"110 665 LINE",
"117 610 OFFCURVE",
"120 550 OFFCURVE",
"120 490 CURVE SMOOTH",
"120 210 LINE SMOOTH",
"120 150 OFFCURVE",
"117 90 OFFCURVE",
"110 35 CURVE",
"43 35 LINE",
"41 25 OFFCURVE",
"41 8 OFFCURVE",
"43 -2 CURVE",
"89 0 OFFCURVE",
"149 0 OFFCURVE",
"195 0 CURVE SMOOTH",
"376 0 LINE SMOOTH",
"536 0 OFFCURVE",
"645 75 OFFCURVE",
"645 193 CURVE SMOOTH",
"645 308 OFFCURVE",
"547 365 OFFCURVE",
"417 371 CURVE"
);
},
{
closed = 1;
nodes = (
"273 100 OFFCURVE",
"270 150 OFFCURVE",
"270 210 CURVE SMOOTH",
"270 490 LINE SMOOTH",
"270 550 OFFCURVE",
"273 600 OFFCURVE",
"280 660 CURVE",
"307 660 LINE SMOOTH",
"397 660 OFFCURVE",
"440 612 OFFCURVE",
"440 521 CURVE SMOOTH",
"440 426 OFFCURVE",
"392 380 OFFCURVE",
"327 380 CURVE SMOOTH",
"202 380 LINE",
"202 340 LINE",
"347 340 LINE SMOOTH",
"427 340 OFFCURVE",
"480 283 OFFCURVE",
"480 192 CURVE SMOOTH",
"480 97 OFFCURVE",
"432 40 OFFCURVE",
"357 40 CURVE SMOOTH",
"280 40 LINE"
);
}
);
width = 687;
},
{
associatedMasterId = "45069982-2EFC-4B7D-8C53-1932E6EAC4CA";
layerId = "7A36FBBF-359E-4486-8001-DB64745F7A60";
name = "Nov 3 20, 00:31";
paths = (
{
closed = 1;
nodes = (
"552 294 OFFCURVE",
"483 354 OFFCURVE",
"382 372 CURVE",
"459 393 OFFCURVE",
"510 446 OFFCURVE",
"510 531 CURVE SMOOTH",
"510 644 OFFCURVE",
"420 700 OFFCURVE",
"298 700 CURVE SMOOTH",
"26 700 LINE",
"26 672 LINE",
"92 672 LINE",
"100 626 OFFCURVE",
"104 579 OFFCURVE",
"104 532 CURVE SMOOTH",
"104 168 LINE SMOOTH",
"104 121 OFFCURVE",
"100 74 OFFCURVE",
"92 28 CURVE",
"26 28 LINE",
"26 0 LINE",
"314 0 LINE SMOOTH",
"451 0 OFFCURVE",
"552 62 OFFCURVE",
"552 189 CURVE SMOOTH"
);
},
{
closed = 1;
nodes = (
"414 436 OFFCURVE",
"360 378 OFFCURVE",
"272 378 CURVE SMOOTH",
"214 378 LINE",
"214 532 LINE SMOOTH",
"214 579 OFFCURVE",
"218 626 OFFCURVE",
"226 672 CURVE",
"272 672 LINE SMOOTH",
"360 672 OFFCURVE",
"414 614 OFFCURVE",
"414 525 CURVE SMOOTH"
);
},
{
closed = 1;
nodes = (
"442 90 OFFCURVE",
"378 28 OFFCURVE",
"278 28 CURVE SMOOTH",
"226 28 LINE",
"218 74 OFFCURVE",
"214 121 OFFCURVE",
"214 168 CURVE SMOOTH",
"214 350 LINE",
"278 350 LINE SMOOTH",
"378 350 OFFCURVE",
"442 288 OFFCURVE",
"442 189 CURVE SMOOTH"
);
}
);
width = 600;
},
{
associatedMasterId = "503E420B-61F7-4277-A1BE-A8852071B452";
layerId = "D4FE6D89-57D7-4DDE-A630-5A6B506E6BA9";
name = "Nov 3 20, 00:31";
paths = (
{
closed = 1;
nodes = (
"606 296 OFFCURVE",
"538 355 OFFCURVE",
"438 375 CURVE",
"512 397 OFFCURVE",
"560 448 OFFCURVE",
"560 531 CURVE SMOOTH",
"560 646 OFFCURVE",
"466 700 OFFCURVE",
"341 700 CURVE SMOOTH",
"22 700 LINE",
"22 668 LINE",
"88 668 LINE",
"96 622 OFFCURVE",
"100 575 OFFCURVE",
"100 528 CURVE SMOOTH",
"100 172 LINE SMOOTH",
"100 125 OFFCURVE",
"96 78 OFFCURVE",
"88 32 CURVE",
"22 32 LINE",
"22 0 LINE",
"358 0 LINE SMOOTH",
"500 0 OFFCURVE",
"606 60 OFFCURVE",
"606 191 CURVE SMOOTH"
);
},
{
closed = 1;
nodes = (
"434 441 OFFCURVE",
"391 382 OFFCURVE",
"312 382 CURVE SMOOTH",
"250 382 LINE",
"250 528 LINE SMOOTH",
"250 575 OFFCURVE",
"254 622 OFFCURVE",
"262 668 CURVE",
"312 668 LINE SMOOTH",
"391 668 OFFCURVE",
"434 609 OFFCURVE",
"434 525 CURVE SMOOTH"
);
},
{
closed = 1;
nodes = (
"466 95 OFFCURVE",
"409 32 OFFCURVE",
"314 32 CURVE SMOOTH",
"262 32 LINE",
"254 78 OFFCURVE",
"250 125 OFFCURVE",
"250 172 CURVE SMOOTH",
"250 350 LINE",
"314 350 LINE SMOOTH",
"409 350 OFFCURVE",
"466 287 OFFCURVE",
"466 191 CURVE SMOOTH"
);
}
);
visible = 1;
width = 600;
}
);
leftKerningGroup = H;
unicode = 0042;
},
{
glyphname = C;
lastChange = "2020-11-29 15:03:21 +0000";
layers = (
{
anchors = (
{
name = bottom;
position = "{409, 0}";
},
{
name = top;
position = "{409, 700}";
}
);
layerId = "45069982-2EFC-4B7D-8C53-1932E6EAC4CA";
paths = (
{
closed = 1;
nodes = (
"594 83 OFFCURVE",
"509 27 OFFCURVE",
"412 27 CURVE SMOOTH",
"237 27 OFFCURVE",
"177 192 OFFCURVE",
"177 360 CURVE SMOOTH",
"177 528 OFFCURVE",
"242 673 OFFCURVE",
"416 673 CURVE SMOOTH",
"519 673 OFFCURVE",
"579 622 OFFCURVE",
"599 495 CURVE",
"610 493 OFFCURVE",
"620 493 OFFCURVE",
"631 495 CURVE",
"631 670 LINE",
"586 692 OFFCURVE",
"514 715 OFFCURVE",
"422 715 CURVE SMOOTH",
"192 715 OFFCURVE",
"52 568 OFFCURVE",
"52 350 CURVE SMOOTH",
"52 132 OFFCURVE",
"187 -15 OFFCURVE",
"412 -15 CURVE SMOOTH",
"514 -15 OFFCURVE",
"594 8 OFFCURVE",
"641 34 CURVE",
"641 210 LINE",
"630 212 OFFCURVE",
"620 212 OFFCURVE",
"609 210 CURVE"
);
}
);
width = 696;
},
{
anchors = (
{
name = bottom;
position = "{407, 0}";
},
{
name = top;
position = "{407, 700}";
}
);
layerId = "503E420B-61F7-4277-A1BE-A8852071B452";
paths = (
{
closed = 1;
nodes = (
"585 84 OFFCURVE",
"521 27 OFFCURVE",
"427 27 CURVE SMOOTH",
"262 27 OFFCURVE",
"217 202 OFFCURVE",
"217 366 CURVE SMOOTH",
"217 538 OFFCURVE",
"267 673 OFFCURVE",
"412 673 CURVE SMOOTH",
"523 673 OFFCURVE",
"570 616 OFFCURVE",
"595 485 CURVE",
"606 483 OFFCURVE",
"616 483 OFFCURVE",
"627 485 CURVE",
"627 670 LINE",
"561 702 OFFCURVE",
"491 715 OFFCURVE",
"422 715 CURVE SMOOTH",
"192 715 OFFCURVE",
"47 568 OFFCURVE",
"47 350 CURVE SMOOTH",
"47 132 OFFCURVE",
"187 -15 OFFCURVE",
"422 -15 CURVE SMOOTH",
"504 -15 OFFCURVE",
"571 3 OFFCURVE",
"637 35 CURVE",
"637 215 LINE",
"626 217 OFFCURVE",
"616 217 OFFCURVE",
"605 215 CURVE"
);
}
);
width = 689;
}
);
leftKerningGroup = O;
rightKerningGroup = C;
unicode = 0043;
},
{
glyphname = D;
lastChange = "2020-11-29 15:03:21 +0000";
layers = (
{
anchors = (
{
name = bottom;
position = "{392, 0}";
},
{
name = center;
position = "{392, 350}";
},
{
name = top;
position = "{392, 700}";
}
);
layerId = "45069982-2EFC-4B7D-8C53-1932E6EAC4CA";
paths = (
{
closed = 1;
nodes = (
"136 700 OFFCURVE",
"91 700 OFFCURVE",
"45 702 CURVE",
"43 692 OFFCURVE",
"43 675 OFFCURVE",
"45 665 CURVE",
"117 665 LINE",
"124 605 OFFCURVE",
"127 550 OFFCURVE",
"127 490 CURVE SMOOTH",
"127 210 LINE SMOOTH",
"127 150 OFFCURVE",
"124 95 OFFCURVE",
"117 35 CURVE",
"45 35 LINE",
"43 25 OFFCURVE",
"43 8 OFFCURVE",
"45 -2 CURVE",
"91 0 OFFCURVE",
"136 0 OFFCURVE",
"182 0 CURVE SMOOTH",
"377 0 LINE SMOOTH",
"587 0 OFFCURVE",
"732 147 OFFCURVE",
"732 365 CURVE SMOOTH",
"732 583 OFFCURVE",
"592 700 OFFCURVE",
"377 700 CURVE SMOOTH",
"182 700 LINE SMOOTH"
);
},
{
closed = 1;
nodes = (
"240 100 OFFCURVE",
"237 150 OFFCURVE",
"237 210 CURVE SMOOTH",
"237 490 LINE SMOOTH",
"237 550 OFFCURVE",
"240 600 OFFCURVE",
"247 660 CURVE",
"367 660 LINE SMOOTH",
"542 660 OFFCURVE",
"608 528 OFFCURVE",
"608 350 CURVE SMOOTH",
"608 172 OFFCURVE",
"537 40 OFFCURVE",
"387 40 CURVE SMOOTH",
"247 40 LINE"
);
}
);
width = 785;
},
{
anchors = (
{
name = bottom;
position = "{397, 0}";
},
{
name = center;
position = "{397, 350}";
},
{
name = top;
position = "{397, 700}";
}
);
layerId = "503E420B-61F7-4277-A1BE-A8852071B452";
paths = (
{
closed = 1;
nodes = (
"149 700 OFFCURVE",
"89 700 OFFCURVE",
"43 702 CURVE",
"41 692 OFFCURVE",
"41 675 OFFCURVE",
"43 665 CURVE",
"110 665 LINE",
"117 610 OFFCURVE",
"120 550 OFFCURVE",
"120 490 CURVE SMOOTH",
"120 210 LINE SMOOTH",
"120 150 OFFCURVE",
"117 90 OFFCURVE",
"110 35 CURVE",
"43 35 LINE",
"41 25 OFFCURVE",
"41 8 OFFCURVE",
"43 -2 CURVE",
"89 0 OFFCURVE",
"149 0 OFFCURVE",
"195 0 CURVE SMOOTH",
"376 0 LINE SMOOTH",
"616 0 OFFCURVE",
"762 142 OFFCURVE",
"762 364 CURVE SMOOTH",
"762 578 OFFCURVE",
"621 700 OFFCURVE",
"376 700 CURVE SMOOTH",
"195 700 LINE SMOOTH"
);
},
{
closed = 1;
nodes = (
"273 100 OFFCURVE",
"270 150 OFFCURVE",
"270 210 CURVE SMOOTH",
"270 490 LINE SMOOTH",
"270 550 OFFCURVE",
"273 600 OFFCURVE",
"280 660 CURVE",
"366 660 LINE SMOOTH",
"536 660 OFFCURVE",
"592 510 OFFCURVE",
"592 339 CURVE SMOOTH",
"592 170 OFFCURVE",
"541 40 OFFCURVE",
"386 40 CURVE SMOOTH",
"280 40 LINE"
);
}
);
width = 810;
}
);
leftKerningGroup = H;
rightKerningGroup = D;
unicode = 0044;
},
{
glyphname = Eth;
lastChange = "2020-11-29 15:03:21 +0000";
layers = (
{
components = (
{
name = D;
transform = "{1, 0, 0, 1, 2, 0}";
}
);
layerId = "45069982-2EFC-4B7D-8C53-1932E6EAC4CA";
paths = (
{
closed = 1;
nodes = (
"459 357 OFFCURVE",
"459 373 OFFCURVE",
"456 390 CURVE",
"46 390 LINE",
"43 373 OFFCURVE",
"43 357 OFFCURVE",
"46 340 CURVE",
"456 340 LINE"
);
}
);
width = 787;
},
{
components = (
{
name = D;
transform = "{1, 0, 0, 1, 2, 0}";
}
);
layerId = "503E420B-61F7-4277-A1BE-A8852071B452";
paths = (
{
closed = 1;
nodes = (
"494 357 OFFCURVE",
"494 373 OFFCURVE",
"491 390 CURVE",
"41 390 LINE",
"38 373 OFFCURVE",
"38 357 OFFCURVE",
"41 340 CURVE",
"491 340 LINE"
);
}
);
width = 812;
}
);
leftKerningGroup = H;
rightKerningGroup = D;
unicode = 00D0;
},
{
glyphname = E;
lastChange = "2022-06-13 16:04:00 +0000";
layers = (
{
anchors = (
{
name = bottom;
position = "{340, 0}";
},
{
name = ogonek;
position = "{537, 0}";
},
{
name = top;
position = "{320, 700}";
},
{
name = topleft;
position = "{22, 700}";
}
);
layerId = "45069982-2EFC-4B7D-8C53-1932E6EAC4CA";
paths = (
{
closed = 1;
nodes = (
"91 0 OFFCURVE",
"136 0 OFFCURVE",
"182 0 CURVE SMOOTH",
"567 0 LINE",
"567 185 LINE",
"556 187 OFFCURVE",
"546 187 OFFCURVE",
"535 185 CURVE",
"530 95 OFFCURVE",
"499 40 OFFCURVE",
"395 40 CURVE SMOOTH",
"247 40 LINE",
"240 100 OFFCURVE",
"237 150 OFFCURVE",
"237 210 CURVE SMOOTH",
"237 490 LINE SMOOTH",
"237 550 OFFCURVE",
"240 600 OFFCURVE",
"247 660 CURVE",
"360 660 LINE SMOOTH",
"464 660 OFFCURVE",
"495 615 OFFCURVE",
"500 515 CURVE",
"511 513 OFFCURVE",
"521 513 OFFCURVE",
"532 515 CURVE",
"532 700 LINE",
"182 700 LINE SMOOTH",
"136 700 OFFCURVE",
"91 700 OFFCURVE",
"45 702 CURVE",
"43 692 OFFCURVE",
"43 675 OFFCURVE",
"45 665 CURVE",
"117 665 LINE",
"124 605 OFFCURVE",
"127 550 OFFCURVE",
"127 490 CURVE SMOOTH",
"127 210 LINE SMOOTH",
"127 150 OFFCURVE",
"124 95 OFFCURVE",
"117 35 CURVE",
"45 35 LINE",
"43 25 OFFCURVE",
"43 8 OFFCURVE",
"45 -2 CURVE"
);
},
{
closed = 1;
nodes = (
"446 258 OFFCURVE",
"456 258 OFFCURVE",
"467 260 CURVE",
"467 460 LINE",
"456 462 OFFCURVE",
"446 462 OFFCURVE",
"435 460 CURVE",
"433 398 OFFCURVE",
"418 380 OFFCURVE",
"372 380 CURVE SMOOTH",
"182 380 LINE",
"182 340 LINE",
"372 340 LINE SMOOTH",
"418 340 OFFCURVE",
"433 322 OFFCURVE",
"435 260 CURVE"
);
}
);
width = 614;
},
{
anchors = (
{
name = bottom;
position = "{327, 0}";
},
{
name = ogonek;
position = "{540, 0}";
},
{
name = top;
position = "{328, 700}";
},
{
name = topleft;
position = "{17, 700}";
}
);
layerId = "503E420B-61F7-4277-A1BE-A8852071B452";
paths = (
{
closed = 1;
nodes = (
"89 0 OFFCURVE",
"149 0 OFFCURVE",
"195 0 CURVE SMOOTH",
"580 0 LINE",
"580 190 LINE",
"569 192 OFFCURVE",
"559 192 OFFCURVE",
"548 190 CURVE",
"543 110 OFFCURVE",
"502 40 OFFCURVE",
"398 40 CURVE SMOOTH",
"280 40 LINE",
"273 100 OFFCURVE",
"270 150 OFFCURVE",
"270 210 CURVE SMOOTH",
"270 490 LINE SMOOTH",
"270 550 OFFCURVE",
"273 600 OFFCURVE",
"280 660 CURVE",
"363 660 LINE SMOOTH",
"467 660 OFFCURVE",
"508 600 OFFCURVE",
"513 510 CURVE",
"524 508 OFFCURVE",
"534 508 OFFCURVE",
"545 510 CURVE",
"545 700 LINE",
"195 700 LINE SMOOTH",
"149 700 OFFCURVE",
"89 700 OFFCURVE",
"43 702 CURVE",
"41 692 OFFCURVE",
"41 675 OFFCURVE",
"43 665 CURVE",
"110 665 LINE",
"117 610 OFFCURVE",
"120 550 OFFCURVE",
"120 490 CURVE SMOOTH",
"120 210 LINE SMOOTH",
"120 150 OFFCURVE",
"117 90 OFFCURVE",
"110 35 CURVE",
"43 35 LINE",
"41 25 OFFCURVE",
"41 8 OFFCURVE",
"43 -2 CURVE"
);
},
{
closed = 1;
nodes = (
"449 248 OFFCURVE",
"459 248 OFFCURVE",
"470 250 CURVE",
"470 470 LINE",
"459 472 OFFCURVE",
"449 472 OFFCURVE",
"438 470 CURVE",
"436 408 OFFCURVE",
"411 380 OFFCURVE",
"355 380 CURVE SMOOTH",
"195 380 LINE",
"195 340 LINE",
"355 340 LINE SMOOTH",
"411 340 OFFCURVE",
"436 312 OFFCURVE",
"438 250 CURVE"
);
}
);
width = 624;
},
{
associatedMasterId = "45069982-2EFC-4B7D-8C53-1932E6EAC4CA";
layerId = "60009E37-1443-40CD-9C6F-0B5F08E8891D";
name = "Nov 1 20, 18:56";
paths = (
{
closed = 1;
nodes = (
"540 0 LINE",
"540 175 LINE",
"512 175 LINE",
"512 99 OFFCURVE",
"469 28 OFFCURVE",
"400 28 CURVE SMOOTH",
"232 28 LINE",
"224 74 OFFCURVE",
"220 121 OFFCURVE",
"220 168 CURVE SMOOTH",
"220 350 LINE",
"382 350 LINE SMOOTH",
"405 350 OFFCURVE",
"424 332 OFFCURVE",
"424 310 CURVE SMOOTH",
"424 284 LINE",
"452 284 LINE",
"452 444 LINE",
"424 444 LINE",
"424 418 LINE SMOOTH",
"424 396 OFFCURVE",
"405 378 OFFCURVE",
"382 378 CURVE SMOOTH",
"220 378 LINE",
"220 532 LINE SMOOTH",
"220 579 OFFCURVE",
"224 626 OFFCURVE",
"232 672 CURVE",
"356 672 LINE SMOOTH",
"425 672 OFFCURVE",
"468 601 OFFCURVE",
"468 525 CURVE",
"496 525 LINE",
"496 700 LINE",
"32 700 LINE",
"32 672 LINE",
"98 672 LINE",
"106 626 OFFCURVE",
"110 579 OFFCURVE",
"110 532 CURVE SMOOTH",
"110 168 LINE SMOOTH",
"110 121 OFFCURVE",
"106 74 OFFCURVE",
"98 28 CURVE",
"32 28 LINE",
"32 0 LINE"
);
}
);
width = 606;
}
);
leftKerningGroup = H;
rightKerningGroup = E;
unicode = 0045;
},
{
color = 5;
glyphname = Schwa;
lastChange = "2022-06-16 19:58:41 +0000";
layers = (
{
background = {
components = (
{
alignment = -1;
name = _COM_duze_O;
transform = "{1, 0, 0, 1, -10, 0}";
},
{
alignment = -1;
name = _COM_duze_O;
transform = "{-1, 0, 0, -1, 720, 700}";
}
);
};
layerId = "45069982-2EFC-4B7D-8C53-1932E6EAC4CA";
paths = (
{
closed = 1;
nodes = (
"241 715 OFFCURVE",
"141 657 OFFCURVE",
"54 541 CURVE",
"65 530 OFFCURVE",
"74 523 OFFCURVE",
"87 515 CURVE",
"162 620 OFFCURVE",
"240 661 OFFCURVE",
"325 661 CURVE SMOOTH",
"495 661 OFFCURVE",
"575 503 OFFCURVE",
"575 343 CURVE SMOOTH",
"575 175 OFFCURVE",
"513 25 OFFCURVE",
"365 25 CURVE SMOOTH",
"261 25 OFFCURVE",
"181 103 OFFCURVE",
"181 266 CURVE",
"603 266 LINE",
"603 306 LINE",
"211 306 LINE SMOOTH",
"141 306 OFFCURVE",
"95 311 OFFCURVE",
"50 317 CURVE",
"50 95 OFFCURVE",
"151 -15 OFFCURVE",
"356 -15 CURVE SMOOTH",
"558 -15 OFFCURVE",
"698 122 OFFCURVE",
"698 351 CURVE SMOOTH",
"698 584 OFFCURVE",
"560 715 OFFCURVE",
"368 715 CURVE SMOOTH"
);
}
);
width = 751;
},
{
background = {
anchors = (
{
name = bottom;
position = "{381, 0}";
},
{
name = center;
position = "{381, 350}";
},
{
name = ogonek;
position = "{497, 0}";
},
{
name = top;
position = "{381, 700}";
},
{
name = topleft;
position = "{6, 700}";
},
{
name = topright;
position = "{756, 700}";
}
);
components = (
{
alignment = -1;
name = _COM_duze_O;
transform = "{1, 0, 0, 1, -4, 0}";
},
{
alignment = -1;
name = _COM_duze_O;
transform = "{-1, 0, 0, -1, 766, 700}";
}
);
};
layerId = "503E420B-61F7-4277-A1BE-A8852071B452";
paths = (
{
closed = 1;
nodes = (
"250 715 OFFCURVE",
"150 658 OFFCURVE",
"57 543 CURVE",
"68 532 OFFCURVE",
"77 525 OFFCURVE",
"90 517 CURVE",
"173 618 OFFCURVE",
"257 657 OFFCURVE",
"352 657 CURVE SMOOTH",
"502 657 OFFCURVE",
"573 501 OFFCURVE",
"573 343 CURVE SMOOTH",
"573 175 OFFCURVE",
"519 25 OFFCURVE",
"390 25 CURVE SMOOTH",
"294 25 OFFCURVE",
"221 103 OFFCURVE",
"221 265 CURVE",
"628 265 LINE",
"628 305 LINE",
"216 305 LINE SMOOTH",
"142 305 OFFCURVE",
"93 310 OFFCURVE",
"45 316 CURVE",
"45 95 OFFCURVE",
"156 -15 OFFCURVE",
"381 -15 CURVE SMOOTH",
"593 -15 OFFCURVE",
"740 122 OFFCURVE",
"740 351 CURVE SMOOTH",
"740 584 OFFCURVE",
"595 715 OFFCURVE",
"391 715 CURVE SMOOTH"
);
}
);
width = 788;
}
);
leftKerningGroup = O;
rightKerningGroup = O;
unicode = 018F;
},
{
glyphname = F;
lastChange = "2020-11-29 15:03:21 +0000";
layers = (
{
anchors = (
{
name = bottom;
position = "{278, 0}";
},
{
name = top;
position = "{278, 700}";
}
);
layerId = "45069982-2EFC-4B7D-8C53-1932E6EAC4CA";
paths = (
{
closed = 1;
nodes = (
"91 0 OFFCURVE",
"136 0 OFFCURVE",
"182 0 CURVE SMOOTH",
"228 0 OFFCURVE",
"273 0 OFFCURVE",
"339 -2 CURVE",
"341 8 OFFCURVE",
"341 25 OFFCURVE",
"339 35 CURVE",
"247 35 LINE",
"240 95 OFFCURVE",
"237 150 OFFCURVE",
"237 210 CURVE SMOOTH",
"237 490 LINE SMOOTH",
"237 550 OFFCURVE",
"240 600 OFFCURVE",
"247 660 CURVE",
"355 660 LINE SMOOTH",
"459 660 OFFCURVE",
"490 620 OFFCURVE",
"495 520 CURVE",
"506 518 OFFCURVE",
"516 518 OFFCURVE",
"527 520 CURVE",
"527 700 LINE",
"182 700 LINE SMOOTH",
"136 700 OFFCURVE",
"91 700 OFFCURVE",
"45 702 CURVE",
"43 692 OFFCURVE",
"43 675 OFFCURVE",
"45 665 CURVE",
"117 665 LINE",
"124 605 OFFCURVE",
"127 550 OFFCURVE",
"127 490 CURVE SMOOTH",
"127 210 LINE SMOOTH",
"127 150 OFFCURVE",
"124 95 OFFCURVE",
"117 35 CURVE",
"45 35 LINE",
"43 25 OFFCURVE",
"43 8 OFFCURVE",
"45 -2 CURVE"
);
},
{
closed = 1;
nodes = (
"454 248 OFFCURVE",
"464 248 OFFCURVE",
"475 250 CURVE",
"475 450 LINE",
"464 452 OFFCURVE",
"454 452 OFFCURVE",
"443 450 CURVE",
"441 388 OFFCURVE",
"426 370 OFFCURVE",
"380 370 CURVE SMOOTH",
"182 370 LINE",
"182 330 LINE",
"380 330 LINE SMOOTH",
"426 330 OFFCURVE",
"441 312 OFFCURVE",
"443 250 CURVE"
);
}
);
width = 567;
},
{
anchors = (
{
name = bottom;
position = "{282, 0}";
},
{
name = top;
position = "{282, 700}";
}
);
layerId = "503E420B-61F7-4277-A1BE-A8852071B452";
paths = (
{
closed = 1;
nodes = (
"89 0 OFFCURVE",
"149 0 OFFCURVE",
"195 0 CURVE SMOOTH",
"241 0 OFFCURVE",
"301 0 OFFCURVE",
"377 -2 CURVE",
"379 8 OFFCURVE",
"379 25 OFFCURVE",
"377 35 CURVE",
"280 35 LINE",
"273 90 OFFCURVE",
"270 150 OFFCURVE",
"270 210 CURVE SMOOTH",
"270 490 LINE SMOOTH",
"270 550 OFFCURVE",
"273 600 OFFCURVE",
"280 660 CURVE",
"358 660 LINE SMOOTH",
"462 660 OFFCURVE",
"503 600 OFFCURVE",
"508 510 CURVE",
"519 508 OFFCURVE",
"529 508 OFFCURVE",
"540 510 CURVE",
"540 700 LINE",
"195 700 LINE SMOOTH",
"149 700 OFFCURVE",
"89 700 OFFCURVE",
"43 702 CURVE",
"41 692 OFFCURVE",
"41 675 OFFCURVE",
"43 665 CURVE",
"110 665 LINE",
"117 610 OFFCURVE",
"120 550 OFFCURVE",
"120 490 CURVE SMOOTH",
"120 210 LINE SMOOTH",
"120 150 OFFCURVE",
"117 90 OFFCURVE",
"110 35 CURVE",
"43 35 LINE",
"41 25 OFFCURVE",
"41 8 OFFCURVE",
"43 -2 CURVE"
);
},
{
closed = 1;
nodes = (
"469 238 OFFCURVE",
"479 238 OFFCURVE",
"490 240 CURVE",
"490 460 LINE",
"479 462 OFFCURVE",
"469 462 OFFCURVE",
"458 460 CURVE",
"456 398 OFFCURVE",
"431 370 OFFCURVE",
"375 370 CURVE SMOOTH",
"195 370 LINE",
"195 330 LINE",
"375 330 LINE SMOOTH",
"431 330 OFFCURVE",
"456 302 OFFCURVE",
"458 240 CURVE"
);
}
);
width = 577;
}
);
leftKerningGroup = H;
unicode = 0046;
},
{
glyphname = G;
lastChange = "2022-07-19 15:01:29 +0000";
layers = (
{
anchors = (
{
name = bottom;
position = "{429, 0}";
},
{
name = top;
position = "{413, 700}";
}
);
layerId = "45069982-2EFC-4B7D-8C53-1932E6EAC4CA";
paths = (
{
closed = 1;
nodes = (
"682 300 OFFCURVE",
"657 300 OFFCURVE",
"611 300 CURVE SMOOTH",
"575 300 OFFCURVE",
"520 300 OFFCURVE",
"474 302 CURVE",
"472 292 OFFCURVE",
"472 275 OFFCURVE",
"474 265 CURVE",
"556 265 LINE",
"563 205 OFFCURVE",
"566 137 OFFCURVE",
"566 67 CURVE",
"530 41 OFFCURVE",
"469 27 OFFCURVE",
"422 27 CURVE SMOOTH",
"247 27 OFFCURVE",
"177 192 OFFCURVE",
"177 360 CURVE SMOOTH",
"177 528 OFFCURVE",
"252 673 OFFCURVE",
"426 673 CURVE SMOOTH",
"539 673 OFFCURVE",
"599 622 OFFCURVE",
"619 505 CURVE",
"630 503 OFFCURVE",
"640 503 OFFCURVE",
"651 505 CURVE",
"651 670 LINE",
"606 692 OFFCURVE",
"534 715 OFFCURVE",
"432 715 CURVE SMOOTH",
"202 715 OFFCURVE",
"52 568 OFFCURVE",
"52 350 CURVE SMOOTH",
"52 132 OFFCURVE",
"197 -15 OFFCURVE",
"422 -15 CURVE SMOOTH",
"524 -15 OFFCURVE",
"605 8 OFFCURVE",
"666 40 CURVE",
"666 137 OFFCURVE",
"669 205 OFFCURVE",
"676 265 CURVE",
"728 265 LINE",
"730 275 OFFCURVE",
"730 292 OFFCURVE",
"728 302 CURVE"
);
}
);
width = 759;
},
{
anchors = (
{
name = bottom;
position = "{414, 0}";
},
{
name = top;
position = "{414, 700}";
}
);
layerId = "503E420B-61F7-4277-A1BE-A8852071B452";
paths = (
{
closed = 1;
nodes = (
"699 300 OFFCURVE",
"654 300 OFFCURVE",
"608 300 CURVE SMOOTH",
"552 300 OFFCURVE",
"502 300 OFFCURVE",
"456 302 CURVE",
"454 292 OFFCURVE",
"454 275 OFFCURVE",
"456 265 CURVE",
"533 265 LINE",
"540 210 OFFCURVE",
"543 150 OFFCURVE",
"543 72 CURVE",
"512 42 OFFCURVE",
"477 27 OFFCURVE",
"427 27 CURVE SMOOTH",
"267 27 OFFCURVE",
"217 202 OFFCURVE",
"217 366 CURVE SMOOTH",
"217 538 OFFCURVE",
"272 673 OFFCURVE",
"427 673 CURVE SMOOTH",
"548 673 OFFCURVE",
"595 606 OFFCURVE",
"620 485 CURVE",
"631 483 OFFCURVE",
"641 483 OFFCURVE",
"652 485 CURVE",
"652 670 LINE",
"586 702 OFFCURVE",
"516 715 OFFCURVE",
"437 715 CURVE SMOOTH",
"197 715 OFFCURVE",
"47 568 OFFCURVE",
"47 350 CURVE SMOOTH",
"47 132 OFFCURVE",
"192 -15 OFFCURVE",
"427 -15 CURVE SMOOTH",
"507 -15 OFFCURVE",
"574 3 OFFCURVE",
"683 50 CURVE",
"683 150 OFFCURVE",
"686 210 OFFCURVE",
"693 265 CURVE",
"745 265 LINE",
"747 275 OFFCURVE",
"747 292 OFFCURVE",
"745 302 CURVE"
);
}
);
width = 767;
}
);
leftKerningGroup = O;
rightKerningGroup = G;
unicode = 0047;
},
{
glyphname = H;
lastChange = "2020-11-29 15:03:21 +0000";
layers = (
{
anchors = (
{
name = bottom;
position = "{407, 0}";
},
{
name = center;
position = "{407, 350}";
},
{
name = ogonek;
position = "{699, 0}";
},
{
name = top;
position = "{407, 700}";
},
{
name = topleft;
position = "{27, 700}";
}
);
layerId = "45069982-2EFC-4B7D-8C53-1932E6EAC4CA";
paths = (
{
closed = 1;
nodes = (
"541 0 OFFCURVE",
"586 0 OFFCURVE",
"632 0 CURVE SMOOTH",
"678 0 OFFCURVE",
"723 0 OFFCURVE",
"769 -2 CURVE",
"771 8 OFFCURVE",
"771 25 OFFCURVE",
"769 35 CURVE",
"697 35 LINE",
"690 95 OFFCURVE",
"687 150 OFFCURVE",
"687 210 CURVE SMOOTH",
"687 490 LINE SMOOTH",
"687 550 OFFCURVE",
"690 605 OFFCURVE",
"697 665 CURVE",
"769 665 LINE",
"771 675 OFFCURVE",
"771 692 OFFCURVE",
"769 702 CURVE",
"723 700 OFFCURVE",
"678 700 OFFCURVE",
"632 700 CURVE SMOOTH",
"586 700 OFFCURVE",
"541 700 OFFCURVE",
"495 702 CURVE",
"493 692 OFFCURVE",
"493 675 OFFCURVE",
"495 665 CURVE",
"567 665 LINE",
"574 605 OFFCURVE",
"577 550 OFFCURVE",
"577 490 CURVE SMOOTH",
"577 210 LINE SMOOTH",
"577 150 OFFCURVE",
"574 95 OFFCURVE",
"567 35 CURVE",
"495 35 LINE",
"493 25 OFFCURVE",
"493 8 OFFCURVE",
"495 -2 CURVE"
);
},
{
closed = 1;
nodes = (
"91 0 OFFCURVE",
"136 0 OFFCURVE",
"182 0 CURVE SMOOTH",
"228 0 OFFCURVE",
"273 0 OFFCURVE",
"319 -2 CURVE",
"321 8 OFFCURVE",
"321 25 OFFCURVE",
"319 35 CURVE",
"247 35 LINE",
"240 95 OFFCURVE",
"237 150 OFFCURVE",
"237 210 CURVE SMOOTH",
"237 490 LINE SMOOTH",
"237 550 OFFCURVE",
"240 605 OFFCURVE",
"247 665 CURVE",
"319 665 LINE",
"321 675 OFFCURVE",
"321 692 OFFCURVE",
"319 702 CURVE",
"273 700 OFFCURVE",
"228 700 OFFCURVE",
"182 700 CURVE SMOOTH",
"136 700 OFFCURVE",
"91 700 OFFCURVE",
"45 702 CURVE",
"43 692 OFFCURVE",
"43 675 OFFCURVE",
"45 665 CURVE",
"117 665 LINE",
"124 605 OFFCURVE",
"127 550 OFFCURVE",
"127 490 CURVE SMOOTH",
"127 210 LINE SMOOTH",
"127 150 OFFCURVE",
"124 95 OFFCURVE",
"117 35 CURVE",
"45 35 LINE",
"43 25 OFFCURVE",
"43 8 OFFCURVE",
"45 -2 CURVE"
);
},
{
closed = 1;
nodes = (
"609 350 LINE",
"609 390 LINE",
"165 390 LINE",
"165 350 LINE"
);
}
);
width = 814;
},
{
anchors = (
{
name = bottom;
position = "{420, 0}";
},
{
name = center;
position = "{420, 350}";
},
{
name = ogonek;
position = "{707, 0}";
},
{
name = top;
position = "{420, 700}";
},
{
name = topleft;
position = "{22, 700}";
}
);
layerId = "503E420B-61F7-4277-A1BE-A8852071B452";
paths = (
{
closed = 1;
nodes = (
"539 0 OFFCURVE",
"599 0 OFFCURVE",
"645 0 CURVE SMOOTH",
"691 0 OFFCURVE",
"751 0 OFFCURVE",
"797 -2 CURVE",
"799 8 OFFCURVE",
"799 25 OFFCURVE",
"797 35 CURVE",
"730 35 LINE",
"723 90 OFFCURVE",
"720 150 OFFCURVE",
"720 210 CURVE SMOOTH",
"720 490 LINE SMOOTH",
"720 550 OFFCURVE",
"723 610 OFFCURVE",
"730 665 CURVE",
"797 665 LINE",
"799 675 OFFCURVE",
"799 692 OFFCURVE",
"797 702 CURVE",
"751 700 OFFCURVE",
"691 700 OFFCURVE",
"645 700 CURVE SMOOTH",
"599 700 OFFCURVE",
"539 700 OFFCURVE",
"493 702 CURVE",
"491 692 OFFCURVE",
"491 675 OFFCURVE",
"493 665 CURVE",
"560 665 LINE",
"567 610 OFFCURVE",
"570 550 OFFCURVE",
"570 490 CURVE SMOOTH",
"570 210 LINE SMOOTH",
"570 150 OFFCURVE",
"567 90 OFFCURVE",
"560 35 CURVE",
"493 35 LINE",
"491 25 OFFCURVE",
"491 8 OFFCURVE",
"493 -2 CURVE"
);
},
{
closed = 1;
nodes = (
"89 0 OFFCURVE",
"149 0 OFFCURVE",
"195 0 CURVE SMOOTH",
"241 0 OFFCURVE",
"301 0 OFFCURVE",
"347 -2 CURVE",
"349 8 OFFCURVE",
"349 25 OFFCURVE",
"347 35 CURVE",
"280 35 LINE",
"273 90 OFFCURVE",
"270 150 OFFCURVE",
"270 210 CURVE SMOOTH",
"270 490 LINE SMOOTH",
"270 550 OFFCURVE",
"273 610 OFFCURVE",
"280 665 CURVE",
"347 665 LINE",
"349 675 OFFCURVE",
"349 692 OFFCURVE",
"347 702 CURVE",
"301 700 OFFCURVE",
"241 700 OFFCURVE",
"195 700 CURVE SMOOTH",
"149 700 OFFCURVE",
"89 700 OFFCURVE",
"43 702 CURVE",
"41 692 OFFCURVE",
"41 675 OFFCURVE",
"43 665 CURVE",
"110 665 LINE",
"117 610 OFFCURVE",
"120 550 OFFCURVE",
"120 490 CURVE SMOOTH",
"120 210 LINE SMOOTH",
"120 150 OFFCURVE",
"117 90 OFFCURVE",
"110 35 CURVE",
"43 35 LINE",
"41 25 OFFCURVE",
"41 8 OFFCURVE",
"43 -2 CURVE"
);
},
{
closed = 1;
nodes = (
"629 350 LINE",
"629 390 LINE",
"185 390 LINE",
"185 350 LINE"
);
}
);
width = 840;
}
);
leftKerningGroup = H;
rightKerningGroup = H;
unicode = 0048;
},
{
glyphname = Hbar;
lastChange = "2020-11-29 15:03:21 +0000";
layers = (
{
components = (
{
name = H;
transform = "{1, 0, 0, 1, 5, 0}";
}
);
layerId = "45069982-2EFC-4B7D-8C53-1932E6EAC4CA";
paths = (
{
closed = 1;
nodes = (
"790 507 OFFCURVE",
"790 523 OFFCURVE",
"787 540 CURVE",
"27 540 LINE",
"24 523 OFFCURVE",
"24 507 OFFCURVE",
"27 490 CURVE",
"787 490 LINE"
);
}
);
width = 822;
},
{
components = (
{
name = H;
transform = "{1, 0, 0, 1, 2, 0}";
}
);
layerId = "503E420B-61F7-4277-A1BE-A8852071B452";
paths = (
{
closed = 1;
nodes = (
"800 507 OFFCURVE",
"800 523 OFFCURVE",
"797 540 CURVE",
"37 540 LINE",
"34 523 OFFCURVE",
"34 507 OFFCURVE",
"37 490 CURVE",
"797 490 LINE"
);
}
);
width = 843;
}
);
leftKerningGroup = H;
rightKerningGroup = H;
unicode = 0126;
},
{
glyphname = I;
lastChange = "2020-11-29 15:03:21 +0000";
layers = (
{
anchors = (
{
name = bottom;
position = "{182, 0}";
},
{
name = ogonek;
position = "{249, 0}";
},
{
name = top;
position = "{182, 700}";
},
{
name = topleft;
position = "{22, 700}";
}
);
layerId = "45069982-2EFC-4B7D-8C53-1932E6EAC4CA";
paths = (
{
closed = 1;
nodes = (
"91 0 OFFCURVE",
"136 0 OFFCURVE",
"182 0 CURVE SMOOTH",
"228 0 OFFCURVE",
"273 0 OFFCURVE",
"319 -2 CURVE",
"321 8 OFFCURVE",
"321 25 OFFCURVE",
"319 35 CURVE",
"247 35 LINE",
"240 95 OFFCURVE",
"237 150 OFFCURVE",
"237 210 CURVE SMOOTH",
"237 490 LINE SMOOTH",
"237 550 OFFCURVE",
"240 605 OFFCURVE",
"247 665 CURVE",
"319 665 LINE",
"321 675 OFFCURVE",
"321 692 OFFCURVE",
"319 702 CURVE",
"273 700 OFFCURVE",
"228 700 OFFCURVE",
"182 700 CURVE SMOOTH",
"136 700 OFFCURVE",
"91 700 OFFCURVE",
"45 702 CURVE",
"43 692 OFFCURVE",
"43 675 OFFCURVE",
"45 665 CURVE",
"117 665 LINE",
"124 605 OFFCURVE",
"127 550 OFFCURVE",
"127 490 CURVE SMOOTH",
"127 210 LINE SMOOTH",
"127 150 OFFCURVE",
"124 95 OFFCURVE",
"117 35 CURVE",
"45 35 LINE",
"43 25 OFFCURVE",
"43 8 OFFCURVE",
"45 -2 CURVE"
);
}
);
width = 364;
},
{
anchors = (
{
name = bottom;
position = "{195, 0}";
},
{
name = ogonek;
position = "{257, 0}";
},
{
name = top;
position = "{195, 700}";
},
{
name = topleft;
position = "{17, 700}";
}
);
layerId = "503E420B-61F7-4277-A1BE-A8852071B452";
paths = (
{
closed = 1;
nodes = (
"89 0 OFFCURVE",
"149 0 OFFCURVE",
"195 0 CURVE SMOOTH",
"241 0 OFFCURVE",
"301 0 OFFCURVE",
"347 -2 CURVE",
"349 8 OFFCURVE",
"349 25 OFFCURVE",
"347 35 CURVE",
"280 35 LINE",
"273 90 OFFCURVE",
"270 150 OFFCURVE",
"270 210 CURVE SMOOTH",
"270 490 LINE SMOOTH",
"270 550 OFFCURVE",
"273 610 OFFCURVE",
"280 665 CURVE",
"347 665 LINE",
"349 675 OFFCURVE",
"349 692 OFFCURVE",
"347 702 CURVE",
"301 700 OFFCURVE",
"241 700 OFFCURVE",
"195 700 CURVE SMOOTH",
"149 700 OFFCURVE",
"89 700 OFFCURVE",
"43 702 CURVE",
"41 692 OFFCURVE",
"41 675 OFFCURVE",
"43 665 CURVE",
"110 665 LINE",
"117 610 OFFCURVE",
"120 550 OFFCURVE",
"120 490 CURVE SMOOTH",
"120 210 LINE SMOOTH",
"120 150 OFFCURVE",
"117 90 OFFCURVE",
"110 35 CURVE",
"43 35 LINE",
"41 25 OFFCURVE",
"41 8 OFFCURVE",
"43 -2 CURVE"
);
}
);
width = 390;
}
);
leftKerningGroup = H;
rightKerningGroup = H;
unicode = 0049;
},
{
color = 5;
glyphname = J;
lastChange = "2022-06-19 19:17:35 +0000";
layers = (
{
anchors = (
{
name = bottom;
position = "{207, 0}";
},
{
name = top;
position = "{282, 700}";
}
);
layerId = "45069982-2EFC-4B7D-8C53-1932E6EAC4CA";
paths = (
{
closed = 1;
nodes = (
"278 -15 OFFCURVE",
"343 35 OFFCURVE",
"343 145 CURVE SMOOTH",
"343 490 LINE SMOOTH",
"343 550 OFFCURVE",
"346 605 OFFCURVE",
"353 665 CURVE",
"425 665 LINE",
"427 675 OFFCURVE",
"427 692 OFFCURVE",
"425 702 CURVE",
"379 700 OFFCURVE",
"334 700 OFFCURVE",
"288 700 CURVE SMOOTH",
"242 700 OFFCURVE",
"197 700 OFFCURVE",
"131 702 CURVE",
"129 692 OFFCURVE",
"129 675 OFFCURVE",
"131 665 CURVE",
"223 665 LINE",
"230 605 OFFCURVE",
"233 550 OFFCURVE",
"233 490 CURVE SMOOTH",
"233 145 LINE SMOOTH",
"233 53 OFFCURVE",
"214 20 OFFCURVE",
"177 20 CURVE SMOOTH",
"136 20 OFFCURVE",
"123 53 OFFCURVE",
"123 145 CURVE",
"18 145 LINE",
"18 28 OFFCURVE",
"78 -15 OFFCURVE",
"177 -15 CURVE SMOOTH"
);
}
);
width = 459;
},
{
anchors = (
{
name = bottom;
position = "{259, 0}";
},
{
name = top;
position = "{324, 700}";
}
);
layerId = "503E420B-61F7-4277-A1BE-A8852071B452";
paths = (
{
closed = 1;
nodes = (
"307 -15 OFFCURVE",
"412 15 OFFCURVE",
"412 165 CURVE SMOOTH",
"412 490 LINE SMOOTH",
"412 550 OFFCURVE",
"415 610 OFFCURVE",
"422 665 CURVE",
"489 665 LINE",
"491 675 OFFCURVE",
"491 692 OFFCURVE",
"489 702 CURVE",
"443 700 OFFCURVE",
"383 700 OFFCURVE",
"337 700 CURVE SMOOTH",
"291 700 OFFCURVE",
"231 700 OFFCURVE",
"155 702 CURVE",
"153 692 OFFCURVE",
"153 675 OFFCURVE",
"155 665 CURVE",
"252 665 LINE",
"259 610 OFFCURVE",
"262 550 OFFCURVE",
"262 490 CURVE SMOOTH",
"262 145 LINE SMOOTH",
"262 44 OFFCURVE",
"245 20 OFFCURVE",
"209 20 CURVE SMOOTH",
"169 20 OFFCURVE",
"152 65 OFFCURVE",
"152 165 CURVE",
"12 165 LINE",
"12 18 OFFCURVE",
"107 -15 OFFCURVE",
"211 -15 CURVE SMOOTH"
);
}
);
width = 521;
},
{
associatedMasterId = "503E420B-61F7-4277-A1BE-A8852071B452";
layerId = "1715D93D-F64C-41DC-AC19-451A84F52DCF";
name = "Nov 3 20, 17:00";
paths = (
{
closed = 1;
nodes = (
"445 668 LINE",
"445 700 LINE",
"139 700 LINE",
"139 668 LINE",
"205 668 LINE",
"213 622 OFFCURVE",
"217 575 OFFCURVE",
"217 528 CURVE SMOOTH",
"217 84 LINE SMOOTH",
"217 53 OFFCURVE",
"216 18 OFFCURVE",
"189 18 CURVE SMOOTH",
"162 18 OFFCURVE",
"161 53 OFFCURVE",
"161 84 CURVE SMOOTH",
"161 150 LINE",
"11 150 LINE",
"11 97 LINE",
"55 6 OFFCURVE",
"88 -14 OFFCURVE",
"189 -14 CURVE SMOOTH",
"296 -14 OFFCURVE",
"367 46 OFFCURVE",
"367 150 CURVE SMOOTH",
"367 528 LINE SMOOTH",
"367 575 OFFCURVE",
"371 622 OFFCURVE",
"379 668 CURVE"
);
}
);
width = 455;
},
{
associatedMasterId = "45069982-2EFC-4B7D-8C53-1932E6EAC4CA";
layerId = "0E9E6A32-06E3-42E8-A682-B4E78E34383A";
name = "Nov 3 20, 17:00";
paths = (
{
closed = 1;
nodes = (
"431 672 LINE",
"431 700 LINE",
"165 700 LINE",
"165 672 LINE",
"231 672 LINE",
"239 626 OFFCURVE",
"243 579 OFFCURVE",
"243 532 CURVE SMOOTH",
"243 70 LINE SMOOTH",
"243 38 OFFCURVE",
"215 14 OFFCURVE",
"183 14 CURVE SMOOTH",
"151 14 OFFCURVE",
"123 38 OFFCURVE",
"123 70 CURVE SMOOTH",
"123 125 LINE",
"13 125 LINE",
"13 81 LINE",
"62 2 OFFCURVE",
"91 -14 OFFCURVE",
"183 -14 CURVE SMOOTH",
"282 -14 OFFCURVE",
"353 33 OFFCURVE",
"353 125 CURVE SMOOTH",
"353 532 LINE SMOOTH",
"353 579 OFFCURVE",
"357 626 OFFCURVE",
"365 672 CURVE"
);
}
);
width = 451;
}
);
leftKerningGroup = J;
rightKerningGroup = J;
unicode = 004A;
},
{
glyphname = K;
lastChange = "2020-11-29 15:03:21 +0000";
layers = (
{
anchors = (
{
name = bottom;
position = "{418, 0}";
},
{
name = top;
position = "{367, 700}";
}
);
layerId = "45069982-2EFC-4B7D-8C53-1932E6EAC4CA";
paths = (
{
closed = 1;
nodes = (
"91 0 OFFCURVE",
"136 0 OFFCURVE",
"182 0 CURVE SMOOTH",
"228 0 OFFCURVE",
"273 0 OFFCURVE",
"319 -2 CURVE",
"321 8 OFFCURVE",
"321 25 OFFCURVE",
"319 35 CURVE",
"247 35 LINE",
"240 95 OFFCURVE",
"237 150 OFFCURVE",
"237 210 CURVE SMOOTH",
"237 490 LINE SMOOTH",
"237 550 OFFCURVE",
"240 605 OFFCURVE",
"247 665 CURVE",
"319 665 LINE",
"321 675 OFFCURVE",
"321 692 OFFCURVE",
"319 702 CURVE",
"273 700 OFFCURVE",
"228 700 OFFCURVE",
"182 700 CURVE SMOOTH",
"136 700 OFFCURVE",
"91 700 OFFCURVE",
"45 702 CURVE",
"43 692 OFFCURVE",
"43 675 OFFCURVE",
"45 665 CURVE",
"117 665 LINE",
"124 605 OFFCURVE",
"127 550 OFFCURVE",
"127 490 CURVE SMOOTH",
"127 210 LINE SMOOTH",
"127 150 OFFCURVE",
"124 95 OFFCURVE",
"117 35 CURVE",
"45 35 LINE",
"43 25 OFFCURVE",
"43 8 OFFCURVE",
"45 -2 CURVE"
);
},
{
closed = 1;
nodes = (
"631 -10 OFFCURVE",
"658 -6 OFFCURVE",
"690 0 CURVE",
"692 12 OFFCURVE",
"692 23 OFFCURVE",
"690 35 CURVE",
"629 39 OFFCURVE",
"614 51 OFFCURVE",
"599 107 CURVE SMOOTH",
"558 263 LINE SMOOTH",
"539 334 OFFCURVE",
"520 376 OFFCURVE",
"406 381 CURVE",
"429 388 OFFCURVE",
"459 402 OFFCURVE",
"479 437 CURVE SMOOTH",
"506 485 OFFCURVE",
"524 549 OFFCURVE",
"537 586 CURVE SMOOTH",
"550 624 OFFCURVE",
"566 650 OFFCURVE",
"581 665 CURVE",
"657 665 LINE",
"659 675 OFFCURVE",
"659 692 OFFCURVE",
"657 702 CURVE",
"601 700 OFFCURVE",
"560 700 OFFCURVE",
"534 700 CURVE SMOOTH",
"508 700 OFFCURVE",
"479 700 OFFCURVE",
"423 702 CURVE",
"421 692 OFFCURVE",
"421 675 OFFCURVE",
"423 665 CURVE",
"491 665 LINE",
"493 636 OFFCURVE",
"491 608 OFFCURVE",
"485 583 CURVE SMOOTH",
"473 534 OFFCURVE",
"453 488 OFFCURVE",
"435 455 CURVE SMOOTH",
"414 416 OFFCURVE",
"361 390 OFFCURVE",
"294 390 CURVE SMOOTH",
"232 390 LINE",
"232 350 LINE",
"311 350 LINE SMOOTH",
"406 350 OFFCURVE",
"429 312 OFFCURVE",
"447 243 CURVE SMOOTH",
"482 107 LINE SMOOTH",
"502 29 OFFCURVE",
"521 -10 OFFCURVE",
"601 -10 CURVE SMOOTH"
);
}
);
width = 704;
},
{
anchors = (
{
name = bottom;
position = "{419, 0}";
},
{
name = top;
position = "{392, 700}";
}
);
layerId = "503E420B-61F7-4277-A1BE-A8852071B452";
paths = (
{
closed = 1;
nodes = (
"89 0 OFFCURVE",
"149 0 OFFCURVE",
"195 0 CURVE SMOOTH",
"241 0 OFFCURVE",
"301 0 OFFCURVE",
"347 -2 CURVE",
"349 8 OFFCURVE",
"349 25 OFFCURVE",
"347 35 CURVE",
"280 35 LINE",
"273 90 OFFCURVE",
"270 150 OFFCURVE",
"270 210 CURVE SMOOTH",
"270 490 LINE SMOOTH",
"270 550 OFFCURVE",
"273 610 OFFCURVE",
"280 665 CURVE",
"347 665 LINE",
"349 675 OFFCURVE",
"349 692 OFFCURVE",
"347 702 CURVE",
"301 700 OFFCURVE",
"241 700 OFFCURVE",
"195 700 CURVE SMOOTH",
"149 700 OFFCURVE",
"89 700 OFFCURVE",
"43 702 CURVE",
"41 692 OFFCURVE",
"41 675 OFFCURVE",
"43 665 CURVE",
"110 665 LINE",
"117 610 OFFCURVE",
"120 550 OFFCURVE",
"120 490 CURVE SMOOTH",
"120 210 LINE SMOOTH",
"120 150 OFFCURVE",
"117 90 OFFCURVE",
"110 35 CURVE",
"43 35 LINE",
"41 25 OFFCURVE",
"41 8 OFFCURVE",
"43 -2 CURVE"
);
},
{
closed = 1;
nodes = (
"635 -10 OFFCURVE",
"660 -7 OFFCURVE",
"702 0 CURVE",
"704 12 OFFCURVE",
"704 23 OFFCURVE",
"702 35 CURVE",
"653 39 OFFCURVE",
"634 51 OFFCURVE",
"623 107 CURVE SMOOTH",
"597 238 LINE SMOOTH",
"575 347 OFFCURVE",
"533 381 OFFCURVE",
"425 381 CURVE",
"445 386 OFFCURVE",
"472 398 OFFCURVE",
"496 441 CURVE SMOOTH",
"525 493 OFFCURVE",
"542 549 OFFCURVE",
"555 586 CURVE SMOOTH",
"568 624 OFFCURVE",
"583 650 OFFCURVE",
"595 665 CURVE",
"670 665 LINE",
"672 675 OFFCURVE",
"672 692 OFFCURVE",
"670 702 CURVE",
"614 700 OFFCURVE",
"574 700 OFFCURVE",
"548 700 CURVE SMOOTH",
"522 700 OFFCURVE",
"492 700 OFFCURVE",
"436 702 CURVE",
"434 692 OFFCURVE",
"434 675 OFFCURVE",
"436 665 CURVE",
"511 665 LINE",
"513 636 OFFCURVE",
"510 608 OFFCURVE",
"504 583 CURVE SMOOTH",
"492 534 OFFCURVE",
"475 496 OFFCURVE",
"455 459 CURVE SMOOTH",
"430 412 OFFCURVE",
"365 390 OFFCURVE",
"298 390 CURVE SMOOTH",
"236 390 LINE",
"236 350 LINE",
"315 350 LINE SMOOTH",
"401 350 OFFCURVE",
"426 322 OFFCURVE",
"440 248 CURVE SMOOTH",
"466 107 LINE SMOOTH",
"480 29 OFFCURVE",
"503 -10 OFFCURVE",
"609 -10 CURVE"
);
}
);
width = 714;
},
{
associatedMasterId = "45069982-2EFC-4B7D-8C53-1932E6EAC4CA";
backgroundImage = {
imagePath = "../../../Downloads/1928–1931_Półtawski_Antykwa-poster.png";
locked = "1";
transform = "{6.7193, 0, 0, 6.7193, -9151, -1116}";
};
layerId = "63E9D5DE-420E-411E-9407-CD1D96B98881";
name = "Nov 3 20, 23:01";
paths = (
{
closed = 1;
nodes = (
"624 -7 LINE",
"624 21 LINE",
"610 21 LINE SMOOTH",
"566 21 OFFCURVE",
"551 73 OFFCURVE",
"547 122 CURVE SMOOTH",
"539 217 LINE SMOOTH",
"531 314 OFFCURVE",
"436 362 OFFCURVE",
"329 375 CURVE",
"364 393 OFFCURVE",
"395 422 OFFCURVE",
"416 457 CURVE SMOOTH",
"437 490 OFFCURVE",
"449 527 OFFCURVE",
"459 565 CURVE SMOOTH",
"474 617 OFFCURVE",
"498 672 OFFCURVE",
"549 672 CURVE SMOOTH",
"582 672 LINE",
"582 700 LINE",
"409 700 LINE",
"409 672 LINE",
"453 672 LINE",
"443 640 OFFCURVE",
"434 607 OFFCURVE",
"426 574 CURVE SMOOTH",
"417 539 OFFCURVE",
"410 504 OFFCURVE",
"393 472 CURVE SMOOTH",
"360 414 OFFCURVE",
"299 378 OFFCURVE",
"232 378 CURVE SMOOTH",
"214 378 LINE",
"214 532 LINE SMOOTH",
"214 579 OFFCURVE",
"218 626 OFFCURVE",
"226 672 CURVE",
"292 672 LINE",
"292 700 LINE",
"26 700 LINE",
"26 672 LINE",
"92 672 LINE",
"100 626 OFFCURVE",
"104 579 OFFCURVE",
"104 532 CURVE SMOOTH",
"104 168 LINE SMOOTH",
"104 121 OFFCURVE",
"100 74 OFFCURVE",
"92 28 CURVE",
"26 28 LINE",
"26 0 LINE",
"292 0 LINE",
"292 28 LINE",
"226 28 LINE",
"218 74 OFFCURVE",
"214 121 OFFCURVE",
"214 168 CURVE SMOOTH",
"214 350 LINE",
"269 350 LINE SMOOTH",
"368 350 OFFCURVE",
"409 326 OFFCURVE",
"417 231 CURVE SMOOTH",
"427 112 LINE SMOOTH",
"434 24 OFFCURVE",
"463 -7 OFFCURVE",
"551 -7 CURVE SMOOTH"
);
}
);
width = 630;
},
{
associatedMasterId = "503E420B-61F7-4277-A1BE-A8852071B452";
layerId = "0C429CB5-B70F-47A5-A555-33C77D04841A";
name = "Nov 4 20, 15:32";
paths = (
{
closed = 1;
nodes = (
"660 -7 LINE",
"660 25 LINE",
"644 25 LINE SMOOTH",
"602 25 OFFCURVE",
"595 78 OFFCURVE",
"591 126 CURVE SMOOTH",
"583 221 LINE SMOOTH",
"575 320 OFFCURVE",
"516 378 OFFCURVE",
"378 379 CURVE",
"409 398 OFFCURVE",
"435 424 OFFCURVE",
"455 456 CURVE SMOOTH",
"475 489 OFFCURVE",
"487 525 OFFCURVE",
"498 562 CURVE SMOOTH",
"514 614 OFFCURVE",
"538 668 OFFCURVE",
"589 668 CURVE SMOOTH",
"622 668 LINE",
"622 700 LINE",
"441 700 LINE",
"441 668 LINE",
"485 668 LINE",
"476 637 OFFCURVE",
"467 605 OFFCURVE",
"460 574 CURVE SMOOTH",
"452 539 OFFCURVE",
"445 504 OFFCURVE",
"427 473 CURVE SMOOTH",
"397 417 OFFCURVE",
"339 382 OFFCURVE",
"275 382 CURVE SMOOTH",
"250 382 LINE",
"250 528 LINE SMOOTH",
"250 575 OFFCURVE",
"254 622 OFFCURVE",
"262 668 CURVE",
"328 668 LINE",
"328 700 LINE",
"22 700 LINE",
"22 668 LINE",
"88 668 LINE",
"96 622 OFFCURVE",
"100 575 OFFCURVE",
"100 528 CURVE SMOOTH",
"100 172 LINE SMOOTH",
"100 125 OFFCURVE",
"96 78 OFFCURVE",
"88 32 CURVE",
"22 32 LINE",
"22 0 LINE",
"328 0 LINE",
"328 32 LINE",
"262 32 LINE",
"254 78 OFFCURVE",
"250 125 OFFCURVE",
"250 172 CURVE SMOOTH",
"250 350 LINE",
"325 350 LINE SMOOTH",
"403 350 OFFCURVE",
"419 314 OFFCURVE",
"426 231 CURVE SMOOTH",
"436 112 LINE SMOOTH",
"444 21 OFFCURVE",
"488 -7 OFFCURVE",
"560 -7 CURVE SMOOTH"
);
}
);
visible = 1;
width = 670;
}
);
leftKerningGroup = H;
rightKerningGroup = K;
unicode = 004B;
},
{
glyphname = L;
lastChange = "2020-11-29 15:03:21 +0000";
layers = (
{
anchors = (
{
name = bottom;
position = "{323, 0}";
},
{
name = center;
position = "{272, 350}";
},
{
name = top;
position = "{182, 700}";
},
{
name = topright;
position = "{522, 700}";
}
);
layerId = "45069982-2EFC-4B7D-8C53-1932E6EAC4CA";
paths = (
{
closed = 1;
nodes = (
"91 0 OFFCURVE",
"136 0 OFFCURVE",
"182 0 CURVE SMOOTH",
"552 0 LINE",
"552 205 LINE",
"541 207 OFFCURVE",
"531 207 OFFCURVE",
"520 205 CURVE",
"515 90 OFFCURVE",
"484 35 OFFCURVE",
"380 35 CURVE SMOOTH",
"247 35 LINE",
"240 95 OFFCURVE",
"237 150 OFFCURVE",
"237 210 CURVE SMOOTH",
"237 490 LINE SMOOTH",
"237 550 OFFCURVE",
"240 605 OFFCURVE",
"247 665 CURVE",
"319 665 LINE",
"321 675 OFFCURVE",
"321 692 OFFCURVE",
"319 702 CURVE",
"273 700 OFFCURVE",
"228 700 OFFCURVE",
"182 700 CURVE SMOOTH",
"136 700 OFFCURVE",
"91 700 OFFCURVE",
"45 702 CURVE",
"43 692 OFFCURVE",
"43 675 OFFCURVE",
"45 665 CURVE",
"117 665 LINE",
"124 605 OFFCURVE",
"127 550 OFFCURVE",
"127 490 CURVE SMOOTH",
"127 210 LINE SMOOTH",
"127 150 OFFCURVE",
"124 95 OFFCURVE",
"117 35 CURVE",
"45 35 LINE",
"43 25 OFFCURVE",
"43 8 OFFCURVE",
"45 -2 CURVE"
);
}
);
width = 582;
},
{
anchors = (
{
name = bottom;
position = "{329, 0}";
},
{
name = center;
position = "{279, 350}";
},
{
name = top;
position = "{194, 700}";
},
{
name = topright;
position = "{540, 700}";
}
);
layerId = "503E420B-61F7-4277-A1BE-A8852071B452";
paths = (
{
closed = 1;
nodes = (
"89 0 OFFCURVE",
"149 0 OFFCURVE",
"195 0 CURVE SMOOTH",
"560 0 LINE",
"560 210 LINE",
"549 212 OFFCURVE",
"539 212 OFFCURVE",
"528 210 CURVE",
"523 110 OFFCURVE",
"482 40 OFFCURVE",
"378 40 CURVE SMOOTH",
"280 40 LINE",
"273 100 OFFCURVE",
"270 150 OFFCURVE",
"270 210 CURVE SMOOTH",
"270 490 LINE SMOOTH",
"270 550 OFFCURVE",
"273 610 OFFCURVE",
"280 665 CURVE",
"347 665 LINE",
"349 675 OFFCURVE",
"349 692 OFFCURVE",
"347 702 CURVE",
"301 700 OFFCURVE",
"241 700 OFFCURVE",
"195 700 CURVE SMOOTH",
"149 700 OFFCURVE",
"89 700 OFFCURVE",
"43 702 CURVE",
"41 692 OFFCURVE",
"41 675 OFFCURVE",
"43 665 CURVE",
"110 665 LINE",
"117 610 OFFCURVE",
"120 550 OFFCURVE",
"120 490 CURVE SMOOTH",
"120 210 LINE SMOOTH",
"120 150 OFFCURVE",
"117 90 OFFCURVE",
"110 35 CURVE",
"43 35 LINE",
"41 25 OFFCURVE",
"41 8 OFFCURVE",
"43 -2 CURVE"
);
}
);
width = 586;
}
);
leftKerningGroup = H;
rightKerningGroup = L;
unicode = 004C;
},
{
glyphname = Lslash;
lastChange = "2020-11-29 15:03:21 +0000";
layers = (
{
components = (
{
name = L;
transform = "{1, 0, 0, 1, 53, 0}";
}
);
layerId = "45069982-2EFC-4B7D-8C53-1932E6EAC4CA";
paths = (
{
closed = 1;
nodes = (
"75 279 OFFCURVE",
"30 229 OFFCURVE",
"20 173 CURVE",
"48 168 OFFCURVE",
"62 168 OFFCURVE",
"90 173 CURVE",
"95 220 OFFCURVE",
"113 255 OFFCURVE",
"180 275 CURVE",
"180 305 LINE"
);
},
{
closed = 1;
nodes = (
"385 325 OFFCURVE",
"515 394 OFFCURVE",
"525 520 CURVE",
"497 525 OFFCURVE",
"478 525 OFFCURVE",
"450 520 CURVE",
"450 403 OFFCURVE",
"347 349 OFFCURVE",
"290 329 CURVE",
"290 299 LINE"
);
}
);
width = 636;
},
{
components = (
{
name = L;
transform = "{1, 0, 0, 1, 49, 0}";
}
);
layerId = "503E420B-61F7-4277-A1BE-A8852071B452";
paths = (
{
closed = 1;
nodes = (
"74 279 OFFCURVE",
"24 229 OFFCURVE",
"14 173 CURVE",
"42 168 OFFCURVE",
"76 168 OFFCURVE",
"104 173 CURVE",
"109 220 OFFCURVE",
"112 255 OFFCURVE",
"169 275 CURVE",
"169 305 LINE"
);
},
{
closed = 1;
nodes = (
"414 325 OFFCURVE",
"535 394 OFFCURVE",
"545 520 CURVE",
"517 525 OFFCURVE",
"473 525 OFFCURVE",
"445 520 CURVE",
"445 403 OFFCURVE",
"376 349 OFFCURVE",
"319 329 CURVE",
"319 299 LINE"
);
}
);
width = 637;
}
);
rightKerningGroup = L;
unicode = 0141;
},
{
glyphname = M;
lastChange = "2020-11-29 15:03:21 +0000";
layers = (
{
anchors = (
{
name = bottom;
position = "{436, 0}";
},
{
name = top;
position = "{481, 700}";
}
);
guideLines = (
{
angle = 247.3287;
position = "{636, 550}";
},
{
angle = -67.2258;
position = "{324, 560}";
}
);
layerId = "45069982-2EFC-4B7D-8C53-1932E6EAC4CA";
paths = (
{
closed = 1;
nodes = (
"431 -13 OFFCURVE",
"457 -13 OFFCURVE",
"474 -10 CURVE",
"482 38 OFFCURVE",
"496 92 OFFCURVE",
"511 130 CURVE SMOOTH",
"708 614 LINE",
"711 595 OFFCURVE",
"715 540 OFFCURVE",
"715 490 CURVE SMOOTH",
"715 210 LINE SMOOTH",
"715 150 OFFCURVE",
"712 95 OFFCURVE",
"705 35 CURVE",
"633 35 LINE",
"631 25 OFFCURVE",
"631 8 OFFCURVE",
"633 -2 CURVE",
"679 0 OFFCURVE",
"724 0 OFFCURVE",
"770 0 CURVE SMOOTH",
"816 0 OFFCURVE",
"861 0 OFFCURVE",
"907 -2 CURVE",
"909 8 OFFCURVE",
"909 25 OFFCURVE",
"907 35 CURVE",
"835 35 LINE",
"828 95 OFFCURVE",
"825 150 OFFCURVE",
"825 210 CURVE SMOOTH",
"825 490 LINE SMOOTH",
"825 550 OFFCURVE",
"828 605 OFFCURVE",
"835 665 CURVE",
"907 665 LINE",
"909 675 OFFCURVE",
"909 692 OFFCURVE",
"907 702 CURVE",
"861 700 OFFCURVE",
"816 700 OFFCURVE",
"770 700 CURVE SMOOTH",
"675 700 LINE",
"665 652 OFFCURVE",
"651 603 OFFCURVE",
"627 542 CURVE SMOOTH",
"479 170 LINE",
"319 560 LINE SMOOTH",
"301 603 OFFCURVE",
"286 652 OFFCURVE",
"276 700 CURVE",
"150 700 LINE SMOOTH",
"126 700 OFFCURVE",
"91 700 OFFCURVE",
"45 702 CURVE",
"43 692 OFFCURVE",
"43 675 OFFCURVE",
"45 665 CURVE",
"112 665 LINE",
"123 595 OFFCURVE",
"127 540 OFFCURVE",
"127 490 CURVE SMOOTH",
"127 210 LINE SMOOTH",
"127 150 OFFCURVE",
"123 95 OFFCURVE",
"112 35 CURVE",
"45 35 LINE",
"43 25 OFFCURVE",
"43 8 OFFCURVE",
"45 -2 CURVE",
"91 0 OFFCURVE",
"126 0 OFFCURVE",
"150 0 CURVE SMOOTH",
"175 0 OFFCURVE",
"220 0 OFFCURVE",
"266 -2 CURVE",
"268 8 OFFCURVE",
"268 25 OFFCURVE",
"266 35 CURVE",
"189 35 LINE",
"178 95 OFFCURVE",
"174 150 OFFCURVE",
"174 210 CURVE SMOOTH",
"174 490 LINE SMOOTH",
"174 540 OFFCURVE",
"177 595 OFFCURVE",
"178 614 CURVE",
"365 156 LINE SMOOTH",
"391 93 OFFCURVE",
"406 38 OFFCURVE",
"414 -10 CURVE"
);
}
);
width = 952;
},
{
anchors = (
{
name = bottom;
position = "{492, 0}";
},
{
name = top;
position = "{492, 700}";
}
);
layerId = "503E420B-61F7-4277-A1BE-A8852071B452";
paths = (
{
closed = 1;
nodes = (
"433 -13 OFFCURVE",
"459 -13 OFFCURVE",
"476 -10 CURVE",
"484 38 OFFCURVE",
"497 84 OFFCURVE",
"515 130 CURVE SMOOTH",
"706 614 LINE",
"709 595 OFFCURVE",
"713 540 OFFCURVE",
"713 490 CURVE SMOOTH",
"713 210 LINE SMOOTH",
"713 150 OFFCURVE",
"710 90 OFFCURVE",
"703 35 CURVE",
"636 35 LINE",
"634 25 OFFCURVE",
"634 8 OFFCURVE",
"636 -2 CURVE",
"682 0 OFFCURVE",
"742 0 OFFCURVE",
"788 0 CURVE SMOOTH",
"834 0 OFFCURVE",
"894 0 OFFCURVE",
"940 -2 CURVE",
"942 8 OFFCURVE",
"942 25 OFFCURVE",
"940 35 CURVE",
"873 35 LINE",
"866 90 OFFCURVE",
"863 150 OFFCURVE",
"863 210 CURVE SMOOTH",
"863 490 LINE SMOOTH",
"863 550 OFFCURVE",
"866 610 OFFCURVE",
"873 665 CURVE",
"940 665 LINE",
"942 675 OFFCURVE",
"942 692 OFFCURVE",
"940 702 CURVE",
"894 700 OFFCURVE",
"834 700 OFFCURVE",
"788 700 CURVE SMOOTH",
"673 700 LINE",
"663 652 OFFCURVE",
"649 603 OFFCURVE",
"625 542 CURVE SMOOTH",
"499 226 LINE",
"355 560 LINE SMOOTH",
"336 603 OFFCURVE",
"322 652 OFFCURVE",
"312 700 CURVE",
"148 700 LINE SMOOTH",
"124 700 OFFCURVE",
"89 700 OFFCURVE",
"43 702 CURVE",
"41 692 OFFCURVE",
"41 675 OFFCURVE",
"43 665 CURVE",
"110 665 LINE",
"121 595 OFFCURVE",
"125 540 OFFCURVE",
"125 490 CURVE SMOOTH",
"125 210 LINE SMOOTH",
"125 150 OFFCURVE",
"121 95 OFFCURVE",
"110 35 CURVE",
"43 35 LINE",
"41 25 OFFCURVE",
"41 8 OFFCURVE",
"43 -2 CURVE",
"89 0 OFFCURVE",
"124 0 OFFCURVE",
"148 0 CURVE SMOOTH",
"173 0 OFFCURVE",
"218 0 OFFCURVE",
"274 -2 CURVE",
"276 8 OFFCURVE",
"276 25 OFFCURVE",
"274 35 CURVE",
"187 35 LINE",
"176 95 OFFCURVE",
"172 150 OFFCURVE",
"172 210 CURVE SMOOTH",
"172 490 LINE SMOOTH",
"172 540 OFFCURVE",
"175 575 OFFCURVE",
"176 594 CURVE",
"374 130 LINE SMOOTH",
"394 84 OFFCURVE",
"409 38 OFFCURVE",
"416 -10 CURVE"
);
}
);
width = 983;
},
{
associatedMasterId = "45069982-2EFC-4B7D-8C53-1932E6EAC4CA";
backgroundImage = {
imagePath = "../../../Downloads/1928–1931_Półtawski_Antykwa-poster.png";
transform = "{6.719, 0, 0, 6.719, -2793, -20}";
};
components = (
{
alignment = -1;
name = _COM_I_serif;
transform = "{1, 0, 0, 1, 521, 0}";
},
{
alignment = -1;
name = _COM_I_serif;
transform = "{-1, 0, 0, 1, 799, 0}";
},
{
alignment = -1;
name = _COM_I_serif;
transform = "{-1, 0, 0, -1, 799, 700}";
}
);
layerId = "600275E2-B519-48EF-8B28-D3730BC0750D";
name = "Nov 3 20, 23:13";
paths = (
{
closed = 1;
nodes = (
"605 350 LINE",
"660 350 LINE",
"660 700 LINE",
"580 700 LINE",
"570 652 OFFCURVE",
"561 607 OFFCURVE",
"537 542 CURVE SMOOTH",
"416 211 LINE",
"284 560 LINE SMOOTH",
"267 606 OFFCURVE",
"253 652 OFFCURVE",
"243 700 CURVE",
"110 700 LINE",
"136 614 LINE",
"313 140 LINE SMOOTH",
"330 94 OFFCURVE",
"343 48 OFFCURVE",
"353 0 CURVE",
"391 0 LINE",
"401 48 OFFCURVE",
"416 93 OFFCURVE",
"432 140 CURVE SMOOTH",
"598 610 LINE",
"601 584 OFFCURVE",
"602 558 OFFCURVE",
"602 532 CURVE"
);
},
{
closed = 1;
nodes = (
"51 0 OFFCURVE",
"86 0 OFFCURVE",
"110 0 CURVE SMOOTH",
"133 0 OFFCURVE",
"178 0 OFFCURVE",
"224 -2 CURVE",
"226 8 OFFCURVE",
"226 25 OFFCURVE",
"224 35 CURVE",
"147 35 LINE",
"136 95 OFFCURVE",
"132 150 OFFCURVE",
"132 210 CURVE SMOOTH",
"132 490 LINE SMOOTH",
"132 540 OFFCURVE",
"135 595 OFFCURVE",
"139 635 CURVE",
"110 700 LINE",
"86 700 OFFCURVE",
"51 700 OFFCURVE",
"5 702 CURVE",
"3 692 OFFCURVE",
"3 675 OFFCURVE",
"5 665 CURVE",
"72 665 LINE",
"83 595 OFFCURVE",
"87 540 OFFCURVE",
"87 490 CURVE SMOOTH",
"87 210 LINE SMOOTH",
"87 150 OFFCURVE",
"83 95 OFFCURVE",
"72 35 CURVE",
"5 35 LINE",
"3 25 OFFCURVE",
"3 8 OFFCURVE",
"5 -2 CURVE"
);
}
);
width = 850;
}
);
leftKerningGroup = N;
rightKerningGroup = H;
unicode = 004D;
},
{
glyphname = N;
lastChange = "2020-11-29 15:03:21 +0000";
layers = (
{
anchors = (
{
name = bottom;
position = "{406, 0}";
},
{
name = top;
position = "{392, 700}";
}
);
layerId = "45069982-2EFC-4B7D-8C53-1932E6EAC4CA";
paths = (
{
closed = 1;
nodes = (
"631 -3 OFFCURVE",
"643 -3 OFFCURVE",
"667 0 CURVE",
"620 200 LINE",
"345 591 LINE SMOOTH",
"311 639 OFFCURVE",
"294 669 OFFCURVE",
"279 702 CURVE",
"243 700 OFFCURVE",
"194 700 OFFCURVE",
"150 700 CURVE",
"181 630 LINE",
"525 142 LINE SMOOTH",
"556 98 OFFCURVE",
"585 53 OFFCURVE",
"607 0 CURVE"
);
},
{
closed = 1;
nodes = (
"91 0 OFFCURVE",
"126 0 OFFCURVE",
"150 0 CURVE SMOOTH",
"175 0 OFFCURVE",
"220 0 OFFCURVE",
"266 -2 CURVE",
"268 8 OFFCURVE",
"268 25 OFFCURVE",
"266 35 CURVE",
"189 35 LINE",
"178 95 OFFCURVE",
"174 150 OFFCURVE",
"174 210 CURVE SMOOTH",
"174 490 LINE SMOOTH",
"174 540 OFFCURVE",
"177 590 OFFCURVE",
"181 630 CURVE",
"150 700 LINE",
"126 700 OFFCURVE",
"91 700 OFFCURVE",
"45 702 CURVE",
"43 692 OFFCURVE",
"43 675 OFFCURVE",
"45 665 CURVE",
"112 665 LINE",
"123 595 OFFCURVE",
"127 540 OFFCURVE",
"127 490 CURVE SMOOTH",
"127 210 LINE SMOOTH",
"127 150 OFFCURVE",
"123 95 OFFCURVE",
"112 35 CURVE",
"45 35 LINE",
"43 25 OFFCURVE",
"43 8 OFFCURVE",
"45 -2 CURVE"
);
},
{
closed = 1;
nodes = (
"667 490 LINE SMOOTH",
"667 550 OFFCURVE",
"671 595 OFFCURVE",
"682 665 CURVE",
"749 665 LINE",
"751 675 OFFCURVE",
"751 692 OFFCURVE",
"749 702 CURVE",
"703 700 OFFCURVE",
"668 700 OFFCURVE",
"645 700 CURVE SMOOTH",
"619 700 OFFCURVE",
"574 700 OFFCURVE",
"528 702 CURVE",
"526 692 OFFCURVE",
"526 675 OFFCURVE",
"528 665 CURVE",
"605 665 LINE",
"616 595 OFFCURVE",
"620 550 OFFCURVE",
"620 490 CURVE SMOOTH",
"620 200 LINE",
"667 0 LINE"
);
}
);
width = 788;
},
{
anchors = (
{
name = bottom;
position = "{418, 0}";
},
{
name = top;
position = "{418, 700}";
}
);
guideLines = (
{
angle = -53.7147;
position = "{366, 591}";
},
{
angle = -53.7147;
position = "{175, 589}";
}
);
layerId = "503E420B-61F7-4277-A1BE-A8852071B452";
paths = (
{
closed = 1;
nodes = (
"617 -3 OFFCURVE",
"659 -3 OFFCURVE",
"683 0 CURVE",
"636 230 LINE",
"366 591 LINE SMOOTH",
"332 637 OFFCURVE",
"316 669 OFFCURVE",
"299 702 CURVE",
"267 700 OFFCURVE",
"190 700 OFFCURVE",
"146 700 CURVE",
"175 584 LINE",
"523 115 LINE SMOOTH",
"560 65 OFFCURVE",
"572 43 OFFCURVE",
"593 0 CURVE"
);
},
{
closed = 1;
nodes = (
"87 0 OFFCURVE",
"122 0 OFFCURVE",
"146 0 CURVE SMOOTH",
"171 0 OFFCURVE",
"216 0 OFFCURVE",
"272 -2 CURVE",
"274 8 OFFCURVE",
"274 25 OFFCURVE",
"272 35 CURVE",
"185 35 LINE",
"174 95 OFFCURVE",
"170 150 OFFCURVE",
"170 210 CURVE SMOOTH",
"170 490 LINE SMOOTH",
"170 525 OFFCURVE",
"173 554 OFFCURVE",
"175 584 CURVE",
"146 700 LINE",
"122 700 OFFCURVE",
"87 700 OFFCURVE",
"41 702 CURVE",
"39 692 OFFCURVE",
"39 675 OFFCURVE",
"41 665 CURVE",
"108 665 LINE",
"119 595 OFFCURVE",
"123 550 OFFCURVE",
"123 490 CURVE SMOOTH",
"123 210 LINE SMOOTH",
"123 150 OFFCURVE",
"119 95 OFFCURVE",
"108 35 CURVE",
"41 35 LINE",
"39 25 OFFCURVE",
"39 8 OFFCURVE",
"41 -2 CURVE"
);
},
{
closed = 1;
nodes = (
"683 490 LINE SMOOTH",
"683 550 OFFCURVE",
"687 595 OFFCURVE",
"698 665 CURVE",
"765 665 LINE",
"767 675 OFFCURVE",
"767 692 OFFCURVE",
"765 702 CURVE",
"719 700 OFFCURVE",
"684 700 OFFCURVE",
"661 700 CURVE SMOOTH",
"635 700 OFFCURVE",
"590 700 OFFCURVE",
"534 702 CURVE",
"532 692 OFFCURVE",
"532 675 OFFCURVE",
"534 665 CURVE",
"621 665 LINE",
"632 595 OFFCURVE",
"636 550 OFFCURVE",
"636 490 CURVE SMOOTH",
"636 230 LINE",
"683 0 LINE"
);
}
);
width = 798;
},
{
associatedMasterId = "45069982-2EFC-4B7D-8C53-1932E6EAC4CA";
layerId = "BF957949-0343-4FF4-8FF1-492510490FCA";
name = "Nov 3 20, 00:11";
paths = (
{
closed = 1;
nodes = (
"708 672 LINE",
"708 700 LINE",
"524 700 LINE",
"524 672 LINE",
"590 672 LINE",
"598 626 OFFCURVE",
"602 579 OFFCURVE",
"602 532 CURVE SMOOTH",
"602 157 LINE",
"331 560 LINE SMOOTH",
"301 605 OFFCURVE",
"273 652 OFFCURVE",
"249 700 CURVE",
"26 700 LINE",
"26 672 LINE",
"92 672 LINE",
"100 626 OFFCURVE",
"104 579 OFFCURVE",
"104 532 CURVE SMOOTH",
"104 168 LINE SMOOTH",
"104 121 OFFCURVE",
"100 74 OFFCURVE",
"92 28 CURVE",
"26 28 LINE",
"26 0 LINE",
"210 0 LINE",
"210 28 LINE",
"144 28 LINE",
"136 74 OFFCURVE",
"132 121 OFFCURVE",
"132 168 CURVE SMOOTH",
"132 532 LINE SMOOTH",
"132 570 OFFCURVE",
"135 609 OFFCURVE",
"140 646 CURVE",
"575 0 LINE",
"630 0 LINE",
"630 532 LINE SMOOTH",
"630 579 OFFCURVE",
"634 626 OFFCURVE",
"642 672 CURVE"
);
}
);
visible = 1;
width = 740;
},
{
associatedMasterId = "503E420B-61F7-4277-A1BE-A8852071B452";
layerId = "9695E5B7-726F-40F9-9BB5-3EF3996D3927";
name = "Nov 3 20, 00:21";
paths = (
{
closed = 1;
nodes = (
"664 668 LINE",
"664 700 LINE",
"476 700 LINE",
"476 668 LINE",
"542 668 LINE",
"550 622 OFFCURVE",
"554 575 OFFCURVE",
"554 528 CURVE SMOOTH",
"554 223 LINE",
"356 560 LINE SMOOTH",
"330 605 OFFCURVE",
"306 652 OFFCURVE",
"286 700 CURVE",
"22 700 LINE",
"22 668 LINE",
"88 668 LINE",
"96 622 OFFCURVE",
"100 575 OFFCURVE",
"100 528 CURVE SMOOTH",
"100 172 LINE SMOOTH",
"100 125 OFFCURVE",
"96 78 OFFCURVE",
"88 32 CURVE",
"22 32 LINE",
"22 0 LINE",
"210 0 LINE",
"210 32 LINE",
"144 32 LINE",
"136 78 OFFCURVE",
"132 125 OFFCURVE",
"132 172 CURVE SMOOTH",
"132 528 LINE SMOOTH",
"132 563 OFFCURVE",
"134 599 OFFCURVE",
"139 634 CURVE",
"511 0 LINE",
"586 0 LINE",
"586 528 LINE SMOOTH",
"586 575 OFFCURVE",
"590 622 OFFCURVE",
"598 668 CURVE"
);
}
);
width = 683;
}
);
leftKerningGroup = N;
rightKerningGroup = N;
unicode = 004E;
},
{
glyphname = Eng;
lastChange = "2020-11-29 15:03:21 +0000";
layers = (
{
components = (
{
name = N;
}
);
layerId = "45069982-2EFC-4B7D-8C53-1932E6EAC4CA";
paths = (
{
closed = 1;
nodes = (
"342 -182 OFFCURVE",
"402 -225 OFFCURVE",
"501 -225 CURVE SMOOTH",
"602 -225 OFFCURVE",
"667 -175 OFFCURVE",
"667 -75 CURVE",
"667 140 LINE",
"557 140 LINE",
"557 -85 LINE",
"557 -161 OFFCURVE",
"540 -183 OFFCURVE",
"504 -183 CURVE SMOOTH",
"462 -183 OFFCURVE",
"447 -157 OFFCURVE",
"447 -65 CURVE",
"342 -65 LINE"
);
}
);
width = 787;
},
{
components = (
{
name = N;
}
);
layerId = "503E420B-61F7-4277-A1BE-A8852071B452";
paths = (
{
closed = 1;
nodes = (
"313 -167 OFFCURVE",
"388 -200 OFFCURVE",
"492 -200 CURVE SMOOTH",
"588 -200 OFFCURVE",
"683 -170 OFFCURVE",
"683 -20 CURVE",
"683 165 LINE",
"543 165 LINE",
"543 -40 LINE",
"543 -136 OFFCURVE",
"526 -158 OFFCURVE",
"490 -158 CURVE SMOOTH",
"450 -158 OFFCURVE",
"438 -115 OFFCURVE",
"438 -60 CURVE",
"303 -60 LINE"
);
}
);
width = 798;
}
);
leftKerningGroup = N;
rightKerningGroup = N;
unicode = 014A;
},
{
glyphname = Oslash;
lastChange = "2020-11-29 15:03:21 +0000";
layers = (
{
components = (
{
name = O;
transform = "{1, 0, 0, 1, 7, 0}";
}
);
layerId = "45069982-2EFC-4B7D-8C53-1932E6EAC4CA";
paths = (
{
closed = 1;
nodes = (
"649 435 OFFCURVE",
"110 277 OFFCURVE",
"80 -30 CURVE",
"100 -33 OFFCURVE",
"121 -33 OFFCURVE",
"141 -30 CURVE",
"161 266 OFFCURVE",
"700 423 OFFCURVE",
"730 730 CURVE",
"710 733 OFFCURVE",
"689 733 OFFCURVE",
"669 730 CURVE"
);
}
);
width = 810;
},
{
components = (
{
name = O;
transform = "{1, 0, 0, 1, 2, 0}";
}
);
layerId = "503E420B-61F7-4277-A1BE-A8852071B452";
paths = (
{
closed = 1;
nodes = (
"654 435 OFFCURVE",
"115 277 OFFCURVE",
"85 -30 CURVE",
"105 -33 OFFCURVE",
"126 -33 OFFCURVE",
"146 -30 CURVE",
"166 266 OFFCURVE",
"705 423 OFFCURVE",
"735 730 CURVE",
"715 733 OFFCURVE",
"694 733 OFFCURVE",
"674 730 CURVE"
);
}
);
width = 819;
}
);
leftKerningGroup = O;
rightKerningGroup = O;
unicode = 00D8;
},
{
glyphname = OE;
lastChange = "2020-11-29 15:03:21 +0000";
layers = (
{
anchors = (
{
name = bottom;
position = "{574, 0}";
},
{
name = top;
position = "{574, 700}";
}
);
layerId = "45069982-2EFC-4B7D-8C53-1932E6EAC4CA";
paths = (
{
closed = 1;
nodes = (
"408 27 LINE",
"233 27 OFFCURVE",
"178 192 OFFCURVE",
"178 360 CURVE SMOOTH",
"178 528 OFFCURVE",
"238 673 OFFCURVE",
"388 673 CURVE",
"398 715 LINE",
"188 715 OFFCURVE",
"53 568 OFFCURVE",
"53 350 CURVE SMOOTH",
"53 132 OFFCURVE",
"183 -15 OFFCURVE",
"398 -15 CURVE"
);
},
{
closed = 1;
nodes = (
"455 -15 OFFCURVE",
"506 -4 OFFCURVE",
"551 16 CURVE",
"551 121 LINE",
"516 51 OFFCURVE",
"469 27 OFFCURVE",
"408 27 CURVE",
"398 -15 LINE"
);
},
{
closed = 1;
nodes = (
"573 0 LINE",
"573 350 LINE",
"518 350 LINE",
"518 210 LINE SMOOTH",
"518 150 OFFCURVE",
"515 95 OFFCURVE",
"508 -3 CURVE"
);
},
{
closed = 1;
nodes = (
"958 0 LINE",
"958 40 LINE",
"638 40 LINE",
"631 100 OFFCURVE",
"628 150 OFFCURVE",
"628 210 CURVE SMOOTH",
"628 350 LINE",
"573 350 LINE",
"573 0 LINE"
);
},
{
closed = 1;
nodes = (
"958 40 LINE",
"958 185 LINE",
"947 187 OFFCURVE",
"937 187 OFFCURVE",
"926 185 CURVE",
"921 95 OFFCURVE",
"890 40 OFFCURVE",
"786 40 CURVE"
);
},
{
closed = 1;
nodes = (
"573 350 LINE",
"573 700 LINE",
"508 700 LINE",
"515 605 OFFCURVE",
"518 550 OFFCURVE",
"518 490 CURVE SMOOTH",
"518 350 LINE"
);
},
{
closed = 1;
nodes = (
"837 258 OFFCURVE",
"847 258 OFFCURVE",
"858 260 CURVE",
"858 460 LINE",
"847 462 OFFCURVE",
"837 462 OFFCURVE",
"826 460 CURVE",
"824 398 OFFCURVE",
"809 380 OFFCURVE",
"763 380 CURVE SMOOTH",
"573 380 LINE",
"573 340 LINE",
"763 340 LINE SMOOTH",
"809 340 OFFCURVE",
"824 322 OFFCURVE",
"826 260 CURVE"
);
},
{
closed = 1;
nodes = (
"547 687 LINE",
"504 705 OFFCURVE",
"454 715 OFFCURVE",
"398 715 CURVE",
"388 673 LINE",
"459 673 OFFCURVE",
"511 646 OFFCURVE",
"547 573 CURVE"
);
},
{
closed = 1;
nodes = (
"628 350 LINE",
"628 490 LINE SMOOTH",
"628 550 OFFCURVE",
"631 600 OFFCURVE",
"638 660 CURVE",
"923 660 LINE",
"923 700 LINE",
"573 700 LINE",
"573 350 LINE"
);
},
{
closed = 1;
nodes = (
"902 513 OFFCURVE",
"912 513 OFFCURVE",
"923 515 CURVE",
"923 660 LINE",
"751 660 LINE",
"855 660 OFFCURVE",
"886 615 OFFCURVE",
"891 515 CURVE"
);
}
);
width = 1005;
},
{
anchors = (
{
name = bottom;
position = "{600, 0}";
},
{
name = top;
position = "{600, 700}";
}
);
layerId = "503E420B-61F7-4277-A1BE-A8852071B452";
paths = (
{
closed = 1;
nodes = (
"418 27 LINE",
"268 27 OFFCURVE",
"218 202 OFFCURVE",
"218 370 CURVE SMOOTH",
"218 538 OFFCURVE",
"263 673 OFFCURVE",
"398 673 CURVE",
"408 715 LINE",
"188 715 OFFCURVE",
"48 568 OFFCURVE",
"48 350 CURVE SMOOTH",
"48 132 OFFCURVE",
"183 -15 OFFCURVE",
"408 -15 CURVE"
);
},
{
closed = 1;
nodes = (
"454 -15 OFFCURVE",
"497 -9 OFFCURVE",
"535 4 CURVE",
"535 130 LINE",
"507 46 OFFCURVE",
"469 27 OFFCURVE",
"418 27 CURVE",
"408 -15 LINE"
);
},
{
closed = 1;
nodes = (
"601 0 LINE",
"601 350 LINE",
"526 350 LINE",
"526 210 LINE SMOOTH",
"526 150 OFFCURVE",
"523 90 OFFCURVE",
"516 0 CURVE"
);
},
{
closed = 1;
nodes = (
"976 0 LINE",
"976 40 LINE",
"686 40 LINE",
"679 100 OFFCURVE",
"676 150 OFFCURVE",
"676 210 CURVE SMOOTH",
"676 350 LINE",
"601 350 LINE",
"601 0 LINE"
);
},
{
closed = 1;
nodes = (
"976 40 LINE",
"976 190 LINE",
"965 192 OFFCURVE",
"955 192 OFFCURVE",
"944 190 CURVE",
"939 110 OFFCURVE",
"898 40 OFFCURVE",
"794 40 CURVE"
);
},
{
closed = 1;
nodes = (
"601 350 LINE",
"601 700 LINE",
"516 700 LINE",
"523 610 OFFCURVE",
"526 550 OFFCURVE",
"526 490 CURVE SMOOTH",
"526 350 LINE"
);
},
{
closed = 1;
nodes = (
"845 248 OFFCURVE",
"855 248 OFFCURVE",
"866 250 CURVE",
"866 470 LINE",
"855 472 OFFCURVE",
"845 472 OFFCURVE",
"834 470 CURVE",
"832 408 OFFCURVE",
"807 380 OFFCURVE",
"751 380 CURVE SMOOTH",
"601 380 LINE",
"601 340 LINE",
"751 340 LINE SMOOTH",
"807 340 OFFCURVE",
"832 312 OFFCURVE",
"834 250 CURVE"
);
},
{
closed = 1;
nodes = (
"535 697 LINE",
"497 709 OFFCURVE",
"454 715 OFFCURVE",
"408 715 CURVE",
"398 673 LINE",
"459 673 OFFCURVE",
"504 644 OFFCURVE",
"535 548 CURVE"
);
},
{
closed = 1;
nodes = (
"676 350 LINE",
"676 490 LINE SMOOTH",
"676 550 OFFCURVE",
"679 600 OFFCURVE",
"686 660 CURVE",
"941 660 LINE",
"941 700 LINE",
"601 700 LINE",
"601 350 LINE"
);
},
{
closed = 1;
nodes = (
"920 508 OFFCURVE",
"930 508 OFFCURVE",
"941 510 CURVE",
"941 660 LINE",
"759 660 LINE",
"863 660 OFFCURVE",
"904 600 OFFCURVE",
"909 510 CURVE"
);
}
);
width = 1020;
}
);
leftKerningGroup = O;
rightKerningGroup = E;
unicode = 0152;
},
{
glyphname = P;
lastChange = "2020-11-29 15:03:21 +0000";
layers = (
{
anchors = (
{
name = bottom;
position = "{297, 0}";
},
{
name = top;
position = "{297, 700}";
}
);
guideLines = (
{
angle = 90;
position = "{544, 501}";
}
);
layerId = "45069982-2EFC-4B7D-8C53-1932E6EAC4CA";
paths = (
{
closed = 1;
nodes = (
"91 0 OFFCURVE",
"136 0 OFFCURVE",
"182 0 CURVE SMOOTH",
"228 0 OFFCURVE",
"273 0 OFFCURVE",
"339 -2 CURVE",
"341 8 OFFCURVE",
"341 25 OFFCURVE",
"339 35 CURVE",
"247 35 LINE",
"240 95 OFFCURVE",
"237 150 OFFCURVE",
"237 210 CURVE SMOOTH",
"237 490 LINE SMOOTH",
"237 550 OFFCURVE",
"240 600 OFFCURVE",
"247 660 CURVE",
"312 660 LINE SMOOTH",
"417 660 OFFCURVE",
"462 603 OFFCURVE",
"462 503 CURVE SMOOTH",
"462 397 OFFCURVE",
"412 340 OFFCURVE",
"332 340 CURVE SMOOTH",
"182 340 LINE",
"182 300 LINE",
"322 300 LINE SMOOTH",
"467 300 OFFCURVE",
"587 372 OFFCURVE",
"587 510 CURVE SMOOTH",
"587 645 OFFCURVE",
"472 700 OFFCURVE",
"322 700 CURVE SMOOTH",
"182 700 LINE SMOOTH",
"136 700 OFFCURVE",
"91 700 OFFCURVE",
"45 702 CURVE",
"43 692 OFFCURVE",
"43 675 OFFCURVE",
"45 665 CURVE",
"117 665 LINE",
"124 605 OFFCURVE",
"127 550 OFFCURVE",
"127 490 CURVE SMOOTH",
"127 210 LINE SMOOTH",
"127 150 OFFCURVE",
"124 95 OFFCURVE",
"117 35 CURVE",
"45 35 LINE",
"43 25 OFFCURVE",
"43 8 OFFCURVE",
"45 -2 CURVE"
);
}
);
width = 618;
},
{
anchors = (
{
name = bottom;
position = "{310, 0}";
},
{
name = top;
position = "{310, 700}";
}
);
layerId = "503E420B-61F7-4277-A1BE-A8852071B452";
paths = (
{
closed = 1;
nodes = (
"89 0 OFFCURVE",
"149 0 OFFCURVE",
"195 0 CURVE SMOOTH",
"241 0 OFFCURVE",
"301 0 OFFCURVE",
"377 -2 CURVE",
"379 8 OFFCURVE",
"379 25 OFFCURVE",
"377 35 CURVE",
"280 35 LINE",
"273 90 OFFCURVE",
"270 150 OFFCURVE",
"270 210 CURVE SMOOTH",
"270 490 LINE SMOOTH",
"270 550 OFFCURVE",
"273 600 OFFCURVE",
"280 660 CURVE",
"322 660 LINE SMOOTH",
"402 660 OFFCURVE",
"452 613 OFFCURVE",
"452 497 CURVE SMOOTH",
"452 377 OFFCURVE",
"397 330 OFFCURVE",
"332 330 CURVE SMOOTH",
"202 330 LINE",
"202 290 LINE",
"352 290 LINE SMOOTH",
"492 290 OFFCURVE",
"617 360 OFFCURVE",
"617 503 CURVE SMOOTH",
"617 643 OFFCURVE",
"497 700 OFFCURVE",
"352 700 CURVE SMOOTH",
"195 700 LINE SMOOTH",
"149 700 OFFCURVE",
"89 700 OFFCURVE",
"43 702 CURVE",
"41 692 OFFCURVE",
"41 675 OFFCURVE",
"43 665 CURVE",
"110 665 LINE",
"117 610 OFFCURVE",
"120 550 OFFCURVE",
"120 490 CURVE SMOOTH",
"120 210 LINE SMOOTH",
"120 150 OFFCURVE",
"117 90 OFFCURVE",
"110 35 CURVE",
"43 35 LINE",
"41 25 OFFCURVE",
"41 8 OFFCURVE",
"43 -2 CURVE"
);
}
);
width = 644;
}
);
leftKerningGroup = H;
unicode = 0050;
},
{
glyphname = Thorn;
lastChange = "2020-11-29 15:03:21 +0000";
layers = (
{
components = (
{
name = I;
}
);
layerId = "45069982-2EFC-4B7D-8C53-1932E6EAC4CA";
paths = (
{
closed = 1;
nodes = (
"207 560 LINE",
"207 520 LINE",
"327 520 LINE",
"432 520 OFFCURVE",
"477 463 OFFCURVE",
"477 363 CURVE SMOOTH",
"477 257 OFFCURVE",
"427 200 OFFCURVE",
"347 200 CURVE SMOOTH",
"182 200 LINE",
"182 160 LINE",
"337 160 LINE SMOOTH",
"477 160 OFFCURVE",
"592 232 OFFCURVE",
"592 370 CURVE SMOOTH",
"592 505 OFFCURVE",
"482 560 OFFCURVE",
"337 560 CURVE"
);
}
);
width = 636;
},
{
components = (
{
name = I;
}
);
layerId = "503E420B-61F7-4277-A1BE-A8852071B452";
paths = (
{
closed = 1;
nodes = (
"237 570 LINE",
"237 530 LINE",
"337 530 LINE",
"417 530 OFFCURVE",
"467 483 OFFCURVE",
"467 357 CURVE SMOOTH",
"467 227 OFFCURVE",
"412 180 OFFCURVE",
"347 180 CURVE SMOOTH",
"232 180 LINE",
"232 140 LINE",
"367 140 LINE SMOOTH",
"507 140 OFFCURVE",
"627 210 OFFCURVE",
"627 363 CURVE SMOOTH",
"627 513 OFFCURVE",
"512 570 OFFCURVE",
"367 570 CURVE"
);
}
);
width = 668;
}
);
leftKerningGroup = H;
unicode = 00DE;
},
{
glyphname = Q;
lastChange = "2020-11-29 15:03:21 +0000";
layers = (
{
anchors = (
{
name = bottom;
position = "{388, 0}";
},
{
name = top;
position = "{388, 700}";
}
);
components = (
{
name = O;
}
);
layerId = "45069982-2EFC-4B7D-8C53-1932E6EAC4CA";
paths = (
{
closed = 1;
nodes = (
"666 -115 OFFCURVE",
"648 -119 OFFCURVE",
"628 -119 CURVE SMOOTH",
"598 -119 OFFCURVE",
"578 -97 OFFCURVE",
"543 -54 CURVE SMOOTH",
"518 -23 OFFCURVE",
"493 -5 OFFCURVE",
"459 -5 CURVE",
"332 -10 LINE",
"381 -15 OFFCURVE",
"403 -25 OFFCURVE",
"449 -93 CURVE SMOOTH",
"480 -138 OFFCURVE",
"517 -169 OFFCURVE",
"588 -169 CURVE SMOOTH",
"662 -169 OFFCURVE",
"688 -151 OFFCURVE",
"712 -122 CURVE",
"703 -111 OFFCURVE",
"694 -103 OFFCURVE",
"683 -96 CURVE"
);
}
);
width = 796;
},
{
anchors = (
{
name = bottom;
position = "{393, 0}";
},
{
name = top;
position = "{393, 700}";
}
);
components = (
{
name = O;
}
);
layerId = "503E420B-61F7-4277-A1BE-A8852071B452";
paths = (
{
closed = 1;
nodes = (
"675 -123 OFFCURVE",
"662 -129 OFFCURVE",
"640 -129 CURVE",
"615 -129 OFFCURVE",
"600 -97 OFFCURVE",
"570 -54 CURVE",
"547 -22 OFFCURVE",
"512 0 OFFCURVE",
"496 0 CURVE",
"339 -10 LINE",
"380 -15 OFFCURVE",
"388 -23 OFFCURVE",
"436 -100 CURVE",
"468 -152 OFFCURVE",
"507 -179 OFFCURVE",
"595 -179 CURVE",
"658 -179 OFFCURVE",
"690 -167 OFFCURVE",
"719 -132 CURVE",
"710 -121 OFFCURVE",
"701 -113 OFFCURVE",
"690 -106 CURVE"
);
}
);
width = 816;
},
{
associatedMasterId = "503E420B-61F7-4277-A1BE-A8852071B452";
layerId = "F81ACBFB-DEDA-431D-9BCF-7F77814E8A96";
name = "Nov 4 20, 15:48";
paths = (
{
closed = 1;
nodes = (
"734 572 OFFCURVE",
"598 714 OFFCURVE",
"378 714 CURVE SMOOTH",
"158 714 OFFCURVE",
"22 572 OFFCURVE",
"22 350 CURVE SMOOTH",
"22 134 OFFCURVE",
"151 -6 OFFCURVE",
"360 -14 CURVE",
"378 -27 OFFCURVE",
"392 -48 OFFCURVE",
"404 -68 CURVE SMOOTH",
"429 -109 OFFCURVE",
"459 -152 OFFCURVE",
"506 -152 CURVE SMOOTH",
"604 -152 LINE SMOOTH",
"639 -152 OFFCURVE",
"674 -141 OFFCURVE",
"702 -120 CURVE",
"683 -94 LINE",
"670 -111 OFFCURVE",
"650 -120 OFFCURVE",
"629 -120 CURVE SMOOTH",
"583 -120 OFFCURVE",
"557 -75 OFFCURVE",
"524 -45 CURVE SMOOTH",
"505 -27 OFFCURVE",
"482 -15 OFFCURVE",
"458 -7 CURVE",
"631 24 OFFCURVE",
"734 157 OFFCURVE",
"734 350 CURVE SMOOTH"
);
},
{
closed = 1;
nodes = (
"576 187 OFFCURVE",
"520 18 OFFCURVE",
"378 18 CURVE SMOOTH",
"236 18 OFFCURVE",
"180 187 OFFCURVE",
"180 350 CURVE SMOOTH",
"180 513 OFFCURVE",
"236 682 OFFCURVE",
"378 682 CURVE SMOOTH",
"520 682 OFFCURVE",
"576 513 OFFCURVE",
"576 350 CURVE SMOOTH"
);
}
);
visible = 1;
width = 770;
},
{
associatedMasterId = "45069982-2EFC-4B7D-8C53-1932E6EAC4CA";
layerId = "25D2AB3A-8A66-40AC-A1B7-5FD9B2BFBA3D";
name = "Nov 4 20, 15:48";
paths = (
{
closed = 1;
nodes = (
"702 568 OFFCURVE",
"577 714 OFFCURVE",
"364 714 CURVE SMOOTH",
"151 714 OFFCURVE",
"26 568 OFFCURVE",
"26 350 CURVE SMOOTH",
"26 137 OFFCURVE",
"145 -6 OFFCURVE",
"348 -14 CURVE",
"365 -27 OFFCURVE",
"378 -47 OFFCURVE",
"389 -67 CURVE SMOOTH",
"412 -107 OFFCURVE",
"441 -148 OFFCURVE",
"486 -148 CURVE SMOOTH",
"580 -148 LINE SMOOTH",
"613 -148 OFFCURVE",
"646 -138 OFFCURVE",
"674 -120 CURVE",
"659 -97 LINE",
"644 -112 OFFCURVE",
"624 -120 OFFCURVE",
"603 -120 CURVE SMOOTH",
"560 -120 OFFCURVE",
"534 -78 OFFCURVE",
"502 -48 CURVE SMOOTH",
"482 -30 OFFCURVE",
"459 -16 OFFCURVE",
"434 -8 CURVE",
"604 20 OFFCURVE",
"702 157 OFFCURVE",
"702 350 CURVE SMOOTH"
);
},
{
closed = 1;
nodes = (
"584 182 OFFCURVE",
"512 14 OFFCURVE",
"364 14 CURVE SMOOTH",
"216 14 OFFCURVE",
"144 182 OFFCURVE",
"144 350 CURVE SMOOTH",
"144 518 OFFCURVE",
"216 686 OFFCURVE",
"364 686 CURVE SMOOTH",
"512 686 OFFCURVE",
"584 518 OFFCURVE",
"584 350 CURVE SMOOTH"
);
}
);
width = 790;
}
);
leftKerningGroup = O;
rightKerningGroup = O;
unicode = 0051;
},
{
glyphname = R;
lastChange = "2020-11-29 15:03:21 +0000";
layers = (
{
anchors = (
{
name = bottom;
position = "{370, 0}";
},
{
name = top;
position = "{337, 700}";
}
);
layerId = "45069982-2EFC-4B7D-8C53-1932E6EAC4CA";
paths = (
{
closed = 1;
nodes = (
"617 39 OFFCURVE",
"598 50 OFFCURVE",
"587 107 CURVE SMOOTH",
"560 243 LINE SMOOTH",
"547 308 OFFCURVE",
"504 341 OFFCURVE",
"426 346 CURVE",
"525 364 OFFCURVE",
"602 417 OFFCURVE",
"602 520 CURVE SMOOTH",
"602 647 OFFCURVE",
"486 700 OFFCURVE",
"337 700 CURVE SMOOTH",
"182 700 LINE SMOOTH",
"136 700 OFFCURVE",
"91 700 OFFCURVE",
"45 702 CURVE",
"43 692 OFFCURVE",
"43 675 OFFCURVE",
"45 665 CURVE",
"117 665 LINE",
"124 605 OFFCURVE",
"127 550 OFFCURVE",
"127 490 CURVE SMOOTH",
"127 210 LINE SMOOTH",
"127 150 OFFCURVE",
"124 95 OFFCURVE",
"117 35 CURVE",
"45 35 LINE",
"43 25 OFFCURVE",
"43 8 OFFCURVE",
"45 -2 CURVE",
"91 0 OFFCURVE",
"136 0 OFFCURVE",
"182 0 CURVE SMOOTH",
"228 0 OFFCURVE",
"273 0 OFFCURVE",
"319 -2 CURVE",
"321 8 OFFCURVE",
"321 25 OFFCURVE",
"319 35 CURVE",
"247 35 LINE",
"240 95 OFFCURVE",
"237 150 OFFCURVE",
"237 210 CURVE SMOOTH",
"237 490 LINE SMOOTH",
"237 550 OFFCURVE",
"240 600 OFFCURVE",
"247 660 CURVE",
"327 660 LINE SMOOTH",
"432 660 OFFCURVE",
"477 603 OFFCURVE",
"477 512 CURVE SMOOTH",
"477 417 OFFCURVE",
"427 360 OFFCURVE",
"347 360 CURVE SMOOTH",
"182 360 LINE",
"182 320 LINE",
"334 320 LINE SMOOTH",
"402 320 OFFCURVE",
"440 292 OFFCURVE",
"450 233 CURVE SMOOTH",
"472 107 LINE SMOOTH",
"486 28 OFFCURVE",
"509 -10 OFFCURVE",
"588 -10 CURVE SMOOTH",
"608 -10 OFFCURVE",
"645 -7 OFFCURVE",
"676 0 CURVE",
"678 12 OFFCURVE",
"678 23 OFFCURVE",
"676 35 CURVE"
);
}
);
width = 693;
},
{
anchors = (
{
name = bottom;
position = "{384, 0}";
},
{
name = top;
position = "{354, 700}";
}
);
layerId = "503E420B-61F7-4277-A1BE-A8852071B452";
paths = (
{
closed = 1;
nodes = (
"653 39 OFFCURVE",
"634 51 OFFCURVE",
"623 107 CURVE SMOOTH",
"598 238 LINE SMOOTH",
"585 307 OFFCURVE",
"539 344 OFFCURVE",
"451 349 CURVE",
"531 368 OFFCURVE",
"622 409 OFFCURVE",
"622 522 CURVE SMOOTH",
"622 652 OFFCURVE",
"502 700 OFFCURVE",
"357 700 CURVE SMOOTH",
"195 700 LINE SMOOTH",
"149 700 OFFCURVE",
"89 700 OFFCURVE",
"43 702 CURVE",
"41 692 OFFCURVE",
"41 675 OFFCURVE",
"43 665 CURVE",
"110 665 LINE",
"117 610 OFFCURVE",
"120 550 OFFCURVE",
"120 490 CURVE SMOOTH",
"120 210 LINE SMOOTH",
"120 150 OFFCURVE",
"117 90 OFFCURVE",
"110 35 CURVE",
"43 35 LINE",
"41 25 OFFCURVE",
"41 8 OFFCURVE",
"43 -2 CURVE",
"89 0 OFFCURVE",
"149 0 OFFCURVE",
"195 0 CURVE SMOOTH",
"241 0 OFFCURVE",
"301 0 OFFCURVE",
"347 -2 CURVE",
"349 8 OFFCURVE",
"349 25 OFFCURVE",
"347 35 CURVE",
"280 35 LINE",
"273 90 OFFCURVE",
"270 150 OFFCURVE",
"270 210 CURVE SMOOTH",
"270 490 LINE SMOOTH",
"270 550 OFFCURVE",
"273 600 OFFCURVE",
"280 660 CURVE",
"327 660 LINE SMOOTH",
"407 660 OFFCURVE",
"457 613 OFFCURVE",
"457 510 CURVE SMOOTH",
"457 407 OFFCURVE",
"402 360 OFFCURVE",
"337 360 CURVE SMOOTH",
"202 360 LINE",
"202 320 LINE",
"337 320 LINE SMOOTH",
"402 320 OFFCURVE",
"432 291 OFFCURVE",
"442 238 CURVE SMOOTH",
"466 107 LINE SMOOTH",
"480 29 OFFCURVE",
"504 -10 OFFCURVE",
"610 -10 CURVE SMOOTH",
"636 -10 OFFCURVE",
"661 -7 OFFCURVE",
"702 0 CURVE",
"704 12 OFFCURVE",
"704 23 OFFCURVE",
"702 35 CURVE"
);
}
);
width = 719;
}
);
leftKerningGroup = H;
rightKerningGroup = R;
unicode = 0052;
},
{
glyphname = S;
lastChange = "2020-11-29 15:03:21 +0000";
layers = (
{
anchors = (
{
name = bottom;
position = "{291, 0}";
},
{
name = top;
position = "{291, 700}";
}
);
layerId = "45069982-2EFC-4B7D-8C53-1932E6EAC4CA";
paths = (
{
closed = 1;
nodes = (
"429 -14 OFFCURVE",
"539 70 OFFCURVE",
"539 192 CURVE SMOOTH",
"539 451 OFFCURVE",
"157 377 OFFCURVE",
"157 567 CURVE SMOOTH",
"157 634 OFFCURVE",
"211 674 OFFCURVE",
"295 674 CURVE SMOOTH",
"388 674 OFFCURVE",
"446 605 OFFCURVE",
"456 510 CURVE",
"467 508 OFFCURVE",
"477 508 OFFCURVE",
"488 510 CURVE",
"488 667 LINE",
"444 695 OFFCURVE",
"388 714 OFFCURVE",
"303 714 CURVE SMOOTH",
"158 714 OFFCURVE",
"72 643 OFFCURVE",
"72 519 CURVE SMOOTH",
"72 263 OFFCURVE",
"444 335 OFFCURVE",
"444 156 CURVE SMOOTH",
"444 75 OFFCURVE",
"381 26 OFFCURVE",
"285 26 CURVE SMOOTH",
"180 26 OFFCURVE",
"101 107 OFFCURVE",
"91 215 CURVE",
"80 217 OFFCURVE",
"70 217 OFFCURVE",
"59 215 CURVE",
"59 35 LINE",
"120 4 OFFCURVE",
"194 -14 OFFCURVE",
"264 -14 CURVE SMOOTH"
);
}
);
width = 582;
},
{
anchors = (
{
name = bottom;
position = "{297, 0}";
},
{
name = top;
position = "{297, 700}";
}
);
layerId = "503E420B-61F7-4277-A1BE-A8852071B452";
paths = (
{
closed = 1;
nodes = (
"452 -14 OFFCURVE",
"560 75 OFFCURVE",
"560 207 CURVE SMOOTH",
"560 476 OFFCURVE",
"183 414 OFFCURVE",
"183 570 CURVE SMOOTH",
"183 641 OFFCURVE",
"232 674 OFFCURVE",
"312 674 CURVE SMOOTH",
"409 674 OFFCURVE",
"462 605 OFFCURVE",
"477 490 CURVE",
"488 488 OFFCURVE",
"498 488 OFFCURVE",
"509 490 CURVE",
"509 672 LINE",
"459 698 OFFCURVE",
"399 714 OFFCURVE",
"318 714 CURVE SMOOTH",
"170 714 OFFCURVE",
"68 646 OFFCURVE",
"68 520 CURVE SMOOTH",
"68 247 OFFCURVE",
"435 322 OFFCURVE",
"435 141 CURVE SMOOTH",
"435 74 OFFCURVE",
"383 26 OFFCURVE",
"287 26 CURVE SMOOTH",
"184 26 OFFCURVE",
"103 105 OFFCURVE",
"88 225 CURVE",
"77 227 OFFCURVE",
"67 227 OFFCURVE",
"56 225 CURVE",
"56 29 LINE",
"116 1 OFFCURVE",
"194 -14 OFFCURVE",
"276 -14 CURVE SMOOTH"
);
}
);
width = 606;
},
{
associatedMasterId = "45069982-2EFC-4B7D-8C53-1932E6EAC4CA";
backgroundImage = {
imagePath = "../../../Downloads/1928–1931_Półtawski_Antykwa-poster.png";
transform = "{6.8534, 0, 0, 6.8534, -6504, -14}";
};
layerId = "617EB975-BAF0-42FC-8D61-99EFBB3B238D";
name = "Nov 3 20, 23:48";
paths = (
{
closed = 1;
nodes = (
"528 462 OFFCURVE",
"160 380 OFFCURVE",
"160 567 CURVE SMOOTH",
"160 643 OFFCURVE",
"223 674 OFFCURVE",
"286 674 CURVE SMOOTH",
"375 674 OFFCURVE",
"440 612 OFFCURVE",
"440 515 CURVE",
"451 513 OFFCURVE",
"461 513 OFFCURVE",
"472 515 CURVE",
"472 672 LINE",
"418 702 OFFCURVE",
"357 714 OFFCURVE",
"301 714 CURVE SMOOTH",
"165 714 OFFCURVE",
"76 642 OFFCURVE",
"76 521 CURVE SMOOTH",
"76 274 OFFCURVE",
"431 341 OFFCURVE",
"431 149 CURVE SMOOTH",
"431 70 OFFCURVE",
"369 26 OFFCURVE",
"289 26 CURVE SMOOTH",
"182 26 OFFCURVE",
"90 109 OFFCURVE",
"90 215 CURVE",
"79 217 OFFCURVE",
"69 217 OFFCURVE",
"58 215 CURVE",
"58 35 LINE",
"120 3 OFFCURVE",
"199 -14 OFFCURVE",
"268 -14 CURVE SMOOTH",
"425 -14 OFFCURVE",
"528 72 OFFCURVE",
"528 202 CURVE SMOOTH"
);
}
);
width = 600;
}
);
leftKerningGroup = S;
rightKerningGroup = S;
unicode = 0053;
},
{
glyphname = Germandbls;
lastChange = "2020-11-29 15:03:21 +0000";
layers = (
{
layerId = "45069982-2EFC-4B7D-8C53-1932E6EAC4CA";
paths = (
{
closed = 1;
nodes = (
"91 0 OFFCURVE",
"136 0 OFFCURVE",
"182 0 CURVE",
"247 0 LINE",
"240 95 OFFCURVE",
"237 150 OFFCURVE",
"237 210 CURVE SMOOTH",
"237 490 LINE SMOOTH",
"237 550 OFFCURVE",
"240 600 OFFCURVE",
"247 660 CURVE",
"627 660 LINE",
"627 673 OFFCURVE",
"627 687 OFFCURVE",
"627 700 CURVE",
"182 700 LINE SMOOTH",
"136 700 OFFCURVE",
"91 700 OFFCURVE",
"45 702 CURVE",
"43 692 OFFCURVE",
"43 675 OFFCURVE",
"45 665 CURVE",
"117 665 LINE",
"124 605 OFFCURVE",
"127 550 OFFCURVE",
"127 490 CURVE SMOOTH",
"127 210 LINE SMOOTH",
"127 150 OFFCURVE",
"124 95 OFFCURVE",
"117 35 CURVE",
"45 35 LINE",
"43 25 OFFCURVE",
"43 8 OFFCURVE",
"45 -2 CURVE"
);
},
{
closed = 1;
nodes = (
"615 -14 OFFCURVE",
"710 60 OFFCURVE",
"710 172 CURVE SMOOTH",
"710 342 OFFCURVE",
"502 375 OFFCURVE",
"502 499 CURVE SMOOTH",
"502 586 OFFCURVE",
"569 648 OFFCURVE",
"627 660 CURVE",
"627 681 LINE",
"508 654 OFFCURVE",
"412 579 OFFCURVE",
"412 461 CURVE SMOOTH",
"412 290 OFFCURVE",
"610 291 OFFCURVE",
"610 136 CURVE SMOOTH",
"610 65 OFFCURVE",
"562 26 OFFCURVE",
"486 26 CURVE",
"401 26 OFFCURVE",
"347 101 OFFCURVE",
"342 169 CURVE",
"331 171 OFFCURVE",
"321 171 OFFCURVE",
"310 169 CURVE",
"310 29 LINE",
"371 -2 OFFCURVE",
"415 -14 OFFCURVE",
"475 -14 CURVE"
);
}
);
width = 742;
},
{
layerId = "503E420B-61F7-4277-A1BE-A8852071B452";
paths = (
{
closed = 1;
nodes = (
"89 0 OFFCURVE",
"149 0 OFFCURVE",
"195 0 CURVE SMOOTH",
"280 0 LINE",
"273 90 OFFCURVE",
"270 150 OFFCURVE",
"270 210 CURVE SMOOTH",
"270 490 LINE SMOOTH",
"270 550 OFFCURVE",
"273 600 OFFCURVE",
"280 660 CURVE",
"662 660 LINE",
"664 673 OFFCURVE",
"664 687 OFFCURVE",
"662 700 CURVE",
"195 700 LINE SMOOTH",
"149 700 OFFCURVE",
"89 700 OFFCURVE",
"43 702 CURVE",
"41 692 OFFCURVE",
"41 675 OFFCURVE",
"43 665 CURVE",
"110 665 LINE",
"117 610 OFFCURVE",
"120 550 OFFCURVE",
"120 490 CURVE SMOOTH",
"120 210 LINE SMOOTH",
"120 150 OFFCURVE",
"117 90 OFFCURVE",
"110 35 CURVE",
"43 35 LINE",
"41 25 OFFCURVE",
"41 8 OFFCURVE",
"43 -2 CURVE"
);
},
{
closed = 1;
nodes = (
"651 -14 OFFCURVE",
"750 57 OFFCURVE",
"750 168 CURVE SMOOTH",
"750 338 OFFCURVE",
"538 386 OFFCURVE",
"538 517 CURVE SMOOTH",
"538 587 OFFCURVE",
"568 623 OFFCURVE",
"662 660 CURVE",
"662 683 LINE",
"518 654 OFFCURVE",
"403 578 OFFCURVE",
"403 459 CURVE SMOOTH",
"403 292 OFFCURVE",
"605 267 OFFCURVE",
"605 131 CURVE SMOOTH",
"605 63 OFFCURVE",
"570 26 OFFCURVE",
"506 26 CURVE",
"436 26 OFFCURVE",
"383 85 OFFCURVE",
"372 175 CURVE",
"361 177 OFFCURVE",
"351 177 OFFCURVE",
"340 175 CURVE",
"340 19 LINE",
"399 -4 OFFCURVE",
"447 -14 OFFCURVE",
"495 -14 CURVE"
);
}
);
width = 776;
}
);
leftKerningGroup = H;
unicode = 1E9E;
},
{
glyphname = T;
lastChange = "2020-11-29 15:03:21 +0000";
layers = (
{
anchors = (
{
name = bottom;
position = "{326, 0}";
},
{
name = center;
position = "{326, 350}";
},
{
name = top;
position = "{326, 700}";
}
);
layerId = "45069982-2EFC-4B7D-8C53-1932E6EAC4CA";
paths = (
{
closed = 1;
nodes = (
"235 0 OFFCURVE",
"280 0 OFFCURVE",
"326 0 CURVE SMOOTH",
"372 0 OFFCURVE",
"417 0 OFFCURVE",
"463 -2 CURVE",
"465 8 OFFCURVE",
"465 25 OFFCURVE",
"463 35 CURVE",
"391 35 LINE",
"384 95 OFFCURVE",
"381 150 OFFCURVE",
"381 210 CURVE SMOOTH",
"381 490 LINE SMOOTH",
"381 550 OFFCURVE",
"384 600 OFFCURVE",
"391 660 CURVE",
"449 660 LINE SMOOTH",
"543 660 OFFCURVE",
"579 618 OFFCURVE",
"589 498 CURVE",
"600 496 OFFCURVE",
"610 496 OFFCURVE",
"621 498 CURVE",
"621 700 LINE",
"31 700 LINE",
"31 498 LINE",
"42 496 OFFCURVE",
"52 496 OFFCURVE",
"63 498 CURVE",
"73 618 OFFCURVE",
"109 660 OFFCURVE",
"203 660 CURVE SMOOTH",
"261 660 LINE",
"268 600 OFFCURVE",
"271 550 OFFCURVE",
"271 490 CURVE SMOOTH",
"271 210 LINE SMOOTH",
"271 150 OFFCURVE",
"268 95 OFFCURVE",
"261 35 CURVE",
"189 35 LINE",
"187 25 OFFCURVE",
"187 8 OFFCURVE",
"189 -2 CURVE"
);
}
);
width = 652;
},
{
anchors = (
{
name = bottom;
position = "{330, 0}";
},
{
name = center;
position = "{330, 350}";
},
{
name = top;
position = "{330, 700}";
}
);
layerId = "503E420B-61F7-4277-A1BE-A8852071B452";
paths = (
{
closed = 1;
nodes = (
"224 0 OFFCURVE",
"284 0 OFFCURVE",
"330 0 CURVE SMOOTH",
"376 0 OFFCURVE",
"436 0 OFFCURVE",
"482 -2 CURVE",
"484 8 OFFCURVE",
"484 25 OFFCURVE",
"482 35 CURVE",
"415 35 LINE",
"408 90 OFFCURVE",
"405 150 OFFCURVE",
"405 210 CURVE SMOOTH",
"405 490 LINE SMOOTH",
"405 550 OFFCURVE",
"408 600 OFFCURVE",
"415 660 CURVE",
"448 660 LINE SMOOTH",
"542 660 OFFCURVE",
"593 600 OFFCURVE",
"598 480 CURVE",
"609 478 OFFCURVE",
"619 478 OFFCURVE",
"630 480 CURVE",
"630 700 LINE",
"30 700 LINE",
"30 480 LINE",
"41 478 OFFCURVE",
"51 478 OFFCURVE",
"62 480 CURVE",
"67 600 OFFCURVE",
"118 660 OFFCURVE",
"212 660 CURVE SMOOTH",
"245 660 LINE",
"252 600 OFFCURVE",
"255 550 OFFCURVE",
"255 490 CURVE SMOOTH",
"255 210 LINE SMOOTH",
"255 150 OFFCURVE",
"252 90 OFFCURVE",
"245 35 CURVE",
"178 35 LINE",
"176 25 OFFCURVE",
"176 8 OFFCURVE",
"178 -2 CURVE"
);
}
);
width = 660;
}
);
leftKerningGroup = T;
rightKerningGroup = T;
unicode = 0054;
},
{
glyphname = Tbar;
lastChange = "2020-11-29 15:03:21 +0000";
layers = (
{
components = (
{
name = T;
transform = "{1, 0, 0, 1, 2, 0}";
}
);
layerId = "45069982-2EFC-4B7D-8C53-1932E6EAC4CA";
paths = (
{
closed = 1;
nodes = (
"521 367 OFFCURVE",
"521 383 OFFCURVE",
"518 400 CURVE",
"138 400 LINE",
"135 383 OFFCURVE",
"135 367 OFFCURVE",
"138 350 CURVE",
"518 350 LINE"
);
}
);
width = 654;
},
{
components = (
{
name = T;
transform = "{1, 0, 0, 1, 1, 0}";
}
);
layerId = "503E420B-61F7-4277-A1BE-A8852071B452";
paths = (
{
closed = 1;
nodes = (
"544 367 OFFCURVE",
"544 383 OFFCURVE",
"541 400 CURVE",
"121 400 LINE",
"118 383 OFFCURVE",
"118 367 OFFCURVE",
"121 350 CURVE",
"541 350 LINE"
);
}
);
width = 661;
}
);
leftKerningGroup = T;
rightKerningGroup = T;
unicode = 0166;
},
{
glyphname = U;
lastChange = "2022-06-19 18:01:13 +0000";
layers = (
{
anchors = (
{
name = bottom;
position = "{393, 0}";
},
{
name = ogonek;
position = "{489, 0}";
},
{
name = top;
position = "{394, 700}";
},
{
name = topright;
position = "{645, 700}";
}
);
guideLines = (
{
angle = 79.1597;
position = "{395, 9}";
},
{
angle = 90;
position = "{393, 118}";
}
);
layerId = "45069982-2EFC-4B7D-8C53-1932E6EAC4CA";
paths = (
{
closed = 1;
nodes = (
"539 -15 OFFCURVE",
"624 68 OFFCURVE",
"624 205 CURVE SMOOTH",
"624 490 LINE SMOOTH",
"624 550 OFFCURVE",
"628 595 OFFCURVE",
"639 665 CURVE",
"706 665 LINE",
"708 675 OFFCURVE",
"708 692 OFFCURVE",
"706 702 CURVE",
"660 700 OFFCURVE",
"625 700 OFFCURVE",
"602 700 CURVE SMOOTH",
"576 700 OFFCURVE",
"531 700 OFFCURVE",
"485 702 CURVE",
"483 692 OFFCURVE",
"483 675 OFFCURVE",
"485 665 CURVE",
"562 665 LINE",
"573 595 OFFCURVE",
"577 550 OFFCURVE",
"577 490 CURVE SMOOTH",
"577 219 LINE SMOOTH",
"577 104 OFFCURVE",
"517 32 OFFCURVE",
"399 32 CURVE SMOOTH",
"288 32 OFFCURVE",
"224 84 OFFCURVE",
"224 210 CURVE SMOOTH",
"224 490 LINE SMOOTH",
"224 550 OFFCURVE",
"227 605 OFFCURVE",
"234 665 CURVE",
"306 665 LINE",
"308 675 OFFCURVE",
"308 692 OFFCURVE",
"306 702 CURVE",
"260 700 OFFCURVE",
"215 700 OFFCURVE",
"169 700 CURVE SMOOTH",
"123 700 OFFCURVE",
"78 700 OFFCURVE",
"32 702 CURVE",
"30 692 OFFCURVE",
"30 675 OFFCURVE",
"32 665 CURVE",
"104 665 LINE",
"111 605 OFFCURVE",
"114 550 OFFCURVE",
"114 490 CURVE SMOOTH",
"114 205 LINE SMOOTH",
"114 55 OFFCURVE",
"199 -15 OFFCURVE",
"390 -15 CURVE SMOOTH"
);
}
);
width = 739;
},
{
anchors = (
{
name = bottom;
position = "{406, 0}";
},
{
name = ogonek;
position = "{500, 0}";
},
{
name = top;
position = "{408, 700}";
},
{
name = topright;
position = "{656, 700}";
}
);
guideLines = (
{
angle = 252.2996;
position = "{409, 9}";
}
);
layerId = "503E420B-61F7-4277-A1BE-A8852071B452";
paths = (
{
closed = 1;
nodes = (
"550 -15 OFFCURVE",
"635 68 OFFCURVE",
"635 205 CURVE SMOOTH",
"635 490 LINE SMOOTH",
"635 550 OFFCURVE",
"639 595 OFFCURVE",
"650 665 CURVE",
"717 665 LINE",
"719 675 OFFCURVE",
"719 692 OFFCURVE",
"717 702 CURVE",
"671 700 OFFCURVE",
"636 700 OFFCURVE",
"613 700 CURVE SMOOTH",
"587 700 OFFCURVE",
"542 700 OFFCURVE",
"486 702 CURVE",
"484 692 OFFCURVE",
"484 675 OFFCURVE",
"486 665 CURVE",
"573 665 LINE",
"584 595 OFFCURVE",
"588 550 OFFCURVE",
"588 490 CURVE SMOOTH",
"588 221 LINE SMOOTH",
"588 101 OFFCURVE",
"523 32 OFFCURVE",
"416 32 CURVE SMOOTH",
"299 32 OFFCURVE",
"255 95 OFFCURVE",
"255 211 CURVE SMOOTH",
"255 490 LINE SMOOTH",
"255 550 OFFCURVE",
"258 610 OFFCURVE",
"265 665 CURVE",
"332 665 LINE",
"334 675 OFFCURVE",
"334 692 OFFCURVE",
"332 702 CURVE",
"286 700 OFFCURVE",
"226 700 OFFCURVE",
"180 700 CURVE SMOOTH",
"134 700 OFFCURVE",
"74 700 OFFCURVE",
"28 702 CURVE",
"26 692 OFFCURVE",
"26 675 OFFCURVE",
"28 665 CURVE",
"95 665 LINE",
"102 610 OFFCURVE",
"105 550 OFFCURVE",
"105 490 CURVE SMOOTH",
"105 195 LINE SMOOTH",
"105 55 OFFCURVE",
"210 -15 OFFCURVE",
"401 -15 CURVE SMOOTH"
);
}
);
width = 742;
},
{
associatedMasterId = "45069982-2EFC-4B7D-8C53-1932E6EAC4CA";
layerId = "CE54C865-E245-4CEE-945E-12AEB145065C";
name = "Nov 3 20, 00:22";
paths = (
{
closed = 1;
nodes = (
"647 672 LINE",
"647 700 LINE",
"463 700 LINE",
"463 672 LINE",
"529 672 LINE",
"537 626 OFFCURVE",
"541 579 OFFCURVE",
"541 532 CURVE SMOOTH",
"541 168 LINE SMOOTH",
"541 55 OFFCURVE",
"478 16 OFFCURVE",
"358 16 CURVE SMOOTH",
"272 16 OFFCURVE",
"201 83 OFFCURVE",
"201 168 CURVE SMOOTH",
"201 532 LINE SMOOTH",
"201 579 OFFCURVE",
"205 626 OFFCURVE",
"213 672 CURVE",
"279 672 LINE",
"279 700 LINE",
"13 700 LINE",
"13 672 LINE",
"79 672 LINE",
"87 626 OFFCURVE",
"91 579 OFFCURVE",
"91 532 CURVE SMOOTH",
"91 168 LINE SMOOTH",
"91 44 OFFCURVE",
"194 -12 OFFCURVE",
"330 -12 CURVE SMOOTH",
"483 -12 OFFCURVE",
"569 28 OFFCURVE",
"569 168 CURVE SMOOTH",
"569 532 LINE SMOOTH",
"569 579 OFFCURVE",
"573 626 OFFCURVE",
"581 672 CURVE"
);
}
);
visible = 1;
width = 720;
},
{
associatedMasterId = "503E420B-61F7-4277-A1BE-A8852071B452";
layerId = "5BBE3528-29B5-417F-AFB0-AB69CC0B49AB";
name = "Nov 3 20, 00:22";
paths = (
{
closed = 1;
nodes = (
"655 668 LINE",
"655 700 LINE",
"467 700 LINE",
"467 668 LINE",
"533 668 LINE",
"541 622 OFFCURVE",
"545 575 OFFCURVE",
"545 528 CURVE SMOOTH",
"545 172 LINE SMOOTH",
"545 62 OFFCURVE",
"486 20 OFFCURVE",
"371 20 CURVE SMOOTH",
"294 20 OFFCURVE",
"239 92 OFFCURVE",
"239 172 CURVE SMOOTH",
"239 528 LINE SMOOTH",
"239 575 OFFCURVE",
"243 622 OFFCURVE",
"251 668 CURVE",
"317 668 LINE",
"317 700 LINE",
"11 700 LINE",
"11 668 LINE",
"77 668 LINE",
"85 622 OFFCURVE",
"89 575 OFFCURVE",
"89 528 CURVE SMOOTH",
"89 172 LINE SMOOTH",
"89 45 OFFCURVE",
"194 -12 OFFCURVE",
"333 -12 CURVE SMOOTH",
"489 -12 OFFCURVE",
"577 29 OFFCURVE",
"577 172 CURVE SMOOTH",
"577 528 LINE SMOOTH",
"577 575 OFFCURVE",
"581 622 OFFCURVE",
"589 668 CURVE"
);
}
);
width = 600;
}
);
leftKerningGroup = U;
rightKerningGroup = U;
unicode = 0055;
},
{
color = 5;
glyphname = Uhorn;
lastChange = "2022-07-19 14:55:14 +0000";
layers = (
{
anchors = (
{
name = bottom;
position = "{393, 0}";
},
{
name = ogonek;
position = "{482, 0}";
},
{
name = top;
position = "{394, 700}";
},
{
name = topright;
position = "{645, 700}";
}
);
components = (
{
name = horncomb.case;
transform = "{1, 0, 0, 1, 678, 0}";
}
);
guideLines = (
{
angle = 79.1597;
position = "{395, 9}";
}
);
layerId = "45069982-2EFC-4B7D-8C53-1932E6EAC4CA";
paths = (
{
closed = 1;
nodes = (
"539 -15 OFFCURVE",
"624 68 OFFCURVE",
"624 205 CURVE SMOOTH",
"624 490 LINE SMOOTH",
"624 550 OFFCURVE",
"628 587 OFFCURVE",
"639 657 CURVE",
"684 657 LINE",
"678 700 LINE",
"666 700 OFFCURVE",
"620 700 OFFCURVE",
"602 700 CURVE SMOOTH",
"576 700 OFFCURVE",
"531 700 OFFCURVE",
"485 702 CURVE",
"483 692 OFFCURVE",
"483 675 OFFCURVE",
"485 665 CURVE",
"562 665 LINE",
"573 595 OFFCURVE",
"577 550 OFFCURVE",
"577 490 CURVE SMOOTH",
"577 219 LINE SMOOTH",
"577 104 OFFCURVE",
"517 32 OFFCURVE",
"399 32 CURVE SMOOTH",
"288 32 OFFCURVE",
"224 84 OFFCURVE",
"224 210 CURVE SMOOTH",
"224 490 LINE SMOOTH",
"224 550 OFFCURVE",
"227 605 OFFCURVE",
"234 665 CURVE",
"306 665 LINE",
"308 675 OFFCURVE",
"308 692 OFFCURVE",
"306 702 CURVE",
"260 700 OFFCURVE",
"215 700 OFFCURVE",
"169 700 CURVE SMOOTH",
"123 700 OFFCURVE",
"78 700 OFFCURVE",
"32 702 CURVE",
"30 692 OFFCURVE",
"30 675 OFFCURVE",
"32 665 CURVE",
"104 665 LINE",
"111 605 OFFCURVE",
"114 550 OFFCURVE",
"114 490 CURVE SMOOTH",
"114 205 LINE SMOOTH",
"114 55 OFFCURVE",
"199 -15 OFFCURVE",
"390 -15 CURVE SMOOTH"
);
}
);
width = 739;
},
{
anchors = (
{
name = bottom;
position = "{406, 0}";
},
{
name = ogonek;
position = "{500, 0}";
},
{
name = top;
position = "{408, 700}";
},
{
name = topright;
position = "{656, 700}";
}
);
components = (
{
name = horncomb.case;
transform = "{1, 0, 0, 1, 656, 0}";
}
);
guideLines = (
{
angle = 72.2996;
position = "{409, 9}";
}
);
layerId = "503E420B-61F7-4277-A1BE-A8852071B452";
paths = (
{
closed = 1;
nodes = (
"550 -15 OFFCURVE",
"635 68 OFFCURVE",
"635 205 CURVE SMOOTH",
"635 490 LINE SMOOTH",
"635 550 OFFCURVE",
"639 587 OFFCURVE",
"650 657 CURVE",
"662 657 LINE",
"656 700 LINE",
"646 700 OFFCURVE",
"630 700 OFFCURVE",
"613 700 CURVE SMOOTH",
"587 700 OFFCURVE",
"542 700 OFFCURVE",
"486 702 CURVE",
"484 692 OFFCURVE",
"484 675 OFFCURVE",
"486 665 CURVE",
"573 665 LINE",
"584 595 OFFCURVE",
"588 550 OFFCURVE",
"588 490 CURVE SMOOTH",
"588 221 LINE SMOOTH",
"588 101 OFFCURVE",
"523 32 OFFCURVE",
"416 32 CURVE SMOOTH",
"299 32 OFFCURVE",
"255 95 OFFCURVE",
"255 211 CURVE SMOOTH",
"255 490 LINE SMOOTH",
"255 550 OFFCURVE",
"258 610 OFFCURVE",
"265 665 CURVE",
"332 665 LINE",
"334 675 OFFCURVE",
"334 692 OFFCURVE",
"332 702 CURVE",
"286 700 OFFCURVE",
"226 700 OFFCURVE",
"180 700 CURVE SMOOTH",
"134 700 OFFCURVE",
"74 700 OFFCURVE",
"28 702 CURVE",
"26 692 OFFCURVE",
"26 675 OFFCURVE",
"28 665 CURVE",
"95 665 LINE",
"102 610 OFFCURVE",
"105 550 OFFCURVE",
"105 490 CURVE SMOOTH",
"105 195 LINE SMOOTH",
"105 55 OFFCURVE",
"210 -15 OFFCURVE",
"401 -15 CURVE SMOOTH"
);
}
);
width = 742;
}
);
leftKerningGroup = U;
rightKerningGroup = U;
unicode = 01AF;
},
{
glyphname = V;
lastChange = "2020-11-29 15:03:00 +0000";
layers = (
{
anchors = (
{
name = bottom;
position = "{336, 0}";
},
{
name = top;
position = "{342, 700}";
}
);
guideLines = (
{
angle = 110.9448;
position = "{242, 490}";
},
{
angle = 110.9448;
position = "{179, 345}";
}
);
layerId = "45069982-2EFC-4B7D-8C53-1932E6EAC4CA";
paths = (
{
closed = 1;
nodes = (
"605 700 OFFCURVE",
"580 700 OFFCURVE",
"556 700 CURVE SMOOTH",
"533 700 OFFCURVE",
"488 700 OFFCURVE",
"433 702 CURVE",
"431 692 OFFCURVE",
"431 675 OFFCURVE",
"433 665 CURVE",
"514 665 LINE",
"510 605 OFFCURVE",
"495 550 OFFCURVE",
"476 490 CURVE SMOOTH",
"368 155 LINE",
"307 -20 LINE",
"327 -23 OFFCURVE",
"347 -23 OFFCURVE",
"367 -20 CURVE",
"377 48 OFFCURVE",
"404 129 OFFCURVE",
"421 181 CURVE SMOOTH",
"523 490 LINE SMOOTH",
"543 551 OFFCURVE",
"565 605 OFFCURVE",
"595 665 CURVE",
"652 665 LINE",
"654 675 OFFCURVE",
"654 692 OFFCURVE",
"652 702 CURVE"
);
},
{
closed = 1;
nodes = (
"77 605 OFFCURVE",
"100 551 OFFCURVE",
"123 490 CURVE SMOOTH",
"234 200 LINE SMOOTH",
"257 139 OFFCURVE",
"297 48 OFFCURVE",
"307 -20 CURVE",
"368 155 LINE",
"242 490 LINE SMOOTH",
"219 551 OFFCURVE",
"201 605 OFFCURVE",
"188 665 CURVE",
"257 665 LINE",
"259 675 OFFCURVE",
"259 692 OFFCURVE",
"257 702 CURVE",
"212 700 OFFCURVE",
"162 700 OFFCURVE",
"116 700 CURVE SMOOTH",
"70 700 OFFCURVE",
"40 700 OFFCURVE",
"-7 702 CURVE",
"-9 692 OFFCURVE",
"-9 675 OFFCURVE",
"-7 665 CURVE",
"47 665 LINE"
);
}
);
width = 656;
},
{
anchors = (
{
name = bottom;
position = "{341, 0}";
},
{
name = top;
position = "{361, 700}";
}
);
layerId = "503E420B-61F7-4277-A1BE-A8852071B452";
paths = (
{
closed = 1;
nodes = (
"620 700 OFFCURVE",
"595 700 OFFCURVE",
"571 700 CURVE SMOOTH",
"548 700 OFFCURVE",
"493 700 OFFCURVE",
"438 702 CURVE",
"436 694 OFFCURVE",
"436 673 OFFCURVE",
"438 665 CURVE",
"529 665 LINE",
"526 605 OFFCURVE",
"515 552 OFFCURVE",
"494 490 CURVE SMOOTH",
"391 181 LINE",
"295 -20 LINE",
"315 -23 OFFCURVE",
"365 -23 OFFCURVE",
"385 -20 CURVE",
"394 48 OFFCURVE",
"421 129 OFFCURVE",
"438 181 CURVE SMOOTH",
"541 490 LINE SMOOTH",
"561 551 OFFCURVE",
"581 605 OFFCURVE",
"610 665 CURVE",
"667 665 LINE",
"669 675 OFFCURVE",
"669 692 OFFCURVE",
"667 702 CURVE"
);
},
{
closed = 1;
nodes = (
"69 609 OFFCURVE",
"87 560 OFFCURVE",
"113 490 CURVE SMOOTH",
"223 200 LINE SMOOTH",
"253 121 OFFCURVE",
"282 48 OFFCURVE",
"295 -20 CURVE",
"391 181 LINE",
"276 490 LINE SMOOTH",
"253 552 OFFCURVE",
"234 605 OFFCURVE",
"223 665 CURVE",
"289 665 LINE",
"291 675 OFFCURVE",
"291 692 OFFCURVE",
"289 702 CURVE",
"244 700 OFFCURVE",
"198 700 OFFCURVE",
"132 700 CURVE SMOOTH",
"61 700 OFFCURVE",
"41 700 OFFCURVE",
"-6 702 CURVE",
"-8 692 OFFCURVE",
"-8 675 OFFCURVE",
"-6 665 CURVE",
"36 665 LINE"
);
}
);
width = 662;
}
);
unicode = 0056;
},
{
glyphname = W;
lastChange = "2020-11-29 15:03:21 +0000";
layers = (
{
anchors = (
{
name = bottom;
position = "{509, 0}";
},
{
name = top;
position = "{521, 700}";
}
);
layerId = "45069982-2EFC-4B7D-8C53-1932E6EAC4CA";
paths = (
{
closed = 1;
nodes = (
"86 595 OFFCURVE",
"105 544 OFFCURVE",
"124 490 CURVE SMOOTH",
"228 200 LINE SMOOTH",
"251 136 OFFCURVE",
"282 40 OFFCURVE",
"294 -20 CURVE",
"357 169 LINE",
"244 490 LINE SMOOTH",
"223 550 OFFCURVE",
"207 600 OFFCURVE",
"196 665 CURVE",
"266 665 LINE",
"268 675 OFFCURVE",
"268 692 OFFCURVE",
"266 702 CURVE",
"219 700 OFFCURVE",
"166 700 OFFCURVE",
"120 700 CURVE SMOOTH",
"75 700 OFFCURVE",
"48 700 OFFCURVE",
"-1 702 CURVE",
"-3 692 OFFCURVE",
"-3 675 OFFCURVE",
"-1 665 CURVE",
"52 665 LINE"
);
},
{
closed = 1;
nodes = (
"981 700 OFFCURVE",
"955 700 OFFCURVE",
"930 700 CURVE SMOOTH",
"905 700 OFFCURVE",
"860 700 OFFCURVE",
"802 702 CURVE",
"800 692 OFFCURVE",
"800 676 OFFCURVE",
"802 665 CURVE",
"886 665 LINE",
"881 600 OFFCURVE",
"870 551 OFFCURVE",
"850 490 CURVE SMOOTH",
"746 169 LINE",
"683 -20 LINE",
"704 -23 OFFCURVE",
"720 -23 OFFCURVE",
"741 -20 CURVE",
"752 48 OFFCURVE",
"779 131 OFFCURVE",
"796 181 CURVE SMOOTH",
"899 490 LINE SMOOTH",
"920 553 OFFCURVE",
"939 605 OFFCURVE",
"971 665 CURVE",
"1030 665 LINE",
"1033 677 OFFCURVE",
"1032 693 OFFCURVE",
"1030 702 CURVE"
);
},
{
closed = 1;
nodes = (
"476 605 OFFCURVE",
"494 545 OFFCURVE",
"513 490 CURVE SMOOTH",
"616 200 LINE SMOOTH",
"649 107 OFFCURVE",
"668 46 OFFCURVE",
"683 -20 CURVE",
"746 169 LINE",
"634 490 LINE SMOOTH",
"612 552 OFFCURVE",
"595 609 OFFCURVE",
"584 665 CURVE",
"656 665 LINE",
"658 679 OFFCURVE",
"657 693 OFFCURVE",
"656 702 CURVE",
"608 700 OFFCURVE",
"555 700 OFFCURVE",
"510 700 CURVE SMOOTH",
"471 700 OFFCURVE",
"438 700 OFFCURVE",
"389 702 CURVE",
"386 690 OFFCURVE",
"387 674 OFFCURVE",
"389 665 CURVE",
"447 665 LINE"
);
},
{
closed = 1;
nodes = (
"493 563 LINE",
"357 169 LINE",
"294 -20 LINE",
"314 -23 OFFCURVE",
"331 -23 OFFCURVE",
"352 -20 CURVE",
"363 48 OFFCURVE",
"390 130 OFFCURVE",
"408 181 CURVE SMOOTH",
"542 563 LINE"
);
}
);
width = 1029;
},
{
anchors = (
{
name = bottom;
position = "{533, 0}";
},
{
name = top;
position = "{533, 700}";
}
);
layerId = "503E420B-61F7-4277-A1BE-A8852071B452";
paths = (
{
closed = 1;
nodes = (
"61 619 OFFCURVE",
"87 560 OFFCURVE",
"113 490 CURVE SMOOTH",
"222 200 LINE SMOOTH",
"252 121 OFFCURVE",
"275 50 OFFCURVE",
"287 -20 CURVE",
"388 200 LINE",
"276 490 LINE SMOOTH",
"254 548 OFFCURVE",
"235 604 OFFCURVE",
"224 665 CURVE",
"291 665 LINE",
"293 675 OFFCURVE",
"293 692 OFFCURVE",
"291 702 CURVE",
"246 700 OFFCURVE",
"200 700 OFFCURVE",
"134 700 CURVE SMOOTH",
"63 700 OFFCURVE",
"43 700 OFFCURVE",
"-4 702 CURVE",
"-6 692 OFFCURVE",
"-6 675 OFFCURVE",
"-4 665 CURVE",
"33 665 LINE"
);
},
{
closed = 1;
nodes = (
"1007 700 OFFCURVE",
"982 700 OFFCURVE",
"958 700 CURVE SMOOTH",
"935 700 OFFCURVE",
"880 700 OFFCURVE",
"825 702 CURVE",
"823 694 OFFCURVE",
"823 673 OFFCURVE",
"825 665 CURVE",
"916 665 LINE",
"914 593 OFFCURVE",
"896 540 OFFCURVE",
"879 490 CURVE SMOOTH",
"783 200 LINE",
"683 -20 LINE",
"703 -23 OFFCURVE",
"753 -23 OFFCURVE",
"773 -20 CURVE",
"782 48 OFFCURVE",
"809 130 OFFCURVE",
"826 181 CURVE SMOOTH",
"926 490 LINE SMOOTH",
"945 550 OFFCURVE",
"966 600 OFFCURVE",
"997 665 CURVE",
"1054 665 LINE",
"1056 675 OFFCURVE",
"1056 692 OFFCURVE",
"1054 702 CURVE"
);
},
{
closed = 1;
nodes = (
"464 613 OFFCURVE",
"480 575 OFFCURVE",
"511 490 CURVE SMOOTH",
"618 200 LINE SMOOTH",
"647 121 OFFCURVE",
"672 51 OFFCURVE",
"683 -20 CURVE",
"783 200 LINE",
"674 490 LINE SMOOTH",
"647 562 OFFCURVE",
"632 609 OFFCURVE",
"621 665 CURVE",
"687 665 LINE",
"689 675 OFFCURVE",
"689 692 OFFCURVE",
"687 702 CURVE",
"642 700 OFFCURVE",
"596 700 OFFCURVE",
"530 700 CURVE SMOOTH",
"459 700 OFFCURVE",
"439 700 OFFCURVE",
"392 702 CURVE",
"390 692 OFFCURVE",
"390 675 OFFCURVE",
"392 665 CURVE",
"434 665 LINE"
);
},
{
closed = 1;
nodes = (
"514 559 LINE",
"388 200 LINE",
"287 -20 LINE",
"307 -23 OFFCURVE",
"357 -23 OFFCURVE",
"377 -20 CURVE",
"387 55 OFFCURVE",
"416 141 OFFCURVE",
"430 181 CURVE SMOOTH",
"561 559 LINE"
);
}
);
width = 1047;
},
{
associatedMasterId = "503E420B-61F7-4277-A1BE-A8852071B452";
layerId = "D6BE94A4-0B32-4F72-BCB0-D63B2DF79324";
name = "Nov 3 20, 18:13";
paths = (
{
closed = 1;
nodes = (
"64 619 OFFCURVE",
"90 560 OFFCURVE",
"116 490 CURVE SMOOTH",
"225 200 LINE SMOOTH",
"255 121 OFFCURVE",
"271 50 OFFCURVE",
"283 -20 CURVE",
"384 200 LINE",
"272 490 LINE SMOOTH",
"250 548 OFFCURVE",
"231 604 OFFCURVE",
"220 665 CURVE",
"287 665 LINE",
"289 675 OFFCURVE",
"289 692 OFFCURVE",
"287 702 CURVE",
"242 700 OFFCURVE",
"203 700 OFFCURVE",
"137 700 CURVE SMOOTH",
"66 700 OFFCURVE",
"46 700 OFFCURVE",
"-1 702 CURVE",
"-3 692 OFFCURVE",
"-3 675 OFFCURVE",
"-1 665 CURVE",
"36 665 LINE"
);
},
{
closed = 1;
nodes = (
"1003 700 OFFCURVE",
"978 700 OFFCURVE",
"954 700 CURVE SMOOTH",
"931 700 OFFCURVE",
"876 700 OFFCURVE",
"821 702 CURVE",
"819 694 OFFCURVE",
"819 673 OFFCURVE",
"821 665 CURVE",
"912 665 LINE",
"910 593 OFFCURVE",
"892 540 OFFCURVE",
"875 490 CURVE SMOOTH",
"779 200 LINE",
"679 -20 LINE",
"699 -23 OFFCURVE",
"749 -23 OFFCURVE",
"769 -20 CURVE",
"778 48 OFFCURVE",
"805 130 OFFCURVE",
"822 181 CURVE SMOOTH",
"922 490 LINE SMOOTH",
"941 550 OFFCURVE",
"962 600 OFFCURVE",
"993 665 CURVE",
"1050 665 LINE",
"1052 675 OFFCURVE",
"1052 692 OFFCURVE",
"1050 702 CURVE"
);
},
{
closed = 1;
nodes = (
"467 613 OFFCURVE",
"483 575 OFFCURVE",
"514 490 CURVE SMOOTH",
"621 200 LINE SMOOTH",
"650 121 OFFCURVE",
"668 51 OFFCURVE",
"679 -20 CURVE",
"779 200 LINE",
"670 490 LINE SMOOTH",
"643 562 OFFCURVE",
"628 609 OFFCURVE",
"617 665 CURVE",
"683 665 LINE",
"685 675 OFFCURVE",
"685 692 OFFCURVE",
"683 702 CURVE",
"638 700 OFFCURVE",
"592 700 OFFCURVE",
"526 700 CURVE SMOOTH",
"462 700 OFFCURVE",
"442 700 OFFCURVE",
"395 702 CURVE",
"393 692 OFFCURVE",
"393 675 OFFCURVE",
"395 665 CURVE",
"437 665 LINE"
);
},
{
closed = 1;
nodes = (
"510 559 LINE",
"384 200 LINE",
"283 -20 LINE",
"303 -23 OFFCURVE",
"353 -23 OFFCURVE",
"373 -20 CURVE",
"383 55 OFFCURVE",
"412 141 OFFCURVE",
"426 181 CURVE SMOOTH",
"557 559 LINE"
);
}
);
width = 1034;
},
{
associatedMasterId = "45069982-2EFC-4B7D-8C53-1932E6EAC4CA";
layerId = "D29F2EC6-169B-4A0E-B7D7-EAB4EC064959";
name = "Nov 3 20, 18:13";
paths = (
{
closed = 1;
nodes = (
"1001 672 LINE",
"1001 700 LINE",
"871 700 LINE",
"871 672 LINE",
"909 672 LINE",
"901 624 OFFCURVE",
"889 578 OFFCURVE",
"874 532 CURVE SMOOTH",
"744 147 LINE",
"614 532 LINE SMOOTH",
"598 578 OFFCURVE",
"587 624 OFFCURVE",
"579 672 CURVE",
"617 672 LINE",
"617 700 LINE",
"400 700 LINE",
"400 672 LINE",
"438 672 LINE",
"458 634 OFFCURVE",
"475 594 OFFCURVE",
"490 554 CURVE",
"483 532 LINE",
"353 147 LINE",
"223 532 LINE SMOOTH",
"207 578 OFFCURVE",
"196 624 OFFCURVE",
"188 672 CURVE",
"226 672 LINE",
"226 700 LINE",
"9 700 LINE",
"9 672 LINE",
"47 672 LINE",
"71 627 OFFCURVE",
"90 580 OFFCURVE",
"107 532 CURVE SMOOTH",
"230 168 LINE SMOOTH",
"250 108 OFFCURVE",
"266 48 OFFCURVE",
"279 -14 CURVE",
"340 -14 LINE",
"353 48 OFFCURVE",
"369 108 OFFCURVE",
"389 168 CURVE SMOOTH",
"505 510 LINE",
"621 168 LINE SMOOTH",
"641 108 OFFCURVE",
"657 48 OFFCURVE",
"670 -14 CURVE",
"731 -14 LINE",
"744 48 OFFCURVE",
"760 108 OFFCURVE",
"780 168 CURVE SMOOTH",
"903 532 LINE SMOOTH",
"920 580 OFFCURVE",
"940 627 OFFCURVE",
"963 672 CURVE"
);
}
);
visible = 1;
width = 1030;
}
);
leftKerningGroup = W;
rightKerningGroup = W;
unicode = 0057;
},
{
glyphname = X;
lastChange = "2020-11-29 15:03:00 +0000";
layers = (
{
anchors = (
{
name = bottom;
position = "{357, 0}";
},
{
name = top;
position = "{357, 700}";
}
);
layerId = "45069982-2EFC-4B7D-8C53-1932E6EAC4CA";
paths = (
{
closed = 1;
nodes = (
"641 35 LINE",
"596 95 OFFCURVE",
"556 153 OFFCURVE",
"517 212 CURVE SMOOTH",
"336 490 LINE SMOOTH",
"297 549 OFFCURVE",
"260 605 OFFCURVE",
"234 665 CURVE",
"303 665 LINE",
"305 675 OFFCURVE",
"305 692 OFFCURVE",
"303 702 CURVE",
"259 700 OFFCURVE",
"206 700 OFFCURVE",
"149 700 CURVE SMOOTH",
"103 700 OFFCURVE",
"73 700 OFFCURVE",
"25 702 CURVE",
"23 692 OFFCURVE",
"23 675 OFFCURVE",
"25 665 CURVE",
"79 665 LINE",
"127 605 OFFCURVE",
"165 549 OFFCURVE",
"204 490 CURVE SMOOTH",
"386 212 LINE SMOOTH",
"425 153 OFFCURVE",
"457 95 OFFCURVE",
"483 35 CURVE",
"414 35 LINE",
"412 25 OFFCURVE",
"412 8 OFFCURVE",
"414 -2 CURVE",
"458 0 OFFCURVE",
"520 0 OFFCURVE",
"566 0 CURVE SMOOTH",
"617 0 OFFCURVE",
"647 0 OFFCURVE",
"695 -2 CURVE",
"697 8 OFFCURVE",
"697 25 OFFCURVE",
"695 35 CURVE"
);
},
{
closed = 1;
nodes = (
"390 345 LINE",
"486 490 LINE SMOOTH",
"525 549 OFFCURVE",
"567 605 OFFCURVE",
"615 665 CURVE",
"670 665 LINE",
"672 675 OFFCURVE",
"672 692 OFFCURVE",
"670 702 CURVE",
"622 700 OFFCURVE",
"598 700 OFFCURVE",
"574 700 CURVE SMOOTH",
"551 700 OFFCURVE",
"505 700 OFFCURVE",
"451 702 CURVE",
"449 692 OFFCURVE",
"449 675 OFFCURVE",
"451 665 CURVE",
"529 665 LINE",
"507 605 OFFCURVE",
"473 548 OFFCURVE",
"434 490 CURVE SMOOTH",
"337 345 LINE"
);
},
{
closed = 1;
nodes = (
"307 365 LINE",
"206 210 LINE SMOOTH",
"167 150 OFFCURVE",
"126 95 OFFCURVE",
"78 35 CURVE",
"23 35 LINE",
"21 25 OFFCURVE",
"21 8 OFFCURVE",
"23 -2 CURVE",
"71 0 OFFCURVE",
"95 0 OFFCURVE",
"119 0 CURVE SMOOTH",
"142 0 OFFCURVE",
"188 0 OFFCURVE",
"242 -2 CURVE",
"244 8 OFFCURVE",
"244 25 OFFCURVE",
"242 35 CURVE",
"164 35 LINE",
"186 95 OFFCURVE",
"219 151 OFFCURVE",
"258 210 CURVE SMOOTH",
"360 365 LINE"
);
}
);
width = 709;
},
{
anchors = (
{
name = bottom;
position = "{324, 0}";
},
{
name = top;
position = "{394, 700}";
}
);
layerId = "503E420B-61F7-4277-A1BE-A8852071B452";
paths = (
{
closed = 1;
nodes = (
"655 35 LINE",
"615 81 OFFCURVE",
"583 140 OFFCURVE",
"538 210 CURVE SMOOTH",
"360 490 LINE SMOOTH",
"322 550 OFFCURVE",
"289 605 OFFCURVE",
"264 665 CURVE",
"333 665 LINE",
"335 675 OFFCURVE",
"335 692 OFFCURVE",
"333 702 CURVE",
"288 700 OFFCURVE",
"234 700 OFFCURVE",
"155 700 CURVE SMOOTH",
"84 700 OFFCURVE",
"65 700 OFFCURVE",
"18 702 CURVE",
"16 692 OFFCURVE",
"16 675 OFFCURVE",
"18 665 CURVE",
"60 665 LINE",
"100 619 OFFCURVE",
"138 559 OFFCURVE",
"181 490 CURVE SMOOTH",
"355 210 LINE SMOOTH",
"392 150 OFFCURVE",
"424 95 OFFCURVE",
"449 35 CURVE",
"382 35 LINE",
"380 25 OFFCURVE",
"380 8 OFFCURVE",
"382 -2 CURVE",
"427 0 OFFCURVE",
"486 0 OFFCURVE",
"557 0 CURVE SMOOTH",
"631 0 OFFCURVE",
"650 0 OFFCURVE",
"697 -2 CURVE",
"699 8 OFFCURVE",
"699 25 OFFCURVE",
"697 35 CURVE"
);
},
{
closed = 1;
nodes = (
"390 334 LINE",
"499 490 LINE SMOOTH",
"540 549 OFFCURVE",
"586 605 OFFCURVE",
"634 665 CURVE",
"691 665 LINE",
"693 677 OFFCURVE",
"693 690 OFFCURVE",
"691 702 CURVE",
"643 700 OFFCURVE",
"618 700 OFFCURVE",
"594 700 CURVE SMOOTH",
"571 700 OFFCURVE",
"516 700 OFFCURVE",
"462 702 CURVE",
"460 690 OFFCURVE",
"460 677 OFFCURVE",
"462 665 CURVE",
"546 665 LINE",
"524 605 OFFCURVE",
"488 550 OFFCURVE",
"446 490 CURVE SMOOTH",
"338 334 LINE"
);
},
{
closed = 1;
nodes = (
"305 366 LINE",
"203 210 LINE SMOOTH",
"164 151 OFFCURVE",
"124 95 OFFCURVE",
"79 35 CURVE",
"17 35 LINE",
"15 23 OFFCURVE",
"15 10 OFFCURVE",
"17 -2 CURVE",
"65 0 OFFCURVE",
"90 0 OFFCURVE",
"114 0 CURVE SMOOTH",
"137 0 OFFCURVE",
"192 0 OFFCURVE",
"246 -2 CURVE",
"248 10 OFFCURVE",
"248 23 OFFCURVE",
"246 35 CURVE",
"164 35 LINE",
"185 95 OFFCURVE",
"216 149 OFFCURVE",
"256 210 CURVE SMOOTH",
"357 366 LINE"
);
}
);
width = 712;
},
{
associatedMasterId = "45069982-2EFC-4B7D-8C53-1932E6EAC4CA";
layerId = "083BF821-9E36-44C3-8C02-B9CEF5444806";
name = "Nov 3 20, 21:24";
paths = (
{
closed = 1;
nodes = (
"647 0 LINE",
"647 28 LINE",
"581 28 LINE",
"549 73 OFFCURVE",
"519 120 OFFCURVE",
"492 168 CURVE SMOOTH",
"364 403 LINE",
"446 532 LINE SMOOTH",
"478 581 OFFCURVE",
"511 627 OFFCURVE",
"548 672 CURVE",
"614 672 LINE",
"614 700 LINE",
"425 700 LINE",
"425 672 LINE",
"491 672 LINE",
"468 624 OFFCURVE",
"442 577 OFFCURVE",
"413 532 CURVE SMOOTH",
"349 431 LINE",
"293 532 LINE SMOOTH",
"268 577 OFFCURVE",
"247 624 OFFCURVE",
"228 672 CURVE",
"294 672 LINE",
"294 700 LINE",
"13 700 LINE",
"13 672 LINE",
"79 672 LINE",
"111 627 OFFCURVE",
"141 580 OFFCURVE",
"168 532 CURVE SMOOTH",
"281 325 LINE",
"181 168 LINE SMOOTH",
"149 119 OFFCURVE",
"116 73 OFFCURVE",
"79 28 CURVE",
"13 28 LINE",
"13 0 LINE",
"202 0 LINE",
"202 28 LINE",
"136 28 LINE",
"159 76 OFFCURVE",
"185 123 OFFCURVE",
"214 168 CURVE SMOOTH",
"296 297 LINE",
"367 168 LINE SMOOTH",
"392 123 OFFCURVE",
"413 76 OFFCURVE",
"432 28 CURVE",
"366 28 LINE",
"366 0 LINE"
);
}
);
visible = 1;
width = 640;
},
{
associatedMasterId = "503E420B-61F7-4277-A1BE-A8852071B452";
layerId = "308EC262-DACE-4639-9379-A7B993C50382";
name = "Nov 3 20, 21:24";
paths = (
{
closed = 1;
nodes = (
"655 0 LINE",
"655 32 LINE",
"589 32 LINE",
"558 77 OFFCURVE",
"531 124 OFFCURVE",
"507 172 CURVE SMOOTH",
"382 420 LINE",
"452 528 LINE SMOOTH",
"484 577 OFFCURVE",
"519 623 OFFCURVE",
"556 668 CURVE",
"622 668 LINE",
"622 700 LINE",
"428 700 LINE",
"428 668 LINE",
"494 668 LINE",
"470 620 OFFCURVE",
"443 573 OFFCURVE",
"414 528 CURVE SMOOTH",
"365 453 LINE",
"327 528 LINE SMOOTH",
"305 573 OFFCURVE",
"285 620 OFFCURVE",
"269 668 CURVE",
"335 668 LINE",
"335 700 LINE",
"11 700 LINE",
"11 668 LINE",
"77 668 LINE",
"108 623 OFFCURVE",
"135 576 OFFCURVE",
"159 528 CURVE SMOOTH",
"270 308 LINE",
"181 172 LINE SMOOTH",
"149 123 OFFCURVE",
"114 77 OFFCURVE",
"77 32 CURVE",
"11 32 LINE",
"11 0 LINE",
"205 0 LINE",
"205 32 LINE",
"139 32 LINE",
"163 80 OFFCURVE",
"190 127 OFFCURVE",
"219 172 CURVE SMOOTH",
"287 275 LINE",
"339 172 LINE SMOOTH",
"361 127 OFFCURVE",
"381 80 OFFCURVE",
"397 32 CURVE",
"331 32 LINE",
"331 0 LINE"
);
}
);
width = 600;
}
);
unicode = 0058;
},
{
glyphname = Y;
lastChange = "2020-11-29 15:03:21 +0000";
layers = (
{
anchors = (
{
name = bottom;
position = "{320, 0}";
},
{
name = top;
position = "{333, 700}";
},
{
name = topleft;
position = "{20, 700}";
}
);
backgroundImage = {
imagePath = "../../../Downloads/1928–1931_Półtawski_Antykwa-poster.png";
locked = "1";
transform = "{6.853, 0, 0, 6.853, -9538, -14}";
};
layerId = "45069982-2EFC-4B7D-8C53-1932E6EAC4CA";
paths = (
{
closed = 1;
nodes = (
"231 0 OFFCURVE",
"276 0 OFFCURVE",
"322 0 CURVE SMOOTH",
"368 0 OFFCURVE",
"413 0 OFFCURVE",
"459 -2 CURVE",
"461 8 OFFCURVE",
"461 25 OFFCURVE",
"459 35 CURVE",
"387 35 LINE",
"380 95 OFFCURVE",
"377 150 OFFCURVE",
"377 190 CURVE SMOOTH",
"377 203 LINE SMOOTH",
"377 321 OFFCURVE",
"437 524 OFFCURVE",
"570 665 CURVE",
"495 665 LINE",
"491 652 OFFCURVE",
"485 637 OFFCURVE",
"463 603 CURVE SMOOTH",
"422 540 OFFCURVE",
"374 441 OFFCURVE",
"354 350 CURVE",
"318 538 OFFCURVE",
"226 618 OFFCURVE",
"213 665 CURVE",
"62 665 LINE",
"149 589 OFFCURVE",
"267 385 OFFCURVE",
"267 203 CURVE SMOOTH",
"267 190 LINE SMOOTH",
"267 150 OFFCURVE",
"264 95 OFFCURVE",
"257 35 CURVE",
"185 35 LINE",
"183 25 OFFCURVE",
"183 8 OFFCURVE",
"185 -2 CURVE"
);
},
{
closed = 1;
nodes = (
"267 665 LINE",
"269 675 OFFCURVE",
"269 692 OFFCURVE",
"267 702 CURVE",
"211 700 OFFCURVE",
"141 700 OFFCURVE",
"115 700 CURVE SMOOTH",
"89 700 OFFCURVE",
"44 700 OFFCURVE",
"-2 702 CURVE",
"-4 692 OFFCURVE",
"-4 675 OFFCURVE",
"-2 665 CURVE"
);
},
{
closed = 1;
nodes = (
"627 665 LINE",
"629 675 OFFCURVE",
"629 692 OFFCURVE",
"627 702 CURVE",
"581 700 OFFCURVE",
"555 700 OFFCURVE",
"529 700 CURVE SMOOTH",
"503 700 OFFCURVE",
"463 700 OFFCURVE",
"407 702 CURVE",
"405 692 OFFCURVE",
"405 675 OFFCURVE",
"407 665 CURVE"
);
}
);
width = 642;
},
{
anchors = (
{
name = bottom;
position = "{333, 0}";
},
{
name = top;
position = "{362, 700}";
},
{
name = topleft;
position = "{21, 700}";
}
);
layerId = "503E420B-61F7-4277-A1BE-A8852071B452";
paths = (
{
closed = 1;
nodes = (
"228 0 OFFCURVE",
"288 0 OFFCURVE",
"334 0 CURVE SMOOTH",
"380 0 OFFCURVE",
"440 0 OFFCURVE",
"486 -2 CURVE",
"488 8 OFFCURVE",
"488 25 OFFCURVE",
"486 35 CURVE",
"419 35 LINE",
"412 90 OFFCURVE",
"409 150 OFFCURVE",
"409 210 CURVE SMOOTH",
"409 223 LINE SMOOTH",
"409 341 OFFCURVE",
"474 524 OFFCURVE",
"611 665 CURVE",
"523 665 LINE",
"519 652 OFFCURVE",
"509 623 OFFCURVE",
"485 582 CURVE SMOOTH",
"460 539 OFFCURVE",
"405 441 OFFCURVE",
"385 355 CURVE",
"335 553 OFFCURVE",
"258 620 OFFCURVE",
"245 665 CURVE",
"54 665 LINE",
"141 578 OFFCURVE",
"259 375 OFFCURVE",
"259 193 CURVE SMOOTH",
"259 180 LINE SMOOTH",
"259 150 OFFCURVE",
"256 90 OFFCURVE",
"249 35 CURVE",
"182 35 LINE",
"180 25 OFFCURVE",
"180 8 OFFCURVE",
"182 -2 CURVE"
);
},
{
closed = 1;
nodes = (
"299 665 LINE",
"301 675 OFFCURVE",
"301 692 OFFCURVE",
"299 702 CURVE",
"243 700 OFFCURVE",
"173 700 OFFCURVE",
"147 700 CURVE SMOOTH",
"81 700 OFFCURVE",
"48 700 OFFCURVE",
"2 702 CURVE",
"0 692 OFFCURVE",
"0 675 OFFCURVE",
"2 665 CURVE"
);
},
{
closed = 1;
nodes = (
"664 665 LINE",
"666 675 OFFCURVE",
"666 692 OFFCURVE",
"664 702 CURVE",
"618 700 OFFCURVE",
"592 700 OFFCURVE",
"566 700 CURVE SMOOTH",
"540 700 OFFCURVE",
"490 700 OFFCURVE",
"434 702 CURVE",
"432 692 OFFCURVE",
"432 675 OFFCURVE",
"434 665 CURVE"
);
}
);
width = 665;
},
{
associatedMasterId = "45069982-2EFC-4B7D-8C53-1932E6EAC4CA";
backgroundImage = {
imagePath = "../../../Downloads/1928–1931_Półtawski_Antykwa-poster.png";
locked = "1";
transform = "{6.853, 0, 0, 6.853, -9538, -14}";
};
guideLines = (
{
position = "{534, 625}";
}
);
layerId = "ED2B5FC9-B7D3-440C-B501-88F4FB380913";
name = "Nov 4 20, 00:15";
paths = (
{
closed = 1;
nodes = (
"501 665 LINE",
"500 652 OFFCURVE",
"491 640 OFFCURVE",
"469 606 CURVE SMOOTH",
"428 543 OFFCURVE",
"383 451 OFFCURVE",
"363 373 CURVE",
"339 464 OFFCURVE",
"281 580 OFFCURVE",
"210 665 CURVE",
"13 665 LINE",
"63 665 OFFCURVE",
"79 654 OFFCURVE",
"114 611 CURVE SMOOTH",
"168 543 OFFCURVE",
"272 383 OFFCURVE",
"272 223 CURVE",
"382 223 LINE",
"382 351 OFFCURVE",
"442 524 OFFCURVE",
"534 625 CURVE SMOOTH",
"565 659 OFFCURVE",
"579 665 OFFCURVE",
"616 665 CURVE"
);
},
{
closed = 1;
nodes = (
"327 223 LINE",
"272 223 LINE",
"272 210 LINE SMOOTH",
"272 150 OFFCURVE",
"269 95 OFFCURVE",
"262 35 CURVE",
"190 35 LINE",
"188 25 OFFCURVE",
"188 8 OFFCURVE",
"190 -2 CURVE",
"236 0 OFFCURVE",
"281 0 OFFCURVE",
"327 0 CURVE"
);
},
{
closed = 1;
nodes = (
"373 0 OFFCURVE",
"418 0 OFFCURVE",
"464 -2 CURVE",
"466 8 OFFCURVE",
"466 25 OFFCURVE",
"464 35 CURVE",
"392 35 LINE",
"385 95 OFFCURVE",
"382 150 OFFCURVE",
"382 210 CURVE SMOOTH",
"382 223 LINE",
"327 223 LINE",
"327 0 LINE"
);
},
{
closed = 1;
nodes = (
"297 665 LINE",
"299 675 OFFCURVE",
"299 692 OFFCURVE",
"297 702 CURVE",
"241 700 OFFCURVE",
"176 700 OFFCURVE",
"150 700 CURVE SMOOTH",
"124 700 OFFCURVE",
"59 700 OFFCURVE",
"3 702 CURVE",
"1 692 OFFCURVE",
"1 675 OFFCURVE",
"3 665 CURVE"
);
},
{
closed = 1;
nodes = (
"651 665 LINE",
"653 675 OFFCURVE",
"653 692 OFFCURVE",
"651 702 CURVE",
"605 700 OFFCURVE",
"570 700 OFFCURVE",
"544 700 CURVE SMOOTH",
"518 700 OFFCURVE",
"483 700 OFFCURVE",
"427 702 CURVE",
"425 692 OFFCURVE",
"425 675 OFFCURVE",
"427 665 CURVE"
);
}
);
width = 660;
},
{
associatedMasterId = "503E420B-61F7-4277-A1BE-A8852071B452";
layerId = "8BA5FA6B-431C-4205-AD1B-5C9ADE995262";
name = "Nov 4 20, 15:08";
paths = (
{
closed = 1;
nodes = (
"651 668 LINE",
"651 700 LINE",
"452 700 LINE",
"452 668 LINE",
"525 668 LINE",
"525 636 OFFCURVE",
"503 602 OFFCURVE",
"483 573 CURVE SMOOTH",
"461 538 OFFCURVE",
"441 502 OFFCURVE",
"424 464 CURVE SMOOTH",
"410 431 OFFCURVE",
"398 397 OFFCURVE",
"390 362 CURVE",
"378 410 LINE SMOOTH",
"362 464 OFFCURVE",
"340 516 OFFCURVE",
"313 566 CURVE SMOOTH",
"296 597 OFFCURVE",
"286 632 OFFCURVE",
"285 668 CURVE",
"351 668 LINE",
"351 700 LINE",
"7 700 LINE",
"7 668 LINE",
"51 668 LINE",
"102 617 OFFCURVE",
"146 558 OFFCURVE",
"181 494 CURVE SMOOTH",
"225 414 OFFCURVE",
"254 325 OFFCURVE",
"254 233 CURVE SMOOTH",
"254 172 LINE SMOOTH",
"254 125 OFFCURVE",
"250 78 OFFCURVE",
"242 32 CURVE",
"176 32 LINE",
"176 0 LINE",
"482 0 LINE",
"482 32 LINE",
"416 32 LINE",
"408 78 OFFCURVE",
"404 125 OFFCURVE",
"404 172 CURVE SMOOTH",
"404 233 LINE SMOOTH",
"404 308 OFFCURVE",
"423 382 OFFCURVE",
"453 451 CURVE SMOOTH",
"489 532 OFFCURVE",
"539 605 OFFCURVE",
"602 668 CURVE"
);
}
);
visible = 1;
width = 600;
}
);
leftKerningGroup = Y;
rightKerningGroup = Y;
unicode = 0059;
},
{
glyphname = Z;
lastChange = "2020-11-29 15:03:21 +0000";
layers = (
{
anchors = (
{
name = bottom;
position = "{308, 0}";
},
{
name = center;
position = "{308, 350}";
},
{
name = top;
position = "{338, 700}";
}
);
guideLines = (
{
position = "{208, 210}";
}
);
layerId = "45069982-2EFC-4B7D-8C53-1932E6EAC4CA";
paths = (
{
closed = 1;
nodes = (
"65 510 LINE",
"76 508 OFFCURVE",
"86 508 OFFCURVE",
"97 510 CURVE",
"102 620 OFFCURVE",
"153 660 OFFCURVE",
"237 660 CURVE SMOOTH",
"454 660 LINE",
"583 650 LINE",
"584 667 OFFCURVE",
"583 683 OFFCURVE",
"580 700 CURVE",
"65 700 LINE"
);
},
{
closed = 1;
nodes = (
"595 190 LINE",
"584 192 OFFCURVE",
"574 192 OFFCURVE",
"563 190 CURVE",
"558 80 OFFCURVE",
"517 40 OFFCURVE",
"423 40 CURVE SMOOTH",
"171 40 LINE",
"35 50 LINE",
"35 33 OFFCURVE",
"37 17 OFFCURVE",
"39 0 CURVE",
"595 0 LINE"
);
},
{
closed = 1;
nodes = (
"424 643 OFFCURVE",
"397 595 OFFCURVE",
"353 520 CURVE SMOOTH",
"151 180 LINE SMOOTH",
"125 136 OFFCURVE",
"75 67 OFFCURVE",
"35 50 CURVE",
"171 40 LINE",
"206 57 OFFCURVE",
"235 105 OFFCURVE",
"279 180 CURVE SMOOTH",
"481 520 LINE SMOOTH",
"507 564 OFFCURVE",
"538 623 OFFCURVE",
"583 650 CURVE",
"454 660 LINE"
);
}
);
width = 644;
},
{
anchors = (
{
name = bottom;
position = "{309, 0}";
},
{
name = center;
position = "{309, 350}";
},
{
name = top;
position = "{334, 700}";
}
);
layerId = "503E420B-61F7-4277-A1BE-A8852071B452";
paths = (
{
closed = 1;
nodes = (
"64 500 LINE",
"75 498 OFFCURVE",
"85 498 OFFCURVE",
"96 500 CURVE",
"101 620 OFFCURVE",
"152 660 OFFCURVE",
"246 660 CURVE SMOOTH",
"424 660 LINE",
"607 650 LINE",
"608 667 OFFCURVE",
"607 683 OFFCURVE",
"602 700 CURVE",
"64 700 LINE"
);
},
{
closed = 1;
nodes = (
"609 190 LINE",
"598 192 OFFCURVE",
"588 192 OFFCURVE",
"577 190 CURVE",
"572 110 OFFCURVE",
"531 40 OFFCURVE",
"427 40 CURVE SMOOTH",
"214 40 LINE",
"29 50 LINE",
"28 33 OFFCURVE",
"29 17 OFFCURVE",
"34 0 CURVE",
"609 0 LINE"
);
},
{
closed = 1;
nodes = (
"404 643 OFFCURVE",
"384 613 OFFCURVE",
"367 584 CURVE SMOOTH",
"135 180 LINE SMOOTH",
"110 137 OFFCURVE",
"69 67 OFFCURVE",
"29 50 CURVE",
"214 40 LINE",
"239 57 OFFCURVE",
"252 78 OFFCURVE",
"269 108 CURVE SMOOTH",
"505 520 LINE SMOOTH",
"530 563 OFFCURVE",
"562 623 OFFCURVE",
"607 650 CURVE",
"424 660 LINE"
);
}
);
width = 656;
},
{
associatedMasterId = "45069982-2EFC-4B7D-8C53-1932E6EAC4CA";
layerId = "E027E6B9-DBC9-4CF2-87C8-D3090DECD659";
name = "Nov 3 20, 21:08";
paths = (
{
closed = 1;
nodes = (
"26 28 LINE",
"26 0 LINE",
"584 0 LINE",
"584 175 LINE",
"556 175 LINE",
"556 99 OFFCURVE",
"513 28 OFFCURVE",
"444 28 CURVE SMOOTH"
);
},
{
closed = 1;
nodes = (
"464 683 LINE",
"430 651 OFFCURVE",
"399 619 OFFCURVE",
"376 578 CURVE SMOOTH",
"154 175 LINE SMOOTH",
"121 114 OFFCURVE",
"72 64 OFFCURVE",
"12 28 CURVE",
"159 18 LINE",
"195 47 OFFCURVE",
"227 80 OFFCURVE",
"251 122 CURVE SMOOTH",
"472 525 LINE SMOOTH",
"503 579 OFFCURVE",
"538 630 OFFCURVE",
"581 675 CURVE"
);
},
{
closed = 1;
nodes = (
"570 700 LINE",
"54 700 LINE",
"54 525 LINE",
"82 525 LINE",
"82 601 OFFCURVE",
"125 672 OFFCURVE",
"194 672 CURVE SMOOTH",
"570 672 LINE"
);
}
);
width = 620;
},
{
associatedMasterId = "503E420B-61F7-4277-A1BE-A8852071B452";
layerId = "D4D88E59-8924-493D-B3CA-E11EFC59C935";
name = "Nov 3 20, 21:08";
paths = (
{
closed = 1;
nodes = (
"22 32 LINE",
"22 0 LINE",
"582 0 LINE",
"582 175 LINE",
"550 175 LINE",
"550 102 OFFCURVE",
"509 32 OFFCURVE",
"442 32 CURVE SMOOTH"
);
},
{
closed = 1;
nodes = (
"403 679 LINE",
"373 652 OFFCURVE",
"349 622 OFFCURVE",
"333 586 CURVE SMOOTH",
"151 175 LINE SMOOTH",
"123 112 OFFCURVE",
"71 62 OFFCURVE",
"7 37 CURVE",
"220 21 LINE",
"247 47 OFFCURVE",
"272 78 OFFCURVE",
"288 114 CURVE SMOOTH",
"470 525 LINE SMOOTH",
"494 580 OFFCURVE",
"532 629 OFFCURVE",
"578 668 CURVE"
);
},
{
closed = 1;
nodes = (
"566 700 LINE",
"50 700 LINE",
"50 525 LINE",
"82 525 LINE",
"82 598 OFFCURVE",
"123 668 OFFCURVE",
"190 668 CURVE SMOOTH",
"566 668 LINE"
);
}
);
visible = 1;
width = 600;
}
);
leftKerningGroup = Z;
rightKerningGroup = Z;
unicode = 005A;
},
{
color = 5;
glyphname = K.ss01;
lastChange = "2022-06-16 19:58:41 +0000";
layers = (
{
anchors = (
{
name = bottom;
position = "{380, 0}";
},
{
name = top;
position = "{380, 700}";
}
);
components = (
{
name = I;
}
);
layerId = "45069982-2EFC-4B7D-8C53-1932E6EAC4CA";
paths = (
{
closed = 1;
nodes = (
"503 0 OFFCURVE",
"550 0 OFFCURVE",
"596 0 CURVE SMOOTH",
"642 0 OFFCURVE",
"674 0 OFFCURVE",
"723 -2 CURVE",
"725 10 OFFCURVE",
"725 23 OFFCURVE",
"723 35 CURVE",
"673 35 LINE",
"621 95 OFFCURVE",
"569 163 OFFCURVE",
"528 224 CURVE SMOOTH",
"382 440 LINE",
"306 355 LINE",
"399 222 LINE SMOOTH",
"441 161 OFFCURVE",
"486 95 OFFCURVE",
"519 35 CURVE",
"460 35 LINE",
"458 23 OFFCURVE",
"458 10 OFFCURVE",
"460 -2 CURVE"
);
},
{
closed = 1;
nodes = (
"231 252 LINE",
"451 494 LINE SMOOTH",
"503 551 OFFCURVE",
"554 605 OFFCURVE",
"613 665 CURVE",
"678 665 LINE",
"680 677 OFFCURVE",
"680 690 OFFCURVE",
"678 702 CURVE",
"630 700 OFFCURVE",
"596 700 OFFCURVE",
"572 700 CURVE SMOOTH",
"549 700 OFFCURVE",
"503 700 OFFCURVE",
"449 702 CURVE",
"447 690 OFFCURVE",
"447 677 OFFCURVE",
"449 665 CURVE",
"521 665 LINE",
"488 605 OFFCURVE",
"444 550 OFFCURVE",
"392 494 CURVE SMOOTH",
"170 252 LINE"
);
}
);
width = 730;
},
{
anchors = (
{
name = bottom;
position = "{401, 0}";
},
{
name = top;
position = "{401, 700}";
}
);
components = (
{
name = I;
}
);
layerId = "503E420B-61F7-4277-A1BE-A8852071B452";
paths = (
{
closed = 1;
nodes = (
"505 0 OFFCURVE",
"547 0 OFFCURVE",
"613 0 CURVE SMOOTH",
"687 0 OFFCURVE",
"708 0 OFFCURVE",
"755 -2 CURVE",
"757 10 OFFCURVE",
"757 23 OFFCURVE",
"755 35 CURVE",
"713 35 LINE",
"675 81 OFFCURVE",
"643 141 OFFCURVE",
"603 210 CURVE SMOOTH",
"451 470 LINE",
"343 352 LINE",
"425 210 LINE SMOOTH",
"460 149 OFFCURVE",
"490 95 OFFCURVE",
"512 35 CURVE",
"460 35 LINE",
"458 23 OFFCURVE",
"458 10 OFFCURVE",
"460 -2 CURVE"
);
},
{
closed = 1;
nodes = (
"213 193 LINE",
"480 490 LINE SMOOTH",
"532 548 OFFCURVE",
"592 615 OFFCURVE",
"658 665 CURVE",
"715 665 LINE",
"717 677 OFFCURVE",
"717 690 OFFCURVE",
"715 702 CURVE",
"667 700 OFFCURVE",
"632 700 OFFCURVE",
"608 700 CURVE SMOOTH",
"585 700 OFFCURVE",
"525 700 OFFCURVE",
"471 702 CURVE",
"469 690 OFFCURVE",
"469 677 OFFCURVE",
"471 665 CURVE",
"550 665 LINE",
"522 605 OFFCURVE",
"473 549 OFFCURVE",
"420 490 CURVE SMOOTH",
"152 193 LINE"
);
}
);
width = 758;
}
);
leftKerningGroup = H;
rightKerningGroup = K.ss01;
},
{
color = 5;
glyphname = R.ss01;
lastChange = "2022-06-16 19:58:41 +0000";
layers = (
{
anchors = (
{
name = bottom;
position = "{366, 0}";
},
{
name = top;
position = "{337, 700}";
}
);
layerId = "45069982-2EFC-4B7D-8C53-1932E6EAC4CA";
paths = (
{
closed = 1;
nodes = (
"136 700 OFFCURVE",
"91 700 OFFCURVE",
"45 702 CURVE",
"43 692 OFFCURVE",
"43 675 OFFCURVE",
"45 665 CURVE",
"117 665 LINE",
"124 605 OFFCURVE",
"127 550 OFFCURVE",
"127 490 CURVE SMOOTH",
"127 210 LINE SMOOTH",
"127 150 OFFCURVE",
"124 95 OFFCURVE",
"117 35 CURVE",
"45 35 LINE",
"43 25 OFFCURVE",
"43 8 OFFCURVE",
"45 -2 CURVE",
"91 0 OFFCURVE",
"136 0 OFFCURVE",
"182 0 CURVE SMOOTH",
"228 0 OFFCURVE",
"273 0 OFFCURVE",
"319 -2 CURVE",
"321 8 OFFCURVE",
"321 25 OFFCURVE",
"319 35 CURVE",
"247 35 LINE",
"240 95 OFFCURVE",
"237 150 OFFCURVE",
"237 210 CURVE SMOOTH",
"237 490 LINE SMOOTH",
"237 550 OFFCURVE",
"240 600 OFFCURVE",
"247 660 CURVE",
"327 660 LINE SMOOTH",
"432 660 OFFCURVE",
"477 603 OFFCURVE",
"477 512 CURVE SMOOTH",
"477 417 OFFCURVE",
"427 360 OFFCURVE",
"347 360 CURVE SMOOTH",
"182 360 LINE",
"182 320 LINE",
"354 320 LINE",
"406 324 LINE",
"521 344 OFFCURVE",
"602 417 OFFCURVE",
"602 520 CURVE SMOOTH",
"602 647 OFFCURVE",
"487 700 OFFCURVE",
"337 700 CURVE SMOOTH",
"182 700 LINE SMOOTH"
);
},
{
closed = 1;
nodes = (
"477 0 OFFCURVE",
"511 0 OFFCURVE",
"557 0 CURVE SMOOTH",
"608 0 OFFCURVE",
"638 0 OFFCURVE",
"686 -2 CURVE",
"688 10 OFFCURVE",
"688 23 OFFCURVE",
"686 35 CURVE",
"632 35 LINE",
"590 95 OFFCURVE",
"557 152 OFFCURVE",
"521 212 CURVE SMOOTH",
"439 347 LINE",
"322 338 LINE",
"398 212 LINE SMOOTH",
"434 152 OFFCURVE",
"464 95 OFFCURVE",
"485 35 CURVE",
"433 35 LINE",
"431 23 OFFCURVE",
"431 10 OFFCURVE",
"433 -2 CURVE"
);
}
);
width = 694;
},
{
anchors = (
{
name = bottom;
position = "{384, 0}";
},
{
name = top;
position = "{354, 700}";
}
);
layerId = "503E420B-61F7-4277-A1BE-A8852071B452";
paths = (
{
closed = 1;
nodes = (
"149 700 OFFCURVE",
"89 700 OFFCURVE",
"43 702 CURVE",
"41 692 OFFCURVE",
"41 675 OFFCURVE",
"43 665 CURVE",
"110 665 LINE",
"117 610 OFFCURVE",
"120 550 OFFCURVE",
"120 490 CURVE SMOOTH",
"120 210 LINE SMOOTH",
"120 150 OFFCURVE",
"117 90 OFFCURVE",
"110 35 CURVE",
"43 35 LINE",
"41 25 OFFCURVE",
"41 8 OFFCURVE",
"43 -2 CURVE",
"89 0 OFFCURVE",
"149 0 OFFCURVE",
"195 0 CURVE SMOOTH",
"241 0 OFFCURVE",
"301 0 OFFCURVE",
"347 -2 CURVE",
"349 8 OFFCURVE",
"349 25 OFFCURVE",
"347 35 CURVE",
"280 35 LINE",
"273 90 OFFCURVE",
"270 150 OFFCURVE",
"270 210 CURVE SMOOTH",
"270 490 LINE SMOOTH",
"270 550 OFFCURVE",
"273 600 OFFCURVE",
"280 660 CURVE",
"327 660 LINE SMOOTH",
"407 660 OFFCURVE",
"457 613 OFFCURVE",
"457 510 CURVE SMOOTH",
"457 407 OFFCURVE",
"402 360 OFFCURVE",
"337 360 CURVE SMOOTH",
"202 360 LINE",
"202 320 LINE",
"374 320 LINE",
"441 336 LINE SMOOTH",
"530 357 OFFCURVE",
"622 409 OFFCURVE",
"622 522 CURVE SMOOTH",
"622 652 OFFCURVE",
"502 700 OFFCURVE",
"357 700 CURVE SMOOTH",
"195 700 LINE SMOOTH"
);
},
{
closed = 1;
nodes = (
"463 0 OFFCURVE",
"500 0 OFFCURVE",
"571 0 CURVE SMOOTH",
"639 0 OFFCURVE",
"658 0 OFFCURVE",
"705 -2 CURVE",
"707 10 OFFCURVE",
"707 23 OFFCURVE",
"705 35 CURVE",
"663 35 LINE",
"631 81 OFFCURVE",
"597 137 OFFCURVE",
"559 210 CURVE SMOOTH",
"468 385 LINE",
"328 340 LINE",
"395 210 LINE SMOOTH",
"425 151 OFFCURVE",
"455 95 OFFCURVE",
"475 35 CURVE",
"418 35 LINE",
"416 23 OFFCURVE",
"416 10 OFFCURVE",
"418 -2 CURVE"
);
}
);
width = 708;
}
);
leftKerningGroup = H;
rightKerningGroup = R.ss01;
},
{
color = 6;
glyphname = Lslash.ss07;
lastChange = "2022-07-19 15:19:38 +0000";
layers = (
{
components = (
{
name = L;
transform = "{1, 0, 0, 1, 6, 0}";
}
);
layerId = "45069982-2EFC-4B7D-8C53-1932E6EAC4CA";
paths = (
{
closed = 1;
nodes = (
"228 351 LINE",
"22 229 LINE",
"19 211 OFFCURVE",
"19 193 OFFCURVE",
"22 175 CURVE",
"228 304 LINE"
);
},
{
closed = 1;
nodes = (
"228 294 LINE",
"472 439 LINE",
"475 457 OFFCURVE",
"475 475 OFFCURVE",
"472 493 CURVE",
"228 341 LINE"
);
}
);
width = 589;
},
{
components = (
{
name = L;
transform = "{1, 0, 0, 1, 15, 0}";
}
);
layerId = "503E420B-61F7-4277-A1BE-A8852071B452";
paths = (
{
closed = 1;
nodes = (
"222 351 LINE",
"16 229 LINE",
"13 211 OFFCURVE",
"13 193 OFFCURVE",
"16 175 CURVE",
"222 304 LINE"
);
},
{
closed = 1;
nodes = (
"222 294 LINE",
"515 466 LINE",
"518 484 OFFCURVE",
"518 502 OFFCURVE",
"515 520 CURVE",
"222 341 LINE"
);
}
);
width = 603;
}
);
leftMetricsKey = "=Lslash";
rightKerningGroup = L;
rightMetricsKey = "=Lslash";
},
{
glyphname = a;
lastChange = "2022-06-16 19:38:26 +0000";
layers = (
{
anchors = (
{
name = bottom;
position = "{238, 0}";
},
{
name = ogonek;
position = "{483, -2}";
},
{
name = top;
position = "{250, 440}";
}
);
layerId = "45069982-2EFC-4B7D-8C53-1932E6EAC4CA";
paths = (
{
closed = 1;
nodes = (
"260 -15 OFFCURVE",
"297 12 OFFCURVE",
"332 45 CURVE",
"326 85 LINE",
"297 55 OFFCURVE",
"264 28 OFFCURVE",
"213 28 CURVE SMOOTH",
"163 28 OFFCURVE",
"138 64 OFFCURVE",
"138 117 CURVE",
"138 181 OFFCURVE",
"184 210 OFFCURVE",
"242 210 CURVE SMOOTH",
"269 210 OFFCURVE",
"298 204 OFFCURVE",
"326 191 CURVE",
"326 231 LINE",
"302 240 OFFCURVE",
"270 250 OFFCURVE",
"220 250 CURVE SMOOTH",
"117 250 OFFCURVE",
"38 203 OFFCURVE",
"38 114 CURVE",
"38 34 OFFCURVE",
"101 -15 OFFCURVE",
"187 -15 CURVE"
);
},
{
closed = 1;
nodes = (
"421 407 OFFCURVE",
"360 455 OFFCURVE",
"254 455 CURVE SMOOTH",
"132 455 OFFCURVE",
"63 391 OFFCURVE",
"63 325 CURVE",
"163 325 LINE",
"158 386 OFFCURVE",
"188 418 OFFCURVE",
"243 418 CURVE SMOOTH",
"301 418 OFFCURVE",
"326 378 OFFCURVE",
"326 297 CURVE",
"326 85 LINE",
"332 45 LINE",
"341 11 OFFCURVE",
"363 -10 OFFCURVE",
"416 -10 CURVE SMOOTH",
"434 -10 OFFCURVE",
"462 -7 OFFCURVE",
"483 -2 CURVE",
"485 10 OFFCURVE",
"485 23 OFFCURVE",
"483 35 CURVE",
"441 35 OFFCURVE",
"421 46 OFFCURVE",
"421 85 CURVE",
"421 304 LINE SMOOTH"
);
}
);
width = 510;
},
{
anchors = (
{
name = bottom;
position = "{266, 0}";
},
{
name = ogonek;
position = "{526, -2}";
},
{
name = top;
position = "{270, 460}";
}
);
layerId = "503E420B-61F7-4277-A1BE-A8852071B452";
paths = (
{
closed = 1;
nodes = (
"261 -15 OFFCURVE",
"312 8 OFFCURVE",
"347 40 CURVE",
"337 85 LINE",
"311 54 OFFCURVE",
"275 35 OFFCURVE",
"239 35 CURVE SMOOTH",
"193 35 OFFCURVE",
"164 67 OFFCURVE",
"164 123 CURVE",
"164 186 OFFCURVE",
"209 220 OFFCURVE",
"265 220 CURVE SMOOTH",
"290 220 OFFCURVE",
"316 215 OFFCURVE",
"337 205 CURVE",
"337 247 LINE",
"307 258 OFFCURVE",
"276 265 OFFCURVE",
"232 265 CURVE SMOOTH",
"120 265 OFFCURVE",
"34 218 OFFCURVE",
"34 121 CURVE",
"34 33 OFFCURVE",
"99 -15 OFFCURVE",
"197 -15 CURVE"
);
},
{
closed = 1;
nodes = (
"467 412 OFFCURVE",
"416 475 OFFCURVE",
"268 475 CURVE SMOOTH",
"125 475 OFFCURVE",
"59 411 OFFCURVE",
"59 320 CURVE",
"189 320 LINE",
"180 389 OFFCURVE",
"207 438 OFFCURVE",
"263 438 CURVE SMOOTH",
"319 438 OFFCURVE",
"337 382 OFFCURVE",
"337 314 CURVE",
"337 85 LINE",
"347 40 LINE",
"356 7 OFFCURVE",
"388 -10 OFFCURVE",
"446 -10 CURVE SMOOTH",
"469 -10 OFFCURVE",
"496 -8 OFFCURVE",
"527 -2 CURVE",
"529 10 OFFCURVE",
"529 23 OFFCURVE",
"527 35 CURVE",
"485 35 OFFCURVE",
"467 46 OFFCURVE",
"467 95 CURVE",
"467 309 LINE SMOOTH"
);
}
);
width = 546;
},
{
associatedMasterId = "45069982-2EFC-4B7D-8C53-1932E6EAC4CA";
layerId = "32DEE42D-1858-4AEB-A29B-4103D10B3F7F";
name = "Nov 3 20, 18:57";
paths = (
{
closed = 1;
nodes = (
"452 0 LINE",
"452 28 LINE",
"414 28 OFFCURVE",
"392 36 OFFCURVE",
"392 70 CURVE SMOOTH",
"392 308 LINE SMOOTH",
"392 402 OFFCURVE",
"323 452 OFFCURVE",
"224 452 CURVE SMOOTH",
"139 452 OFFCURVE",
"56 412 OFFCURVE",
"56 336 CURVE",
"128 336 LINE",
"128 392 OFFCURVE",
"167 424 OFFCURVE",
"224 424 CURVE SMOOTH",
"274 424 OFFCURVE",
"302 388 OFFCURVE",
"302 336 CURVE SMOOTH",
"302 232 LINE",
"270 257 OFFCURVE",
"232 270 OFFCURVE",
"192 270 CURVE SMOOTH",
"95 270 OFFCURVE",
"26 221 OFFCURVE",
"26 129 CURVE SMOOTH",
"26 37 OFFCURVE",
"95 -12 OFFCURVE",
"192 -12 CURVE SMOOTH",
"233 -12 OFFCURVE",
"280 9 OFFCURVE",
"310 40 CURVE",
"323 16 OFFCURVE",
"350 0 OFFCURVE",
"380 0 CURVE SMOOTH"
);
},
{
closed = 1;
nodes = (
"302 73 LINE",
"282 41 OFFCURVE",
"238 16 OFFCURVE",
"200 16 CURVE SMOOTH",
"147 16 OFFCURVE",
"116 71 OFFCURVE",
"116 129 CURVE SMOOTH",
"116 187 OFFCURVE",
"147 242 OFFCURVE",
"200 242 CURVE SMOOTH",
"237 242 OFFCURVE",
"274 229 OFFCURVE",
"302 204 CURVE"
);
}
);
width = 472;
},
{
associatedMasterId = "503E420B-61F7-4277-A1BE-A8852071B452";
layerId = "7453FD27-2B63-47B3-8720-54D9E0BD8A48";
name = "Nov 3 20, 18:57";
paths = (
{
closed = 1;
nodes = (
"482 0 LINE",
"482 32 LINE",
"445 32 OFFCURVE",
"422 37 OFFCURVE",
"422 70 CURVE SMOOTH",
"422 308 LINE SMOOTH",
"422 406 OFFCURVE",
"343 452 OFFCURVE",
"237 452 CURVE SMOOTH",
"146 452 OFFCURVE",
"52 420 OFFCURVE",
"52 340 CURVE",
"148 340 LINE",
"148 391 OFFCURVE",
"184 420 OFFCURVE",
"237 420 CURVE SMOOTH",
"280 420 OFFCURVE",
"302 386 OFFCURVE",
"302 340 CURVE SMOOTH",
"302 232 LINE",
"271 259 OFFCURVE",
"231 274 OFFCURVE",
"190 274 CURVE SMOOTH",
"92 274 OFFCURVE",
"22 224 OFFCURVE",
"22 131 CURVE SMOOTH",
"22 38 OFFCURVE",
"92 -12 OFFCURVE",
"190 -12 CURVE SMOOTH",
"232 -12 OFFCURVE",
"280 9 OFFCURVE",
"313 39 CURVE",
"331 13 OFFCURVE",
"370 0 OFFCURVE",
"410 0 CURVE SMOOTH"
);
},
{
closed = 1;
nodes = (
"302 73 LINE",
"286 44 OFFCURVE",
"248 20 OFFCURVE",
"214 20 CURVE SMOOTH",
"165 20 OFFCURVE",
"142 76 OFFCURVE",
"142 131 CURVE SMOOTH",
"142 186 OFFCURVE",
"165 242 OFFCURVE",
"214 242 CURVE SMOOTH",
"248 242 OFFCURVE",
"281 227 OFFCURVE",
"302 200 CURVE"
);
}
);
width = 600;
},
{
associatedMasterId = "45069982-2EFC-4B7D-8C53-1932E6EAC4CA";
layerId = "FAB570E5-D279-49FE-9D2A-7D1AB6A7D119";
name = "Nov 4 20, 16:18";
paths = (
{
closed = 1;
nodes = (
"401 407 OFFCURVE",
"346 455 OFFCURVE",
"232 455 CURVE SMOOTH",
"118 455 OFFCURVE",
"43 391 OFFCURVE",
"43 325 CURVE",
"143 325 LINE",
"138 386 OFFCURVE",
"172 418 OFFCURVE",
"227 418 CURVE SMOOTH",
"285 418 OFFCURVE",
"306 375 OFFCURVE",
"306 294 CURVE",
"306 80 LINE",
"312 45 LINE",
"324 -1 OFFCURVE",
"352 -22 OFFCURVE",
"461 -2 CURVE",
"463 10 OFFCURVE",
"463 23 OFFCURVE",
"461 35 CURVE",
"419 35 OFFCURVE",
"401 46 OFFCURVE",
"401 85 CURVE",
"401 304 LINE SMOOTH"
);
},
{
closed = 1;
nodes = (
"234 -15 OFFCURVE",
"273 -1 OFFCURVE",
"312 45 CURVE",
"306 80 LINE",
"276.896 48.828 OFFCURVE",
"243 25 OFFCURVE",
"202 25 CURVE",
"148 25 OFFCURVE",
"118 68 OFFCURVE",
"118 121 CURVE",
"118 181 OFFCURVE",
"147 210 OFFCURVE",
"233 210 CURVE",
"306 210 LINE",
"306 245 LINE",
"228 245 LINE",
"101 245 OFFCURVE",
"18 216 OFFCURVE",
"18 120 CURVE",
"18 30 OFFCURVE",
"91 -15 OFFCURVE",
"177 -15 CURVE"
);
}
);
width = 487;
}
);
leftKerningGroup = a;
rightKerningGroup = a;
unicode = 0061;
},
{
glyphname = aogonek;
lastChange = "2020-11-29 15:03:21 +0000";
layers = (
{
anchors = (
{
name = _ogonek;
position = "{483, -2}";
}
);
components = (
{
name = a;
}
);
layerId = "45069982-2EFC-4B7D-8C53-1932E6EAC4CA";
paths = (
{
closed = 1;
nodes = (
"417 -225 OFFCURVE",
"456 -204 OFFCURVE",
"492 -179 CURVE",
"490 -167 OFFCURVE",
"485 -157 OFFCURVE",
"477 -148 CURVE",
"448 -163 OFFCURVE",
"425 -169 OFFCURVE",
"406 -169 CURVE SMOOTH",
"367 -169 OFFCURVE",
"347 -147 OFFCURVE",
"347 -119 CURVE SMOOTH",
"347 -69 OFFCURVE",
"391 -28 OFFCURVE",
"483 -2 CURVE",
"464 19 LINE",
"346 -11 OFFCURVE",
"264 -53 OFFCURVE",
"264 -136 CURVE SMOOTH",
"264 -193 OFFCURVE",
"308 -225 OFFCURVE",
"365 -225 CURVE SMOOTH"
);
}
);
width = 510;
},
{
anchors = (
{
name = _ogonek;
position = "{526, -2}";
}
);
components = (
{
name = a;
}
);
layerId = "503E420B-61F7-4277-A1BE-A8852071B452";
paths = (
{
closed = 1;
nodes = (
"460 -225 OFFCURVE",
"501 -204 OFFCURVE",
"535 -179 CURVE",
"533 -167 OFFCURVE",
"528 -157 OFFCURVE",
"520 -148 CURVE",
"491 -163 OFFCURVE",
"468 -169 OFFCURVE",
"449 -169 CURVE SMOOTH",
"418 -169 OFFCURVE",
"402 -147 OFFCURVE",
"402 -119 CURVE SMOOTH",
"402 -69 OFFCURVE",
"442 -28 OFFCURVE",
"526 -2 CURVE",
"507 19 LINE",
"383 -11 OFFCURVE",
"297 -53 OFFCURVE",
"297 -136 CURVE SMOOTH",
"297 -193 OFFCURVE",
"345 -225 OFFCURVE",
"408 -225 CURVE SMOOTH"
);
}
);
width = 547;
},
{
anchors = (
{
name = _ogonek;
position = "{543, -2}";
}
);
associatedMasterId = "503E420B-61F7-4277-A1BE-A8852071B452";
components = (
{
name = a;
}
);
layerId = "BEFAAAAA-EB9F-4514-878A-6F7485B30593";
name = "Nov 22 20, 20:40";
paths = (
{
closed = 1;
nodes = (
"403 -20 OFFCURVE",
"329 -62 OFFCURVE",
"329 -138 CURVE SMOOTH",
"329 -194 OFFCURVE",
"375 -225 OFFCURVE",
"431 -225 CURVE SMOOTH",
"486 -225 OFFCURVE",
"511 -209 OFFCURVE",
"550 -165 CURVE",
"544 -154 OFFCURVE",
"535 -147 OFFCURVE",
"523 -142 CURVE",
"507 -156 OFFCURVE",
"491 -165 OFFCURVE",
"471 -165 CURVE SMOOTH",
"456 -165 OFFCURVE",
"434 -159 OFFCURVE",
"434 -122 CURVE SMOOTH",
"434 -78 OFFCURVE",
"461 -36 OFFCURVE",
"543 -2 CURVE",
"533 13 LINE"
);
}
);
width = 579;
},
{
anchors = (
{
name = _ogonek;
position = "{504, -2}";
}
);
associatedMasterId = "45069982-2EFC-4B7D-8C53-1932E6EAC4CA";
components = (
{
name = a;
}
);
layerId = "BF761667-9C02-4CA9-A8ED-4AEFF7C71D64";
name = "Nov 22 20, 20:41";
paths = (
{
closed = 1;
nodes = (
"377 -14 OFFCURVE",
"300 -52 OFFCURVE",
"300 -135 CURVE SMOOTH",
"300 -194 OFFCURVE",
"343 -225 OFFCURVE",
"407 -225 CURVE SMOOTH",
"447 -225 OFFCURVE",
"478 -209 OFFCURVE",
"509 -170 CURVE",
"502 -159 OFFCURVE",
"493 -152 OFFCURVE",
"482 -147 CURVE",
"466 -167 OFFCURVE",
"449 -175 OFFCURVE",
"431 -175 CURVE SMOOTH",
"398 -175 OFFCURVE",
"380 -149 OFFCURVE",
"380 -117 CURVE SMOOTH",
"380 -66 OFFCURVE",
"420 -27 OFFCURVE",
"504 -2 CURVE",
"489 15 LINE"
);
}
);
width = 522;
}
);
leftKerningGroup = a;
rightKerningGroup = a;
unicode = 0105;
},
{
glyphname = ae;
lastChange = "2020-11-29 15:03:21 +0000";
layers = (
{
anchors = (
{
name = bottom;
position = "{409, 0}";
},
{
name = ogonek;
position = "{624, -2}";
},
{
name = top;
position = "{405, 440}";
}
);
components = (
{
name = e;
transform = "{1, 0, 0, 1, 282, 0}";
}
);
layerId = "45069982-2EFC-4B7D-8C53-1932E6EAC4CA";
paths = (
{
closed = 1;
nodes = (
"413 407 OFFCURVE",
"368 455 OFFCURVE",
"254 455 CURVE SMOOTH",
"140 455 OFFCURVE",
"65 391 OFFCURVE",
"65 325 CURVE",
"165 325 LINE",
"160 386 OFFCURVE",
"194 418 OFFCURVE",
"249 418 CURVE SMOOTH",
"307 418 OFFCURVE",
"328 375 OFFCURVE",
"328 294 CURVE",
"328 237 LINE",
"331 200 LINE",
"413 151 LINE",
"413 304 LINE SMOOTH"
);
},
{
closed = 1;
nodes = (
"256 -15 OFFCURVE",
"312 -4 OFFCURVE",
"370 72 CURVE",
"354 106 LINE",
"309 49 OFFCURVE",
"265 25 OFFCURVE",
"224 25 CURVE",
"170 25 OFFCURVE",
"140 68 OFFCURVE",
"140 121 CURVE",
"140 181 OFFCURVE",
"176 220 OFFCURVE",
"232 220 CURVE",
"270 220 OFFCURVE",
"303 214 OFFCURVE",
"331 200 CURVE",
"328 237 LINE",
"302 249 OFFCURVE",
"267 255 OFFCURVE",
"227 255 CURVE",
"130 255 OFFCURVE",
"40 216 OFFCURVE",
"40 120 CURVE",
"40 30 OFFCURVE",
"113 -15 OFFCURVE",
"199 -15 CURVE"
);
}
);
width = 797;
},
{
anchors = (
{
name = bottom;
position = "{400, 0}";
},
{
name = ogonek;
position = "{658, -2}";
},
{
name = top;
position = "{410, 460}";
}
);
components = (
{
name = e;
transform = "{1, 0, 0, 1, 298, 0}";
}
);
layerId = "503E420B-61F7-4277-A1BE-A8852071B452";
paths = (
{
closed = 1;
nodes = (
"458 402 OFFCURVE",
"433 475 OFFCURVE",
"269 475 CURVE SMOOTH",
"126 475 OFFCURVE",
"55 411 OFFCURVE",
"55 330 CURVE",
"185 330 LINE",
"175 392 OFFCURVE",
"208 438 OFFCURVE",
"261 438 CURVE SMOOTH",
"319 438 OFFCURVE",
"338 382 OFFCURVE",
"338 304 CURVE",
"338 251 LINE",
"342 208 LINE",
"458 95 LINE",
"458 309 LINE SMOOTH"
);
},
{
closed = 1;
nodes = (
"287 -15 OFFCURVE",
"335 1 OFFCURVE",
"390 76 CURVE",
"369 106 LINE",
"322 46 OFFCURVE",
"281 30 OFFCURVE",
"248 30 CURVE",
"198 30 OFFCURVE",
"165 69 OFFCURVE",
"165 128 CURVE",
"165 188 OFFCURVE",
"200 225 OFFCURVE",
"261 225 CURVE",
"286 225 OFFCURVE",
"318 219 OFFCURVE",
"342 208 CURVE",
"338 251 LINE",
"305 261 OFFCURVE",
"271 265 OFFCURVE",
"234 265 CURVE",
"110 265 OFFCURVE",
"35 214 OFFCURVE",
"35 123 CURVE",
"35 35 OFFCURVE",
"105 -15 OFFCURVE",
"219 -15 CURVE"
);
}
);
width = 838;
}
);
leftKerningGroup = a;
rightKerningGroup = e;
unicode = 00E6;
},
{
glyphname = b;
lastChange = "2022-06-16 19:38:45 +0000";
layers = (
{
anchors = (
{
name = bottom;
position = "{292, 0}";
},
{
name = top;
position = "{292, 800}";
}
);
components = (
{
name = _COM_brzuch_bdpq;
transform = "{-1, 0, 0, -1, 557, 440}";
}
);
layerId = "45069982-2EFC-4B7D-8C53-1932E6EAC4CA";
paths = (
{
closed = 1;
nodes = (
"10 690 OFFCURVE",
"10 673 OFFCURVE",
"12 663 CURVE",
"69 663 LINE",
"76 613 OFFCURVE",
"79 570 OFFCURVE",
"79 520 CURVE SMOOTH",
"79 180 LINE SMOOTH",
"79 130 OFFCURVE",
"76 50 OFFCURVE",
"69 0 CURVE",
"80 -4 OFFCURVE",
"90 -5 OFFCURVE",
"101 -5 CURVE",
"174 65 LINE",
"174 75 LINE",
"174 520 LINE SMOOTH",
"174 570 OFFCURVE",
"177 663 OFFCURVE",
"189 713 CURVE",
"128 702 OFFCURVE",
"59 700 OFFCURVE",
"12 700 CURVE"
);
}
);
width = 555;
},
{
anchors = (
{
name = bottom;
position = "{310, 0}";
},
{
name = top;
position = "{310, 800}";
}
);
components = (
{
name = _COM_brzuch_bdpq;
transform = "{-1, 0, 0, -1, 584, 460}";
}
);
layerId = "503E420B-61F7-4277-A1BE-A8852071B452";
paths = (
{
closed = 1;
nodes = (
"10 690 OFFCURVE",
"10 673 OFFCURVE",
"12 663 CURVE",
"64 663 LINE",
"71 618 OFFCURVE",
"74 570 OFFCURVE",
"74 510 CURVE SMOOTH",
"74 190 LINE SMOOTH",
"74 130 OFFCURVE",
"71 45 OFFCURVE",
"64 0 CURVE",
"75 -4 OFFCURVE",
"85 -5 OFFCURVE",
"96 -5 CURVE",
"204 58 LINE",
"204 78 LINE",
"204 510 LINE SMOOTH",
"204 570 OFFCURVE",
"207 670 OFFCURVE",
"219 715 CURVE",
"156 704 OFFCURVE",
"89 700 OFFCURVE",
"12 700 CURVE"
);
}
);
width = 590;
},
{
associatedMasterId = "45069982-2EFC-4B7D-8C53-1932E6EAC4CA";
layerId = "ED4DBE24-BDF4-4E18-90CB-0EA147BD6606";
name = "Nov 2 20, 15:05";
paths = (
{
closed = 1;
nodes = (
"508 359 OFFCURVE",
"428 452 OFFCURVE",
"292 452 CURVE SMOOTH",
"250 452 OFFCURVE",
"209 437 OFFCURVE",
"176 410 CURVE",
"176 532 LINE SMOOTH",
"176 592 OFFCURVE",
"180 652 OFFCURVE",
"188 712 CURVE",
"134 704 OFFCURVE",
"80 700 OFFCURVE",
"26 700 CURVE",
"26 672 LINE",
"74 672 LINE",
"82 626 OFFCURVE",
"86 579 OFFCURVE",
"86 532 CURVE SMOOTH",
"86 168 LINE SMOOTH",
"86 121 OFFCURVE",
"82 74 OFFCURVE",
"74 28 CURVE",
"26 28 LINE",
"26 0 LINE",
"79 0 OFFCURVE",
"131 -4 OFFCURVE",
"183 -12 CURVE",
"177 42 LINE",
"204 9 OFFCURVE",
"246 -12 OFFCURVE",
"292 -12 CURVE SMOOTH",
"428 -12 OFFCURVE",
"508 81 OFFCURVE",
"508 220 CURVE SMOOTH"
);
},
{
closed = 1;
nodes = (
"412 108 OFFCURVE",
"382 16 OFFCURVE",
"283 16 CURVE SMOOTH",
"224 16 OFFCURVE",
"176 65 OFFCURVE",
"176 124 CURVE SMOOTH",
"176 377 LINE",
"200 407 OFFCURVE",
"236 424 OFFCURVE",
"274 424 CURVE SMOOTH",
"375 424 OFFCURVE",
"412 334 OFFCURVE",
"412 220 CURVE SMOOTH"
);
}
);
width = 600;
},
{
associatedMasterId = "503E420B-61F7-4277-A1BE-A8852071B452";
layerId = "591D6FAD-CD7B-4128-BA7C-FA6BE4957CD5";
name = "Nov 2 20, 15:07";
paths = (
{
closed = 1;
nodes = (
"540 360 OFFCURVE",
"456 452 OFFCURVE",
"318 452 CURVE SMOOTH",
"274 452 OFFCURVE",
"233 435 OFFCURVE",
"202 404 CURVE",
"202 528 LINE SMOOTH",
"202 590 OFFCURVE",
"206 651 OFFCURVE",
"214 712 CURVE",
"150 704 OFFCURVE",
"86 700 OFFCURVE",
"22 700 CURVE",
"22 668 LINE",
"70 668 LINE",
"78 622 OFFCURVE",
"82 575 OFFCURVE",
"82 528 CURVE SMOOTH",
"82 172 LINE SMOOTH",
"82 125 OFFCURVE",
"78 78 OFFCURVE",
"70 32 CURVE",
"22 32 LINE",
"22 0 LINE",
"84 0 OFFCURVE",
"146 -4 OFFCURVE",
"208 -12 CURVE",
"202 39 LINE",
"230 8 OFFCURVE",
"272 -12 OFFCURVE",
"318 -12 CURVE SMOOTH",
"456 -12 OFFCURVE",
"540 80 OFFCURVE",
"540 220 CURVE SMOOTH"
);
},
{
closed = 1;
nodes = (
"414 112 OFFCURVE",
"399 20 OFFCURVE",
"306 20 CURVE SMOOTH",
"248 20 OFFCURVE",
"202 67 OFFCURVE",
"202 124 CURVE SMOOTH",
"202 370 LINE",
"222 401 OFFCURVE",
"257 420 OFFCURVE",
"294 420 CURVE SMOOTH",
"389 420 OFFCURVE",
"414 329 OFFCURVE",
"414 220 CURVE SMOOTH"
);
}
);
visible = 1;
width = 600;
},
{
anchors = (
{
name = bottom;
position = "{319, 0}";
},
{
name = top;
position = "{319, 800}";
}
);
associatedMasterId = "503E420B-61F7-4277-A1BE-A8852071B452";
layerId = "FF974AD7-7070-4BD3-B0F1-ACBA8B9D953E";
name = "Nov 21 20, 16:36";
paths = (
{
closed = 1;
nodes = (
"19 690 OFFCURVE",
"19 673 OFFCURVE",
"21 663 CURVE",
"73 663 LINE",
"80 618 OFFCURVE",
"83 570 OFFCURVE",
"83 510 CURVE SMOOTH",
"83 190 LINE SMOOTH",
"83 130 OFFCURVE",
"80 45 OFFCURVE",
"73 0 CURVE",
"84 -4 OFFCURVE",
"94 -5 OFFCURVE",
"105 -5 CURVE",
"213 58 LINE",
"213 78 LINE",
"213 510 LINE SMOOTH",
"213 570 OFFCURVE",
"216 670 OFFCURVE",
"228 715 CURVE",
"165 704 OFFCURVE",
"98 700 OFFCURVE",
"21 700 CURVE"
);
},
{
closed = 1;
nodes = (
"278 475 OFFCURVE",
"232 442 OFFCURVE",
"203 395 CURVE",
"213 349 LINE",
"246 400 OFFCURVE",
"278 425 OFFCURVE",
"315 425 CURVE SMOOTH",
"377 425 OFFCURVE",
"413 357 OFFCURVE",
"413 232 CURVE",
"413 93 OFFCURVE",
"369 45 OFFCURVE",
"305 45 CURVE",
"272 45 OFFCURVE",
"213 48 OFFCURVE",
"213 152 CURVE",
"116 62 LINE",
"164 16 OFFCURVE",
"216 -15 OFFCURVE",
"312 -15 CURVE",
"457 -15 OFFCURVE",
"558 71 OFFCURVE",
"558 237 CURVE",
"558 399 OFFCURVE",
"464 475 OFFCURVE",
"347 475 CURVE"
);
}
);
width = 598;
}
);
leftKerningGroup = b;
rightKerningGroup = b;
unicode = 0062;
},
{
glyphname = c;
lastChange = "2020-11-29 15:03:21 +0000";
layers = (
{
anchors = (
{
name = bottom;
position = "{274, 0}";
},
{
name = top;
position = "{270, 440}";
}
);
layerId = "45069982-2EFC-4B7D-8C53-1932E6EAC4CA";
paths = (
{
closed = 1;
nodes = (
"339 -15 OFFCURVE",
"393 17 OFFCURVE",
"450 85 CURVE",
"441 96 OFFCURVE",
"433 103 OFFCURVE",
"422 110 CURVE",
"374 54 OFFCURVE",
"336 35 OFFCURVE",
"290 35 CURVE SMOOTH",
"211 35 OFFCURVE",
"150 113 OFFCURVE",
"150 224 CURVE SMOOTH",
"150 345 OFFCURVE",
"195 415 OFFCURVE",
"274 415 CURVE SMOOTH",
"333 415 OFFCURVE",
"375 367 OFFCURVE",
"393 280 CURVE",
"404 278 OFFCURVE",
"414 278 OFFCURVE",
"425 280 CURVE",
"425 415 LINE",
"390 440 OFFCURVE",
"343 455 OFFCURVE",
"281 455 CURVE SMOOTH",
"138 455 OFFCURVE",
"45 368 OFFCURVE",
"45 220 CURVE SMOOTH",
"45 74 OFFCURVE",
"134 -15 OFFCURVE",
"264 -15 CURVE SMOOTH"
);
}
);
width = 484;
},
{
anchors = (
{
name = bottom;
position = "{277, 0}";
},
{
name = top;
position = "{281, 460}";
}
);
layerId = "503E420B-61F7-4277-A1BE-A8852071B452";
paths = (
{
closed = 1;
nodes = (
"371 -15 OFFCURVE",
"416 18 OFFCURVE",
"473 89 CURVE",
"464 100 OFFCURVE",
"455 108 OFFCURVE",
"441 115 CURVE",
"392 59 OFFCURVE",
"364 40 OFFCURVE",
"305 40 CURVE SMOOTH",
"231 40 OFFCURVE",
"185 111 OFFCURVE",
"185 230 CURVE SMOOTH",
"185 351 OFFCURVE",
"209 435 OFFCURVE",
"293 435 CURVE SMOOTH",
"352 435 OFFCURVE",
"387 387 OFFCURVE",
"416 280 CURVE",
"427 278 OFFCURVE",
"437 278 OFFCURVE",
"448 280 CURVE",
"448 445 LINE",
"411 462 OFFCURVE",
"364 475 OFFCURVE",
"298 475 CURVE SMOOTH",
"146 475 OFFCURVE",
"40 383 OFFCURVE",
"40 234 CURVE SMOOTH",
"40 71 OFFCURVE",
"136 -15 OFFCURVE",
"284 -15 CURVE SMOOTH"
);
}
);
width = 503;
},
{
associatedMasterId = "45069982-2EFC-4B7D-8C53-1932E6EAC4CA";
layerId = "0970ECF3-6F06-4BD2-8D6A-9E71005090B6";
name = "Nov 3 20, 14:15";
paths = (
{
closed = 1;
nodes = (
"427 130 LINE",
"399 130 LINE",
"399 61 OFFCURVE",
"330 16 OFFCURVE",
"256 16 CURVE SMOOTH",
"158 16 OFFCURVE",
"131 108 OFFCURVE",
"131 220 CURVE SMOOTH",
"131 332 OFFCURVE",
"158 424 OFFCURVE",
"256 424 CURVE SMOOTH",
"312 424 OFFCURVE",
"358 381 OFFCURVE",
"358 327 CURVE",
"403 327 LINE",
"403 420 LINE",
"357 441 OFFCURVE",
"307 452 OFFCURVE",
"256 452 CURVE SMOOTH",
"118 452 OFFCURVE",
"35 360 OFFCURVE",
"35 220 CURVE SMOOTH",
"35 80 OFFCURVE",
"118 -12 OFFCURVE",
"256 -12 CURVE SMOOTH",
"320 -12 OFFCURVE",
"382 14 OFFCURVE",
"427 60 CURVE"
);
}
);
visible = 1;
width = 600;
},
{
associatedMasterId = "503E420B-61F7-4277-A1BE-A8852071B452";
layerId = "70EFE622-2A63-44FF-A8AC-5952A87834FD";
name = "Nov 3 20, 14:18";
paths = (
{
closed = 1;
nodes = (
"461 130 LINE",
"429 130 LINE",
"429 57 OFFCURVE",
"348 20 OFFCURVE",
"267 20 CURVE SMOOTH",
"173 20 OFFCURVE",
"155 112 OFFCURVE",
"155 220 CURVE SMOOTH",
"155 328 OFFCURVE",
"173 420 OFFCURVE",
"267 420 CURVE SMOOTH",
"325 420 OFFCURVE",
"377 382 OFFCURVE",
"377 327 CURVE",
"437 327 LINE",
"437 420 LINE",
"383 441 OFFCURVE",
"325 452 OFFCURVE",
"267 452 CURVE SMOOTH",
"122 452 OFFCURVE",
"29 364 OFFCURVE",
"29 220 CURVE SMOOTH",
"29 76 OFFCURVE",
"122 -12 OFFCURVE",
"267 -12 CURVE SMOOTH",
"338 -12 OFFCURVE",
"407 14 OFFCURVE",
"461 60 CURVE"
);
}
);
width = 600;
},
{
associatedMasterId = "503E420B-61F7-4277-A1BE-A8852071B452";
layerId = "C3196660-E794-4F3D-950F-267A42D8C41E";
name = "Nov 3 20, 14:18";
paths = (
{
closed = 1;
nodes = (
"461 130 LINE",
"429 130 LINE",
"429 57 OFFCURVE",
"348 20 OFFCURVE",
"267 20 CURVE SMOOTH",
"173 20 OFFCURVE",
"155 112 OFFCURVE",
"155 220 CURVE SMOOTH",
"155 328 OFFCURVE",
"173 420 OFFCURVE",
"267 420 CURVE SMOOTH",
"325 420 OFFCURVE",
"377 382 OFFCURVE",
"377 327 CURVE",
"437 327 LINE",
"437 420 LINE",
"383 441 OFFCURVE",
"325 452 OFFCURVE",
"267 452 CURVE SMOOTH",
"122 452 OFFCURVE",
"29 364 OFFCURVE",
"29 220 CURVE SMOOTH",
"29 76 OFFCURVE",
"122 -12 OFFCURVE",
"267 -12 CURVE SMOOTH",
"338 -12 OFFCURVE",
"407 14 OFFCURVE",
"461 60 CURVE"
);
}
);
width = 600;
},
{
associatedMasterId = "45069982-2EFC-4B7D-8C53-1932E6EAC4CA";
layerId = "F1F18CDF-3E0F-4FCF-8B03-8D8CFE768EBF";
name = "Nov 3 20, 14:19";
paths = (
{
closed = 1;
nodes = (
"249 455 LINE",
"116 455 OFFCURVE",
"23 371 OFFCURVE",
"23 224 CURVE SMOOTH",
"23 71 OFFCURVE",
"118 -15 OFFCURVE",
"256 -15 CURVE SMOOTH",
"338 -15 OFFCURVE",
"391 16 OFFCURVE",
"448 89 CURVE",
"439 100 OFFCURVE",
"430 108 OFFCURVE",
"419 115 CURVE",
"371 54 OFFCURVE",
"322 30 OFFCURVE",
"263 30 CURVE SMOOTH",
"182 30 OFFCURVE",
"128 97 OFFCURVE",
"128 224 CURVE SMOOTH",
"128 345 OFFCURVE",
"181 416 OFFCURVE",
"249 416 CURVE"
);
},
{
closed = 1;
nodes = (
"249 416 LINE",
"307 416 OFFCURVE",
"346 379 OFFCURVE",
"341 285 CURVE",
"352 283 OFFCURVE",
"432 283 OFFCURVE",
"443 285 CURVE",
"443 285 LINE",
"443 430 OFFCURVE",
"316 455 OFFCURVE",
"249 455 CURVE"
);
}
);
width = 440;
},
{
associatedMasterId = "503E420B-61F7-4277-A1BE-A8852071B452";
layerId = "5FB97027-74A9-41F8-8291-8AD3DD3E3388";
name = "Nov 4 20, 15:54";
paths = (
{
closed = 1;
nodes = (
"461 120 CURVE",
"429 130 LINE",
"399 77 OFFCURVE",
"348 20 OFFCURVE",
"267 20 CURVE SMOOTH",
"173 20 OFFCURVE",
"155 112 OFFCURVE",
"155 220 CURVE SMOOTH",
"155 328 OFFCURVE",
"173 420 OFFCURVE",
"257 420 CURVE SMOOTH",
"305 420 OFFCURVE",
"338 382 OFFCURVE",
"338 287 CURVE",
"457 287 LINE",
"447 438 OFFCURVE",
"325 452 OFFCURVE",
"257 452 CURVE SMOOTH",
"122 452 OFFCURVE",
"29 364 OFFCURVE",
"29 220 CURVE SMOOTH",
"29 76 OFFCURVE",
"122 -12 OFFCURVE",
"267 -12 CURVE SMOOTH",
"388 -12 OFFCURVE",
"418 53 OFFCURVE"
);
}
);
width = 600;
}
);
leftKerningGroup = o;
rightKerningGroup = c;
unicode = 0063;
},
{
glyphname = d;
lastChange = "2022-06-19 19:40:13 +0000";
layers = (
{
anchors = (
{
name = bottom;
position = "{284, 0}";
},
{
name = center;
position = "{284, 220}";
},
{
name = top;
position = "{284, 800}";
},
{
name = topright;
position = "{489, 690}";
}
);
background = {
paths = (
{
closed = 1;
nodes = (
"437 1 OFFCURVE",
"491 0 OFFCURVE",
"538 0 CURVE",
"540 10 OFFCURVE",
"540 27 OFFCURVE",
"538 37 CURVE",
"486 37 LINE",
"479 87 OFFCURVE",
"476 130 OFFCURVE",
"476 180 CURVE SMOOTH",
"476 520 LINE SMOOTH",
"476 570 OFFCURVE",
"479 663 OFFCURVE",
"491 713 CURVE",
"430 702 OFFCURVE",
"361 700 OFFCURVE",
"314 700 CURVE",
"312 690 OFFCURVE",
"312 673 OFFCURVE",
"314 663 CURVE",
"371 663 LINE",
"378 613 OFFCURVE",
"381 570 OFFCURVE",
"381 520 CURVE SMOOTH",
"381 110 LINE",
"391 65 LINE",
"391 45 OFFCURVE",
"388 14 OFFCURVE",
"386 -5 CURVE"
);
},
{
closed = 1;
nodes = (
"313 -15 OFFCURVE",
"364 21 OFFCURVE",
"391 65 CURVE",
"381 110 LINE",
"353 65 OFFCURVE",
"322 30 OFFCURVE",
"269 30 CURVE SMOOTH",
"199 30 OFFCURVE",
"151 92 OFFCURVE",
"151 225 CURVE",
"151 351 OFFCURVE",
"196 415 OFFCURVE",
"275 415 CURVE SMOOTH",
"321 415 OFFCURVE",
"381 394 OFFCURVE",
"381 302 CURVE",
"459 378 LINE",
"417 422 OFFCURVE",
"363 455 OFFCURVE",
"278 455 CURVE SMOOTH",
"138 455 OFFCURVE",
"46 367 OFFCURVE",
"46 213 CURVE",
"46 60 OFFCURVE",
"134 -15 OFFCURVE",
"242 -15 CURVE"
);
},
{
closed = 1;
nodes = (
"534 634 LINE",
"550 579 OFFCURVE",
"561 525 OFFCURVE",
"567 470 CURVE",
"577 468 OFFCURVE",
"587 468 OFFCURVE",
"597 470 CURVE",
"603 525 OFFCURVE",
"615 579 OFFCURVE",
"631 634 CURVE",
"631 684 LINE",
"582 720 LINE",
"534 684 LINE"
);
}
);
};
components = (
{
name = _COM_brzuch_bdpq;
transform = "{1, 0, 0, 1, -2, 0}";
}
);
layerId = "45069982-2EFC-4B7D-8C53-1932E6EAC4CA";
paths = (
{
closed = 1;
nodes = (
"437 1 OFFCURVE",
"491 0 OFFCURVE",
"538 0 CURVE",
"540 10 OFFCURVE",
"540 27 OFFCURVE",
"538 37 CURVE",
"486 37 LINE",
"479 87 OFFCURVE",
"476 130 OFFCURVE",
"476 180 CURVE SMOOTH",
"476 520 LINE SMOOTH",
"476 570 OFFCURVE",
"479 663 OFFCURVE",
"491 713 CURVE",
"430 702 OFFCURVE",
"361 700 OFFCURVE",
"314 700 CURVE",
"312 690 OFFCURVE",
"312 673 OFFCURVE",
"314 663 CURVE",
"371 663 LINE",
"378 613 OFFCURVE",
"381 570 OFFCURVE",
"381 520 CURVE SMOOTH",
"381 110 LINE",
"391 65 LINE",
"391 45 OFFCURVE",
"388 14 OFFCURVE",
"386 -5 CURVE"
);
}
);
width = 568;
},
{
anchors = (
{
name = bottom;
position = "{300, 0}";
},
{
name = center;
position = "{300, 230}";
},
{
name = top;
position = "{300, 800}";
},
{
name = topright;
position = "{536, 700}";
}
);
background = {
paths = (
{
closed = 1;
nodes = (
"449 -1 OFFCURVE",
"496 0 OFFCURVE",
"573 0 CURVE",
"575 10 OFFCURVE",
"575 27 OFFCURVE",
"573 37 CURVE",
"526 37 LINE",
"519 82 OFFCURVE",
"516 130 OFFCURVE",
"516 190 CURVE SMOOTH",
"516 510 LINE SMOOTH",
"516 570 OFFCURVE",
"519 670 OFFCURVE",
"531 715 CURVE",
"468 704 OFFCURVE",
"401 700 OFFCURVE",
"324 700 CURVE",
"322 690 OFFCURVE",
"322 673 OFFCURVE",
"324 663 CURVE",
"376 663 LINE",
"383 618 OFFCURVE",
"386 570 OFFCURVE",
"386 510 CURVE SMOOTH",
"386 110 LINE",
"396 65 LINE",
"394 36 OFFCURVE",
"392 7 OFFCURVE",
"391 -5 CURVE"
);
},
{
closed = 1;
nodes = (
"315 -15 OFFCURVE",
"367 18 OFFCURVE",
"396 65 CURVE",
"386 111 LINE",
"353 60 OFFCURVE",
"319 35 OFFCURVE",
"282 35 CURVE SMOOTH",
"220 35 OFFCURVE",
"186 103 OFFCURVE",
"186 228 CURVE",
"186 367 OFFCURVE",
"230 435 OFFCURVE",
"294 435 CURVE",
"327 435 OFFCURVE",
"386 412 OFFCURVE",
"386 308 CURVE",
"483 398 LINE",
"435 444 OFFCURVE",
"383 475 OFFCURVE",
"287 475 CURVE",
"142 475 OFFCURVE",
"41 389 OFFCURVE",
"41 223 CURVE",
"41 61 OFFCURVE",
"129 -15 OFFCURVE",
"246 -15 CURVE"
);
},
{
closed = 1;
nodes = (
"573 635 LINE",
"602 563 OFFCURVE",
"606 512 OFFCURVE",
"615 460 CURVE",
"624 458 OFFCURVE",
"634 458 OFFCURVE",
"643 460 CURVE",
"652 512 OFFCURVE",
"655 563 OFFCURVE",
"684 635 CURVE",
"684 695 LINE",
"629 730 LINE",
"573 695 LINE"
);
}
);
};
components = (
{
name = _COM_brzuch_bdpq;
transform = "{1, 0, 0, 1, 6, 0}";
}
);
layerId = "503E420B-61F7-4277-A1BE-A8852071B452";
paths = (
{
closed = 1;
nodes = (
"449 -1 OFFCURVE",
"496 0 OFFCURVE",
"573 0 CURVE",
"575 10 OFFCURVE",
"575 27 OFFCURVE",
"573 37 CURVE",
"526 37 LINE",
"519 82 OFFCURVE",
"516 130 OFFCURVE",
"516 190 CURVE SMOOTH",
"516 510 LINE SMOOTH",
"516 570 OFFCURVE",
"519 670 OFFCURVE",
"531 715 CURVE",
"468 704 OFFCURVE",
"401 700 OFFCURVE",
"324 700 CURVE",
"322 690 OFFCURVE",
"322 673 OFFCURVE",
"324 663 CURVE",
"376 663 LINE",
"383 618 OFFCURVE",
"386 570 OFFCURVE",
"386 510 CURVE SMOOTH",
"386 110 LINE",
"396 65 LINE",
"394 36 OFFCURVE",
"392 7 OFFCURVE",
"391 -5 CURVE"
);
}
);
width = 599;
},
{
associatedMasterId = "503E420B-61F7-4277-A1BE-A8852071B452";
layerId = "8292ED57-35F1-4911-ADD8-6ADB9E5B6E49";
name = "Nov 1 20, 23:41";
paths = (
{
closed = 1;
nodes = (
"547 32 LINE",
"499 32 LINE",
"491 78 OFFCURVE",
"487 125 OFFCURVE",
"487 172 CURVE SMOOTH",
"487 528 LINE SMOOTH",
"487 590 OFFCURVE",
"491 651 OFFCURVE",
"499 712 CURVE",
"435 704 OFFCURVE",
"371 700 OFFCURVE",
"307 700 CURVE",
"307 668 LINE",
"355 668 LINE",
"363 622 OFFCURVE",
"367 575 OFFCURVE",
"367 528 CURVE SMOOTH",
"367 404 LINE",
"336 435 OFFCURVE",
"295 452 OFFCURVE",
"251 452 CURVE SMOOTH",
"113 452 OFFCURVE",
"29 360 OFFCURVE",
"29 220 CURVE SMOOTH",
"29 80 OFFCURVE",
"113 -12 OFFCURVE",
"251 -12 CURVE SMOOTH",
"297 -12 OFFCURVE",
"339 8 OFFCURVE",
"367 39 CURVE",
"361 -12 LINE",
"423 -4 OFFCURVE",
"485 0 OFFCURVE",
"547 0 CURVE"
);
},
{
closed = 1;
nodes = (
"367 124 LINE SMOOTH",
"367 69 OFFCURVE",
"328 20 OFFCURVE",
"275 20 CURVE SMOOTH",
"180 20 OFFCURVE",
"155 111 OFFCURVE",
"155 220 CURVE SMOOTH",
"155 328 OFFCURVE",
"170 420 OFFCURVE",
"263 420 CURVE SMOOTH",
"303 420 OFFCURVE",
"342 402 OFFCURVE",
"367 370 CURVE"
);
}
);
visible = 1;
width = 600;
}
);
leftKerningGroup = d;
rightKerningGroup = d;
unicode = 0064;
},
{
glyphname = eth;
lastChange = "2022-06-16 18:59:23 +0000";
layers = (
{
anchors = (
{
name = bottom;
position = "{273, 0}";
},
{
name = center;
position = "{273, 220}";
},
{
name = ogonek;
position = "{490, 10}";
},
{
name = top;
position = "{273, 440}";
},
{
name = topright;
position = "{524, 440}";
}
);
layerId = "45069982-2EFC-4B7D-8C53-1932E6EAC4CA";
paths = (
{
closed = 1;
nodes = (
"273 435 LINE",
"135 435 OFFCURVE",
"45 351 OFFCURVE",
"45 214 CURVE SMOOTH",
"45 71 OFFCURVE",
"140 -15 OFFCURVE",
"273 -15 CURVE",
"278 25 LINE",
"201 25 OFFCURVE",
"150 97 OFFCURVE",
"150 214 CURVE SMOOTH",
"150 325 OFFCURVE",
"195 395 OFFCURVE",
"268 395 CURVE"
);
},
{
closed = 1;
nodes = (
"273 -15 LINE",
"411 -15 OFFCURVE",
"501 69 OFFCURVE",
"501 256 CURVE SMOOTH",
"501 439 OFFCURVE",
"412 690 OFFCURVE",
"99 710 CURVE",
"94 700 OFFCURVE",
"92 687 OFFCURVE",
"93 673 CURVE",
"350 653 OFFCURVE",
"406 391 OFFCURVE",
"396 206 CURVE",
"396 95 OFFCURVE",
"351 25 OFFCURVE",
"278 25 CURVE"
);
},
{
closed = 1;
nodes = (
"441 206 LINE",
"441 349 OFFCURVE",
"376 435 OFFCURVE",
"273 435 CURVE",
"268 395 LINE",
"345 395 OFFCURVE",
"396 323 OFFCURVE",
"396 206 CURVE"
);
},
{
closed = 1;
nodes = (
"379 718 OFFCURVE",
"368 729 OFFCURVE",
"358 736 CURVE",
"160 538 LINE",
"167 528 OFFCURVE",
"178 517 OFFCURVE",
"188 510 CURVE",
"386 708 LINE"
);
}
);
width = 557;
},
{
anchors = (
{
name = bottom;
position = "{290, 0}";
},
{
name = center;
position = "{290, 230}";
},
{
name = ogonek;
position = "{522, 10}";
},
{
name = top;
position = "{290, 460}";
},
{
name = topright;
position = "{560, 460}";
}
);
layerId = "503E420B-61F7-4277-A1BE-A8852071B452";
paths = (
{
closed = 1;
nodes = (
"280 435 LINE",
"140 435 OFFCURVE",
"40 343 OFFCURVE",
"40 210 CURVE SMOOTH",
"40 71 OFFCURVE",
"145 -15 OFFCURVE",
"290 -15 CURVE",
"295 25 LINE",
"207 25 OFFCURVE",
"185 115 OFFCURVE",
"185 210 CURVE SMOOTH",
"185 301 OFFCURVE",
"206 395 OFFCURVE",
"285 395 CURVE"
);
},
{
closed = 1;
nodes = (
"290 -15 LINE",
"435 -15 OFFCURVE",
"540 77 OFFCURVE",
"540 290 CURVE SMOOTH",
"540 459 OFFCURVE",
"435 710 OFFCURVE",
"140 730 CURVE",
"136 719 OFFCURVE",
"135 705 OFFCURVE",
"135 690 CURVE",
"373 670 OFFCURVE",
"405 365 OFFCURVE",
"395 210 CURVE",
"395 119 OFFCURVE",
"374 25 OFFCURVE",
"295 25 CURVE"
);
},
{
closed = 1;
nodes = (
"440 210 LINE",
"440 349 OFFCURVE",
"390 435 OFFCURVE",
"280 435 CURVE",
"285 395 LINE",
"373 395 OFFCURVE",
"395 305 OFFCURVE",
"395 210 CURVE"
);
},
{
closed = 1;
nodes = (
"427 718 OFFCURVE",
"416 729 OFFCURVE",
"406 736 CURVE",
"208 538 LINE",
"215 528 OFFCURVE",
"226 517 OFFCURVE",
"236 510 CURVE",
"434 708 LINE"
);
}
);
width = 586;
}
);
unicode = 00F0;
},
{
glyphname = dcroat;
lastChange = "2020-11-29 15:03:21 +0000";
layers = (
{
components = (
{
name = d;
}
);
layerId = "45069982-2EFC-4B7D-8C53-1932E6EAC4CA";
paths = (
{
closed = 1;
nodes = (
"569 547 OFFCURVE",
"569 563 OFFCURVE",
"566 580 CURVE",
"258 580 LINE",
"255 563 OFFCURVE",
"255 547 OFFCURVE",
"258 530 CURVE",
"566 530 LINE"
);
}
);
width = 568;
},
{
components = (
{
name = d;
}
);
layerId = "503E420B-61F7-4277-A1BE-A8852071B452";
paths = (
{
closed = 1;
nodes = (
"599 557 OFFCURVE",
"599 573 OFFCURVE",
"596 590 CURVE",
"258 590 LINE",
"255 573 OFFCURVE",
"255 557 OFFCURVE",
"258 540 CURVE",
"596 540 LINE"
);
}
);
width = 599;
}
);
leftKerningGroup = d;
rightKerningGroup = d;
unicode = 0111;
},
{
glyphname = e;
lastChange = "2022-06-16 18:28:49 +0000";
layers = (
{
anchors = (
{
name = bottom;
position = "{264, 0}";
},
{
name = ogonek;
position = "{376, 0}";
},
{
name = top;
position = "{265, 440}";
}
);
background = {
components = (
{
name = o;
}
);
};
layerId = "45069982-2EFC-4B7D-8C53-1932E6EAC4CA";
paths = (
{
closed = 1;
nodes = (
"347 -15 OFFCURVE",
"413 22 OFFCURVE",
"470 95 CURVE",
"461 106 OFFCURVE",
"453 113 OFFCURVE",
"442 120 CURVE",
"394 59 OFFCURVE",
"345 35 OFFCURVE",
"292 35 CURVE SMOOTH",
"205 35 OFFCURVE",
"148 97 OFFCURVE",
"148 224 CURVE SMOOTH",
"148 345 OFFCURVE",
"194 418 OFFCURVE",
"266 418 CURVE SMOOTH",
"322 418 OFFCURVE",
"365 373 OFFCURVE",
"365 280 CURVE",
"138 280 LINE",
"138 245 LINE",
"346 245 LINE SMOOTH",
"401 245 OFFCURVE",
"436 242 OFFCURVE",
"471 238 CURVE",
"471 388 OFFCURVE",
"395 455 OFFCURVE",
"272 455 CURVE SMOOTH",
"139 455 OFFCURVE",
"46 373 OFFCURVE",
"46 220 CURVE SMOOTH",
"46 63 OFFCURVE",
"137 -15 OFFCURVE",
"264 -15 CURVE SMOOTH"
);
}
);
width = 515;
},
{
anchors = (
{
name = bottom;
position = "{291, 0}";
},
{
name = ogonek;
position = "{412, 0}";
},
{
name = top;
position = "{278, 460}";
}
);
layerId = "503E420B-61F7-4277-A1BE-A8852071B452";
paths = (
{
closed = 1;
nodes = (
"388 -15 OFFCURVE",
"443 21 OFFCURVE",
"500 104 CURVE",
"491 115 OFFCURVE",
"482 123 OFFCURVE",
"468 130 CURVE",
"419 59 OFFCURVE",
"372 40 OFFCURVE",
"313 40 CURVE SMOOTH",
"222 40 OFFCURVE",
"180 115 OFFCURVE",
"180 230 CURVE SMOOTH",
"180 351 OFFCURVE",
"201 440 OFFCURVE",
"275 440 CURVE SMOOTH",
"336 440 OFFCURVE",
"354 377 OFFCURVE",
"354 285 CURVE",
"147 285 LINE",
"147 250 LINE",
"356 250 LINE SMOOTH",
"414 250 OFFCURVE",
"456 249 OFFCURVE",
"500 240 CURVE",
"500 409 OFFCURVE",
"400 475 OFFCURVE",
"280 475 CURVE SMOOTH",
"140 475 OFFCURVE",
"40 383 OFFCURVE",
"40 230 CURVE SMOOTH",
"40 71 OFFCURVE",
"143 -15 OFFCURVE",
"291 -15 CURVE SMOOTH"
);
}
);
width = 540;
},
{
associatedMasterId = "45069982-2EFC-4B7D-8C53-1932E6EAC4CA";
layerId = "464CE593-00BB-4522-BCA4-E719CF42C354";
name = "Nov 3 20, 00:58";
paths = (
{
closed = 1;
nodes = (
"404 104 LINE",
"367 41 OFFCURVE",
"325 17 OFFCURVE",
"251 17 CURVE SMOOTH",
"165 17 OFFCURVE",
"131 120 OFFCURVE",
"131 220 CURVE SMOOTH",
"131 259 LINE",
"292 259 LINE SMOOTH",
"337 259 OFFCURVE",
"382 255 OFFCURVE",
"427 247 CURVE",
"427 359 OFFCURVE",
"341 452 OFFCURVE",
"231 452 CURVE SMOOTH",
"103 452 OFFCURVE",
"35 356 OFFCURVE",
"35 220 CURVE SMOOTH",
"35 84 OFFCURVE",
"103 -12 OFFCURVE",
"231 -12 CURVE SMOOTH",
"328 -12 OFFCURVE",
"370 9 OFFCURVE",
"427 88 CURVE"
);
},
{
closed = 1;
nodes = (
"133 287 LINE",
"138 365 OFFCURVE",
"158 424 OFFCURVE",
"231 424 CURVE SMOOTH",
"301 424 OFFCURVE",
"331 365 OFFCURVE",
"331 287 CURVE"
);
}
);
width = 600;
},
{
associatedMasterId = "503E420B-61F7-4277-A1BE-A8852071B452";
layerId = "6764A393-3FBC-4E51-8A8A-5B2316EC6173";
name = "Nov 3 20, 00:58";
paths = (
{
closed = 1;
nodes = (
"437 109 LINE",
"391 44 OFFCURVE",
"346 21 OFFCURVE",
"267 21 CURVE SMOOTH",
"183 21 OFFCURVE",
"155 123 OFFCURVE",
"155 220 CURVE SMOOTH",
"155 253 LINE",
"281 253 LINE SMOOTH",
"341 253 OFFCURVE",
"401 249 OFFCURVE",
"461 241 CURVE",
"461 359 OFFCURVE",
"363 452 OFFCURVE",
"245 452 CURVE SMOOTH",
"109 452 OFFCURVE",
"29 359 OFFCURVE",
"29 220 CURVE SMOOTH",
"29 81 OFFCURVE",
"109 -12 OFFCURVE",
"245 -12 CURVE SMOOTH",
"349 -12 OFFCURVE",
"394 9 OFFCURVE",
"461 88 CURVE"
);
},
{
closed = 1;
nodes = (
"156 285 LINE",
"159 361 OFFCURVE",
"174 420 OFFCURVE",
"245 420 CURVE SMOOTH",
"312 420 OFFCURVE",
"335 360 OFFCURVE",
"335 285 CURVE"
);
}
);
width = 600;
}
);
leftKerningGroup = o;
rightKerningGroup = e;
unicode = 0065;
},
{
glyphname = eogonek;
lastChange = "2020-11-29 15:03:21 +0000";
layers = (
{
anchors = (
{
name = _ogonek;
position = "{376, 0}";
}
);
background = {
paths = (
{
closed = 1;
nodes = (
"246 -17 OFFCURVE",
"169 -52 OFFCURVE",
"169 -135 CURVE SMOOTH",
"169 -194 OFFCURVE",
"212 -225 OFFCURVE",
"276 -225 CURVE SMOOTH",
"316 -225 OFFCURVE",
"347 -209 OFFCURVE",
"378 -170 CURVE",
"371 -159 OFFCURVE",
"362 -152 OFFCURVE",
"351 -147 CURVE",
"335 -167 OFFCURVE",
"318 -175 OFFCURVE",
"300 -175 CURVE SMOOTH",
"267 -175 OFFCURVE",
"249 -149 OFFCURVE",
"249 -117 CURVE SMOOTH",
"249 -66 OFFCURVE",
"289 -23 OFFCURVE",
"373 13 CURVE",
"358 23 LINE"
);
}
);
};
components = (
{
name = e;
}
);
layerId = "45069982-2EFC-4B7D-8C53-1932E6EAC4CA";
paths = (
{
closed = 1;
nodes = (
"310 -225 OFFCURVE",
"349 -204 OFFCURVE",
"385 -179 CURVE",
"383 -167 OFFCURVE",
"378 -157 OFFCURVE",
"370 -148 CURVE",
"341 -163 OFFCURVE",
"318 -169 OFFCURVE",
"299 -169 CURVE SMOOTH",
"260 -169 OFFCURVE",
"240 -147 OFFCURVE",
"240 -119 CURVE SMOOTH",
"240 -66 OFFCURVE",
"293 -30 OFFCURVE",
"376 13 CURVE",
"357 19 LINE",
"239 -16 OFFCURVE",
"157 -54 OFFCURVE",
"157 -136 CURVE SMOOTH",
"157 -193 OFFCURVE",
"201 -225 OFFCURVE",
"258 -225 CURVE SMOOTH"
);
}
);
width = 515;
},
{
anchors = (
{
name = _ogonek;
position = "{412, 0}";
}
);
background = {
paths = (
{
closed = 1;
nodes = (
"272 -25 OFFCURVE",
"198 -62 OFFCURVE",
"198 -138 CURVE SMOOTH",
"198 -194 OFFCURVE",
"244 -225 OFFCURVE",
"300 -225 CURVE SMOOTH",
"355 -225 OFFCURVE",
"380 -209 OFFCURVE",
"419 -165 CURVE",
"413 -154 OFFCURVE",
"404 -147 OFFCURVE",
"392 -142 CURVE",
"376 -156 OFFCURVE",
"360 -165 OFFCURVE",
"340 -165 CURVE SMOOTH",
"325 -165 OFFCURVE",
"303 -159 OFFCURVE",
"303 -122 CURVE SMOOTH",
"303 -78 OFFCURVE",
"330 -34 OFFCURVE",
"412 14 CURVE",
"402 22 LINE"
);
}
);
};
components = (
{
name = e;
}
);
layerId = "503E420B-61F7-4277-A1BE-A8852071B452";
paths = (
{
closed = 1;
nodes = (
"346 -225 OFFCURVE",
"387 -204 OFFCURVE",
"421 -179 CURVE",
"419 -167 OFFCURVE",
"414 -157 OFFCURVE",
"406 -148 CURVE",
"377 -163 OFFCURVE",
"354 -169 OFFCURVE",
"335 -169 CURVE SMOOTH",
"304 -169 OFFCURVE",
"288 -147 OFFCURVE",
"288 -119 CURVE SMOOTH",
"288 -68 OFFCURVE",
"328 -31 OFFCURVE",
"412 14 CURVE",
"393 15 LINE",
"278 -16 OFFCURVE",
"183 -52 OFFCURVE",
"183 -136 CURVE SMOOTH",
"183 -193 OFFCURVE",
"231 -225 OFFCURVE",
"294 -225 CURVE SMOOTH"
);
}
);
width = 540;
},
{
anchors = (
{
name = _ogonek;
position = "{373, 0}";
}
);
associatedMasterId = "45069982-2EFC-4B7D-8C53-1932E6EAC4CA";
background = {
paths = (
{
closed = 1;
nodes = (
"246 -17 OFFCURVE",
"169 -52 OFFCURVE",
"169 -135 CURVE SMOOTH",
"169 -194 OFFCURVE",
"212 -225 OFFCURVE",
"276 -225 CURVE SMOOTH",
"316 -225 OFFCURVE",
"347 -209 OFFCURVE",
"378 -170 CURVE",
"371 -159 OFFCURVE",
"362 -152 OFFCURVE",
"351 -147 CURVE",
"335 -167 OFFCURVE",
"318 -175 OFFCURVE",
"300 -175 CURVE SMOOTH",
"267 -175 OFFCURVE",
"249 -149 OFFCURVE",
"249 -117 CURVE SMOOTH",
"249 -66 OFFCURVE",
"289 -23 OFFCURVE",
"373 13 CURVE",
"358 23 LINE"
);
}
);
};
components = (
{
name = e;
}
);
layerId = "CD476C30-1EB6-4964-A155-AE538AEAB330";
name = "Nov 22 20, 20:46";
paths = (
{
closed = 1;
nodes = (
"246 -17 OFFCURVE",
"169 -52 OFFCURVE",
"169 -135 CURVE SMOOTH",
"169 -194 OFFCURVE",
"212 -225 OFFCURVE",
"276 -225 CURVE SMOOTH",
"316 -225 OFFCURVE",
"347 -209 OFFCURVE",
"378 -170 CURVE",
"371 -159 OFFCURVE",
"362 -152 OFFCURVE",
"351 -147 CURVE",
"335 -167 OFFCURVE",
"318 -175 OFFCURVE",
"300 -175 CURVE SMOOTH",
"267 -175 OFFCURVE",
"249 -149 OFFCURVE",
"249 -117 CURVE SMOOTH",
"249 -66 OFFCURVE",
"289 -23 OFFCURVE",
"373 13 CURVE",
"358 23 LINE"
);
}
);
width = 505;
},
{
anchors = (
{
name = _ogonek;
position = "{412, 0}";
}
);
associatedMasterId = "503E420B-61F7-4277-A1BE-A8852071B452";
components = (
{
name = e;
}
);
layerId = "AE291E16-7FEB-4574-9F46-8061393E1CD9";
name = "Nov 22 20, 20:46";
paths = (
{
closed = 1;
nodes = (
"272 -25 OFFCURVE",
"198 -62 OFFCURVE",
"198 -138 CURVE SMOOTH",
"198 -194 OFFCURVE",
"244 -225 OFFCURVE",
"300 -225 CURVE SMOOTH",
"355 -225 OFFCURVE",
"380 -209 OFFCURVE",
"419 -165 CURVE",
"413 -154 OFFCURVE",
"404 -147 OFFCURVE",
"392 -142 CURVE",
"376 -156 OFFCURVE",
"360 -165 OFFCURVE",
"340 -165 CURVE SMOOTH",
"325 -165 OFFCURVE",
"303 -159 OFFCURVE",
"303 -122 CURVE SMOOTH",
"303 -78 OFFCURVE",
"330 -34 OFFCURVE",
"412 14 CURVE",
"402 22 LINE"
);
}
);
width = 535;
}
);
leftKerningGroup = o;
rightKerningGroup = e;
unicode = 0119;
},
{
glyphname = f;
lastChange = "2022-06-17 15:40:18 +0000";
layers = (
{
anchors = (
{
name = bottom;
position = "{169, 0}";
},
{
name = top;
position = "{169, 800}";
}
);
layerId = "45069982-2EFC-4B7D-8C53-1932E6EAC4CA";
paths = (
{
closed = 1;
nodes = (
"337 673 OFFCURVE",
"315 720 OFFCURVE",
"225 720 CURVE SMOOTH",
"120 720 OFFCURVE",
"79 634 OFFCURVE",
"100 420 CURVE SMOOTH",
"107 353 OFFCURVE",
"106 307 OFFCURVE",
"106 260 CURVE SMOOTH",
"106 180 LINE SMOOTH",
"106 130 OFFCURVE",
"103 85 OFFCURVE",
"96 35 CURVE",
"39 35 LINE",
"37 25 OFFCURVE",
"37 8 OFFCURVE",
"39 -2 CURVE",
"80 0 OFFCURVE",
"115 0 OFFCURVE",
"154 0 CURVE SMOOTH",
"192 0 OFFCURVE",
"227 0 OFFCURVE",
"298 -2 CURVE",
"300 8 OFFCURVE",
"300 25 OFFCURVE",
"298 35 CURVE",
"211 35 LINE",
"204 85 OFFCURVE",
"201 130 OFFCURVE",
"201 180 CURVE SMOOTH",
"201 400 LINE",
"196 440 LINE",
"184 479 OFFCURVE",
"165 538 OFFCURVE",
"165 594 CURVE SMOOTH",
"165 657 OFFCURVE",
"183 681 OFFCURVE",
"210 681 CURVE SMOOTH",
"236 681 OFFCURVE",
"246 652 OFFCURVE",
"241 601 CURVE",
"336 601 LINE"
);
},
{
closed = 1;
nodes = (
"318 412 OFFCURVE",
"318 428 OFFCURVE",
"316 440 CURVE",
"36 440 LINE",
"34 428 OFFCURVE",
"34 412 OFFCURVE",
"36 400 CURVE",
"316 400 LINE"
);
}
);
width = 346;
},
{
anchors = (
{
name = bottom;
position = "{175, 0}";
},
{
name = top;
position = "{175, 800}";
}
);
layerId = "503E420B-61F7-4277-A1BE-A8852071B452";
paths = (
{
closed = 1;
nodes = (
"368 673 OFFCURVE",
"331 720 OFFCURVE",
"241 720 CURVE SMOOTH",
"128 720 OFFCURVE",
"66 657 OFFCURVE",
"92 415 CURVE SMOOTH",
"97 368 OFFCURVE",
"99 327 OFFCURVE",
"99 280 CURVE SMOOTH",
"99 190 LINE SMOOTH",
"99 130 OFFCURVE",
"96 80 OFFCURVE",
"89 35 CURVE",
"37 35 LINE",
"35 25 OFFCURVE",
"35 8 OFFCURVE",
"37 -2 CURVE",
"83 0 OFFCURVE",
"128 0 OFFCURVE",
"164 0 CURVE SMOOTH",
"200 0 OFFCURVE",
"245 0 OFFCURVE",
"321 -2 CURVE",
"323 8 OFFCURVE",
"323 25 OFFCURVE",
"321 35 CURVE",
"239 35 LINE",
"232 80 OFFCURVE",
"229 130 OFFCURVE",
"229 190 CURVE SMOOTH",
"229 415 LINE",
"219 460 LINE",
"194 508 OFFCURVE",
"180 559 OFFCURVE",
"180 604 CURVE SMOOTH",
"180 648 OFFCURVE",
"191 680 OFFCURVE",
"222 680 CURVE SMOOTH",
"248 680 OFFCURVE",
"257 653 OFFCURVE",
"252 595 CURVE",
"367 595 LINE"
);
},
{
closed = 1;
nodes = (
"346 427 OFFCURVE",
"346 448 OFFCURVE",
"344 460 CURVE",
"29 460 LINE",
"27 448 OFFCURVE",
"27 427 OFFCURVE",
"29 415 CURVE",
"344 415 LINE"
);
}
);
width = 367;
},
{
associatedMasterId = "45069982-2EFC-4B7D-8C53-1932E6EAC4CA";
layerId = "12DBD2D3-25FE-44A0-9205-AE0C724813A7";
name = "Nov 3 20, 20:07";
paths = (
{
closed = 1;
nodes = (
"342 613 LINE",
"342 658 LINE",
"306 703 OFFCURVE",
"288 712 OFFCURVE",
"230 712 CURVE SMOOTH",
"106 712 OFFCURVE",
"98 567 OFFCURVE",
"98 496 CURVE SMOOTH",
"98 440 LINE",
"26 440 LINE",
"26 412 LINE",
"98 412 LINE",
"98 168 LINE SMOOTH",
"98 121 OFFCURVE",
"94 74 OFFCURVE",
"86 28 CURVE",
"26 28 LINE",
"26 0 LINE",
"266 0 LINE",
"266 28 LINE",
"200 28 LINE",
"192 74 OFFCURVE",
"188 121 OFFCURVE",
"188 168 CURVE SMOOTH",
"188 412 LINE",
"266 412 LINE",
"266 440 LINE",
"188 440 LINE",
"188 469 OFFCURVE",
"185 498 OFFCURVE",
"182 526 CURVE SMOOTH",
"178 555 OFFCURVE",
"175 584 OFFCURVE",
"175 613 CURVE SMOOTH",
"175 649 OFFCURVE",
"196 684 OFFCURVE",
"230 684 CURVE SMOOTH",
"260 684 OFFCURVE",
"267 647 OFFCURVE",
"267 613 CURVE"
);
}
);
width = 600;
},
{
associatedMasterId = "503E420B-61F7-4277-A1BE-A8852071B452";
layerId = "AB8C816C-6AA6-4A78-B694-778A2F1C4366";
name = "Nov 3 20, 20:07";
paths = (
{
closed = 1;
nodes = (
"383 613 LINE",
"383 673 LINE",
"335 707 OFFCURVE",
"318 712 OFFCURVE",
"259 712 CURVE SMOOTH",
"135 712 OFFCURVE",
"117 574 OFFCURVE",
"117 504 CURVE SMOOTH",
"117 440 LINE",
"45 440 LINE",
"45 408 LINE",
"117 408 LINE",
"117 172 LINE SMOOTH",
"117 125 OFFCURVE",
"113 78 OFFCURVE",
"105 32 CURVE",
"45 32 LINE",
"45 0 LINE",
"315 0 LINE",
"315 32 LINE",
"249 32 LINE",
"241 78 OFFCURVE",
"237 125 OFFCURVE",
"237 172 CURVE SMOOTH",
"237 408 LINE",
"315 408 LINE",
"315 440 LINE",
"237 440 LINE",
"237 469 OFFCURVE",
"234 498 OFFCURVE",
"231 526 CURVE SMOOTH",
"228 555 OFFCURVE",
"224 584 OFFCURVE",
"224 613 CURVE SMOOTH",
"224 645 OFFCURVE",
"231 680 OFFCURVE",
"259 680 CURVE SMOOTH",
"287 680 OFFCURVE",
"283 643 OFFCURVE",
"283 613 CURVE"
);
}
);
visible = 1;
width = 493;
},
{
anchors = (
{
name = bottom;
position = "{164, 0}";
},
{
name = top;
position = "{164, 800}";
}
);
associatedMasterId = "45069982-2EFC-4B7D-8C53-1932E6EAC4CA";
layerId = "0DB7F4D7-2667-4F49-BB0F-F3FC9FAC9933";
name = "Nov 13 20, 12:13";
paths = (
{
closed = 1;
nodes = (
"332 673 OFFCURVE",
"306 720 OFFCURVE",
"226 720 CURVE SMOOTH",
"121 720 OFFCURVE",
"81 634 OFFCURVE",
"95 420 CURVE SMOOTH",
"99 353 OFFCURVE",
"101 307 OFFCURVE",
"101 260 CURVE SMOOTH",
"101 180 LINE SMOOTH",
"101 130 OFFCURVE",
"98 85 OFFCURVE",
"91 35 CURVE",
"34 35 LINE",
"32 25 OFFCURVE",
"32 8 OFFCURVE",
"34 -2 CURVE",
"75 0 OFFCURVE",
"110 0 OFFCURVE",
"149 0 CURVE SMOOTH",
"187 0 OFFCURVE",
"222 0 OFFCURVE",
"283 -2 CURVE",
"285 8 OFFCURVE",
"285 25 OFFCURVE",
"283 35 CURVE",
"206 35 LINE",
"199 85 OFFCURVE",
"196 130 OFFCURVE",
"196 180 CURVE SMOOTH",
"196 400 LINE",
"191 440 LINE",
"176 491 OFFCURVE",
"162 535 OFFCURVE",
"162 604 CURVE SMOOTH",
"162 658 OFFCURVE",
"178 685 OFFCURVE",
"205 685 CURVE SMOOTH",
"231 685 OFFCURVE",
"241 653 OFFCURVE",
"236 611 CURVE",
"331 611 LINE"
);
},
{
closed = 1;
nodes = (
"313 412 OFFCURVE",
"313 428 OFFCURVE",
"311 440 CURVE",
"31 440 LINE",
"29 428 OFFCURVE",
"29 412 OFFCURVE",
"31 400 CURVE",
"311 400 LINE"
);
}
);
width = 338;
}
);
leftKerningGroup = f;
rightKerningGroup = f;
unicode = 0066;
},
{
glyphname = g;
lastChange = "2020-11-29 15:03:21 +0000";
layers = (
{
anchors = (
{
name = bottom;
position = "{247, -200}";
},
{
name = top;
position = "{247, 440}";
}
);
layerId = "45069982-2EFC-4B7D-8C53-1932E6EAC4CA";
paths = (
{
closed = 1;
nodes = (
"180 136 OFFCURVE",
"147 185 OFFCURVE",
"147 274 CURVE SMOOTH",
"147 363 OFFCURVE",
"180 418 OFFCURVE",
"244 418 CURVE SMOOTH",
"308 418 OFFCURVE",
"342 363 OFFCURVE",
"342 274 CURVE SMOOTH",
"342 185 OFFCURVE",
"308 136 OFFCURVE",
"244 136 CURVE SMOOTH"
);
},
{
closed = 1;
nodes = (
"27 -183 OFFCURVE",
"117 -225 OFFCURVE",
"257 -225 CURVE SMOOTH",
"399 -225 OFFCURVE",
"497 -186 OFFCURVE",
"497 -88 CURVE SMOOTH",
"497 6 OFFCURVE",
"412 29 OFFCURVE",
"306 40 CURVE SMOOTH",
"181 53 OFFCURVE",
"133 67 OFFCURVE",
"132 165 CURVE",
"154 120 OFFCURVE",
"201 99 OFFCURVE",
"257 99 CURVE SMOOTH",
"369 99 OFFCURVE",
"442 166 OFFCURVE",
"442 273 CURVE SMOOTH",
"442 323 OFFCURVE",
"423 371 OFFCURVE",
"388 403 CURVE",
"429 403 OFFCURVE",
"461 397 OFFCURVE",
"482 378 CURVE",
"485 402 OFFCURVE",
"485 421 OFFCURVE",
"482 450 CURVE",
"466 443 OFFCURVE",
"426 440 OFFCURVE",
"398 440 CURVE SMOOTH",
"350 440 OFFCURVE",
"300 455 OFFCURVE",
"243 455 CURVE SMOOTH",
"108 455 OFFCURVE",
"47 380 OFFCURVE",
"47 246 CURVE SMOOTH",
"47 90 OFFCURVE",
"104 22 OFFCURVE",
"246 7 CURVE SMOOTH",
"361 -5 OFFCURVE",
"392 -34 OFFCURVE",
"392 -94 CURVE SMOOTH",
"392 -161 OFFCURVE",
"336 -185 OFFCURVE",
"257 -185 CURVE SMOOTH",
"170 -185 OFFCURVE",
"122 -168 OFFCURVE",
"122 -108 CURVE SMOOTH",
"122 -90 OFFCURVE",
"125 -76 OFFCURVE",
"128 -70 CURVE",
"141 -70 OFFCURVE",
"152 -70 OFFCURVE",
"168 -71 CURVE",
"170 -61 OFFCURVE",
"170 -44 OFFCURVE",
"168 -34 CURVE",
"36 -34 LINE",
"31 -44 OFFCURVE",
"27 -61 OFFCURVE",
"27 -85 CURVE SMOOTH"
);
}
);
width = 515;
},
{
anchors = (
{
name = bottom;
position = "{276, -200}";
},
{
name = top;
position = "{276, 460}";
}
);
layerId = "503E420B-61F7-4277-A1BE-A8852071B452";
paths = (
{
closed = 1;
nodes = (
"213 143 OFFCURVE",
"182 193 OFFCURVE",
"182 289 CURVE SMOOTH",
"182 385 OFFCURVE",
"213 438 OFFCURVE",
"270 438 CURVE SMOOTH",
"327 438 OFFCURVE",
"358 385 OFFCURVE",
"358 289 CURVE SMOOTH",
"358 193 OFFCURVE",
"327 143 OFFCURVE",
"270 143 CURVE SMOOTH"
);
},
{
closed = 1;
nodes = (
"22 -183 OFFCURVE",
"115 -225 OFFCURVE",
"285 -225 CURVE SMOOTH",
"455 -225 OFFCURVE",
"553 -171 OFFCURVE",
"553 -79 CURVE SMOOTH",
"553 29 OFFCURVE",
"427 31 OFFCURVE",
"292 46 CURVE SMOOTH",
"179 59 OFFCURVE",
"158 88 OFFCURVE",
"158 173 CURVE",
"188 123 OFFCURVE",
"218 106 OFFCURVE",
"286 106 CURVE SMOOTH",
"406 106 OFFCURVE",
"498 177 OFFCURVE",
"498 288 CURVE SMOOTH",
"498 343 OFFCURVE",
"479 391 OFFCURVE",
"444 423 CURVE",
"491 418 OFFCURVE",
"514 410 OFFCURVE",
"543 383 CURVE",
"546 417 OFFCURVE",
"546 441 OFFCURVE",
"543 470 CURVE",
"527 465 OFFCURVE",
"494 460 OFFCURVE",
"454 460 CURVE SMOOTH",
"401 460 OFFCURVE",
"328 475 OFFCURVE",
"272 475 CURVE SMOOTH",
"134 475 OFFCURVE",
"42 406 OFFCURVE",
"42 254 CURVE SMOOTH",
"42 48 OFFCURVE",
"155 21 OFFCURVE",
"281 5 CURVE SMOOTH",
"376 -7 OFFCURVE",
"408 -26 OFFCURVE",
"408 -89 CURVE SMOOTH",
"408 -158 OFFCURVE",
"362 -185 OFFCURVE",
"282 -185 CURVE SMOOTH",
"202 -185 OFFCURVE",
"161 -167 OFFCURVE",
"161 -103 CURVE SMOOTH",
"161 -85 OFFCURVE",
"164 -71 OFFCURVE",
"167 -65 CURVE",
"180 -65 OFFCURVE",
"192 -65 OFFCURVE",
"208 -66 CURVE",
"210 -56 OFFCURVE",
"210 -39 OFFCURVE",
"208 -29 CURVE",
"31 -29 LINE",
"26 -39 OFFCURVE",
"22 -56 OFFCURVE",
"22 -80 CURVE SMOOTH"
);
}
);
width = 570;
}
);
leftKerningGroup = g;
rightKerningGroup = g;
unicode = 0067;
},
{
glyphname = h;
lastChange = "2022-06-14 14:17:12 +0000";
layers = (
{
anchors = (
{
name = bottom;
position = "{291, 0}";
},
{
name = center;
position = "{291, 400}";
},
{
name = top;
position = "{141, 690}";
},
{
name = topright;
position = "{271, 700}";
}
);
components = (
{
alignment = -1;
name = _COM_noga_n;
transform = "{1, 0, 0, 1, 183, 0}";
}
);
layerId = "45069982-2EFC-4B7D-8C53-1932E6EAC4CA";
paths = (
{
closed = 1;
nodes = (
"203 35 LINE",
"196 85 OFFCURVE",
"193 130 OFFCURVE",
"193 180 CURVE SMOOTH",
"193 520 LINE SMOOTH",
"193 570 OFFCURVE",
"196 663 OFFCURVE",
"208 713 CURVE",
"147 702 OFFCURVE",
"78 700 OFFCURVE",
"31 700 CURVE",
"29 690 OFFCURVE",
"29 673 OFFCURVE",
"31 663 CURVE",
"88 663 LINE",
"95 613 OFFCURVE",
"98 570 OFFCURVE",
"98 520 CURVE SMOOTH",
"98 180 LINE SMOOTH",
"98 130 OFFCURVE",
"95 85 OFFCURVE",
"88 35 CURVE",
"31 35 LINE",
"29 25 OFFCURVE",
"29 8 OFFCURVE",
"31 -2 CURVE",
"72 0 OFFCURVE",
"107 0 OFFCURVE",
"146 0 CURVE SMOOTH",
"184 0 OFFCURVE",
"219 0 OFFCURVE",
"260 -2 CURVE",
"262 8 OFFCURVE",
"262 25 OFFCURVE",
"260 35 CURVE"
);
}
);
width = 577;
},
{
anchors = (
{
name = bottom;
position = "{305, 0}";
},
{
name = center;
position = "{305, 400}";
},
{
name = top;
position = "{150, 695}";
},
{
name = topright;
position = "{286, 700}";
}
);
components = (
{
alignment = -1;
name = _COM_noga_n;
transform = "{1, 0, 0, 1, 207, 0}";
}
);
layerId = "503E420B-61F7-4277-A1BE-A8852071B452";
paths = (
{
closed = 1;
nodes = (
"228 35 LINE",
"221 80 OFFCURVE",
"218 130 OFFCURVE",
"218 190 CURVE SMOOTH",
"218 510 LINE SMOOTH",
"218 570 OFFCURVE",
"221 670 OFFCURVE",
"233 715 CURVE",
"170 704 OFFCURVE",
"103 700 OFFCURVE",
"26 700 CURVE",
"24 690 OFFCURVE",
"24 673 OFFCURVE",
"26 663 CURVE",
"78 663 LINE",
"85 618 OFFCURVE",
"88 570 OFFCURVE",
"88 510 CURVE SMOOTH",
"88 190 LINE SMOOTH",
"88 130 OFFCURVE",
"85 80 OFFCURVE",
"78 35 CURVE",
"26 35 LINE",
"24 25 OFFCURVE",
"24 8 OFFCURVE",
"26 -2 CURVE",
"72 0 OFFCURVE",
"117 0 OFFCURVE",
"153 0 CURVE SMOOTH",
"189 0 OFFCURVE",
"234 0 OFFCURVE",
"280 -2 CURVE",
"282 8 OFFCURVE",
"282 25 OFFCURVE",
"280 35 CURVE"
);
}
);
width = 615;
}
);
leftKerningGroup = h;
rightKerningGroup = n;
unicode = 0068;
},
{
glyphname = hbar;
lastChange = "2020-11-29 15:03:21 +0000";
layers = (
{
components = (
{
name = h;
}
);
layerId = "45069982-2EFC-4B7D-8C53-1932E6EAC4CA";
paths = (
{
closed = 1;
nodes = (
"324 547 OFFCURVE",
"324 563 OFFCURVE",
"321 580 CURVE",
"13 580 LINE",
"10 563 OFFCURVE",
"10 547 OFFCURVE",
"13 530 CURVE",
"321 530 LINE"
);
}
);
width = 577;
},
{
components = (
{
name = h;
}
);
layerId = "503E420B-61F7-4277-A1BE-A8852071B452";
paths = (
{
closed = 1;
nodes = (
"349 557 OFFCURVE",
"349 573 OFFCURVE",
"346 590 CURVE",
"8 590 LINE",
"5 573 OFFCURVE",
"5 557 OFFCURVE",
"8 540 CURVE",
"346 540 LINE"
);
}
);
width = 615;
}
);
leftKerningGroup = h;
rightKerningGroup = n;
unicode = 0127;
},
{
glyphname = idotless;
lastChange = "2020-11-29 15:03:21 +0000";
layers = (
{
anchors = (
{
name = bottom;
position = "{155, 0}";
},
{
name = ogonek;
position = "{245, 0}";
},
{
name = top;
position = "{155, 440}";
}
);
layerId = "45069982-2EFC-4B7D-8C53-1932E6EAC4CA";
paths = (
{
closed = 1;
nodes = (
"212 35 LINE",
"205 85 OFFCURVE",
"202 130 OFFCURVE",
"202 180 CURVE SMOOTH",
"202 260 LINE SMOOTH",
"202 310 OFFCURVE",
"205 403 OFFCURVE",
"217 453 CURVE",
"156 442 OFFCURVE",
"92 440 OFFCURVE",
"40 440 CURVE",
"38 430 OFFCURVE",
"38 413 OFFCURVE",
"40 403 CURVE",
"97 403 LINE",
"104 353 OFFCURVE",
"107 310 OFFCURVE",
"107 260 CURVE SMOOTH",
"107 180 LINE SMOOTH",
"107 130 OFFCURVE",
"104 85 OFFCURVE",
"97 35 CURVE",
"35 35 LINE",
"33 25 OFFCURVE",
"33 8 OFFCURVE",
"35 -2 CURVE",
"81 0 OFFCURVE",
"116 0 OFFCURVE",
"155 0 CURVE SMOOTH",
"193 0 OFFCURVE",
"228 0 OFFCURVE",
"274 -2 CURVE",
"276 8 OFFCURVE",
"276 25 OFFCURVE",
"274 35 CURVE"
);
}
);
width = 303;
},
{
anchors = (
{
name = bottom;
position = "{162, 0}";
},
{
name = ogonek;
position = "{262, 0}";
},
{
name = top;
position = "{162, 460}";
}
);
layerId = "503E420B-61F7-4277-A1BE-A8852071B452";
paths = (
{
closed = 1;
nodes = (
"237 35 LINE",
"230 80 OFFCURVE",
"227 130 OFFCURVE",
"227 190 CURVE SMOOTH",
"227 270 LINE SMOOTH",
"227 330 OFFCURVE",
"230 430 OFFCURVE",
"242 475 CURVE",
"179 464 OFFCURVE",
"112 460 OFFCURVE",
"35 460 CURVE",
"33 450 OFFCURVE",
"33 433 OFFCURVE",
"35 423 CURVE",
"87 423 LINE",
"94 378 OFFCURVE",
"97 330 OFFCURVE",
"97 270 CURVE SMOOTH",
"97 190 LINE SMOOTH",
"97 130 OFFCURVE",
"94 80 OFFCURVE",
"87 35 CURVE",
"30 35 LINE",
"28 25 OFFCURVE",
"28 8 OFFCURVE",
"30 -2 CURVE",
"76 0 OFFCURVE",
"126 0 OFFCURVE",
"162 0 CURVE SMOOTH",
"198 0 OFFCURVE",
"248 0 OFFCURVE",
"294 -2 CURVE",
"296 8 OFFCURVE",
"296 25 OFFCURVE",
"294 35 CURVE"
);
}
);
width = 318;
}
);
leftKerningGroup = i;
rightKerningGroup = i;
unicode = 0131;
},
{
glyphname = j;
lastChange = "2020-11-29 15:03:21 +0000";
layers = (
{
components = (
{
name = jdotless;
},
{
name = dotaccentcomb;
transform = "{1, 0, 0, 1, 145, 0}";
}
);
layerId = "45069982-2EFC-4B7D-8C53-1932E6EAC4CA";
width = 272;
},
{
components = (
{
name = jdotless;
},
{
name = dotaccentcomb;
transform = "{1, 0, 0, 1, 153, -11}";
}
);
layerId = "503E420B-61F7-4277-A1BE-A8852071B452";
width = 292;
},
{
associatedMasterId = "503E420B-61F7-4277-A1BE-A8852071B452";
layerId = "8B0BFA18-3464-45E4-9F7C-CCA1A6E5FB42";
name = "Nov 3 20, 19:30";
paths = (
{
closed = 1;
nodes = (
"262 408 LINE",
"262 440 LINE",
"22 440 LINE",
"22 408 LINE",
"70 408 LINE",
"78 362 OFFCURVE",
"82 315 OFFCURVE",
"82 268 CURVE SMOOTH",
"82 -65 LINE SMOOTH",
"82 -118 OFFCURVE",
"72 -177 OFFCURVE",
"26 -177 CURVE SMOOTH",
"-6 -177 OFFCURVE",
"-11 -135 OFFCURVE",
"-11 -97 CURVE",
"-71 -97 LINE",
"-71 -153 LINE",
"-59 -186 OFFCURVE",
"-28 -209 OFFCURVE",
"8 -209 CURVE SMOOTH",
"118 -209 OFFCURVE",
"202 -113 OFFCURVE",
"202 0 CURVE SMOOTH",
"202 268 LINE SMOOTH",
"202 315 OFFCURVE",
"206 362 OFFCURVE",
"214 408 CURVE"
);
},
{
closed = 1;
nodes = (
"202 567 LINE",
"202 617 LINE",
"167 652 LINE",
"117 652 LINE",
"82 617 LINE",
"82 567 LINE",
"117 532 LINE",
"167 532 LINE"
);
}
);
width = 600;
},
{
associatedMasterId = "45069982-2EFC-4B7D-8C53-1932E6EAC4CA";
layerId = "4E017742-BA0F-4C89-810E-8F2D7B76CDC3";
name = "Nov 3 20, 19:30";
paths = (
{
closed = 1;
nodes = (
"134 444 OFFCURVE",
"80 440 OFFCURVE",
"26 440 CURVE",
"26 412 LINE",
"74 412 LINE",
"82 366 OFFCURVE",
"86 319 OFFCURVE",
"86 272 CURVE SMOOTH",
"86 -74 LINE SMOOTH",
"86 -126 OFFCURVE",
"73 -181 OFFCURVE",
"28 -181 CURVE SMOOTH",
"-2 -181 OFFCURVE",
"-11 -145 OFFCURVE",
"-11 -111 CURVE",
"-56 -111 LINE",
"-56 -160 LINE",
"-48 -189 OFFCURVE",
"-22 -209 OFFCURVE",
"8 -209 CURVE SMOOTH",
"109 -209 OFFCURVE",
"176 -109 OFFCURVE",
"176 0 CURVE SMOOTH",
"176 272 LINE SMOOTH",
"176 332 OFFCURVE",
"180 392 OFFCURVE",
"188 452 CURVE"
);
},
{
closed = 1;
nodes = (
"181 555 LINE",
"181 613 LINE",
"131 642 LINE",
"81 613 LINE",
"81 555 LINE",
"131 526 LINE"
);
}
);
width = 600;
}
);
leftKerningGroup = j;
rightKerningGroup = j;
unicode = 006A;
},
{
glyphname = jdotless;
lastChange = "2020-11-29 15:03:21 +0000";
layers = (
{
anchors = (
{
name = bottom;
position = "{137, -200}";
},
{
name = top;
position = "{145, 440}";
}
);
layerId = "45069982-2EFC-4B7D-8C53-1932E6EAC4CA";
paths = (
{
closed = 1;
nodes = (
"192 310 OFFCURVE",
"195 403 OFFCURVE",
"207 453 CURVE",
"146 442 OFFCURVE",
"82 440 OFFCURVE",
"30 440 CURVE",
"28 430 OFFCURVE",
"28 413 OFFCURVE",
"30 403 CURVE",
"87 403 LINE",
"94 353 OFFCURVE",
"97 310 OFFCURVE",
"97 260 CURVE SMOOTH",
"97 -10 LINE SMOOTH",
"97 -92 OFFCURVE",
"79 -177 OFFCURVE",
"4 -187 CURVE",
"2 -200 OFFCURVE",
"2 -212 OFFCURVE",
"4 -225 CURVE",
"135 -220 OFFCURVE",
"187 -116 OFFCURVE",
"199 -40 CURVE",
"192 -2 OFFCURVE",
"192 36 OFFCURVE",
"192 74 CURVE SMOOTH",
"192 260 LINE SMOOTH"
);
}
);
width = 272;
},
{
anchors = (
{
name = bottom;
position = "{138, -200}";
},
{
name = top;
position = "{153, 460}";
}
);
layerId = "503E420B-61F7-4277-A1BE-A8852071B452";
paths = (
{
closed = 1;
nodes = (
"218 330 OFFCURVE",
"221 430 OFFCURVE",
"233 475 CURVE",
"170 464 OFFCURVE",
"103 460 OFFCURVE",
"26 460 CURVE",
"24 450 OFFCURVE",
"24 433 OFFCURVE",
"26 423 CURVE",
"78 423 LINE",
"85 378 OFFCURVE",
"88 330 OFFCURVE",
"88 270 CURVE SMOOTH",
"88 -10 LINE SMOOTH",
"88 -92 OFFCURVE",
"70 -177 OFFCURVE",
"-5 -187 CURVE",
"-7 -200 OFFCURVE",
"-7 -212 OFFCURVE",
"-5 -225 CURVE",
"126 -220 OFFCURVE",
"213 -116 OFFCURVE",
"225 -40 CURVE",
"218 -2 OFFCURVE",
"218 36 OFFCURVE",
"218 74 CURVE SMOOTH",
"218 270 LINE SMOOTH"
);
}
);
width = 292;
},
{
associatedMasterId = "503E420B-61F7-4277-A1BE-A8852071B452";
layerId = "7DFE533A-C31D-4595-AD02-F7928B2B8A8E";
name = "Nov 3 20, 19:34";
paths = (
{
closed = 1;
nodes = (
"262 408 LINE",
"262 440 LINE",
"22 440 LINE",
"22 408 LINE",
"70 408 LINE",
"78 362 OFFCURVE",
"82 315 OFFCURVE",
"82 268 CURVE SMOOTH",
"82 -65 LINE SMOOTH",
"82 -118 OFFCURVE",
"72 -177 OFFCURVE",
"26 -177 CURVE SMOOTH",
"-6 -177 OFFCURVE",
"-11 -135 OFFCURVE",
"-11 -97 CURVE",
"-71 -97 LINE",
"-71 -153 LINE",
"-59 -186 OFFCURVE",
"-28 -209 OFFCURVE",
"8 -209 CURVE SMOOTH",
"118 -209 OFFCURVE",
"202 -113 OFFCURVE",
"202 0 CURVE SMOOTH",
"202 268 LINE SMOOTH",
"202 315 OFFCURVE",
"206 362 OFFCURVE",
"214 408 CURVE"
);
},
{
closed = 1;
nodes = (
"202 567 LINE",
"202 617 LINE",
"167 652 LINE",
"117 652 LINE",
"82 617 LINE",
"82 567 LINE",
"117 532 LINE",
"167 532 LINE"
);
}
);
width = 600;
}
);
leftKerningGroup = j;
rightKerningGroup = j;
unicode = 0237;
},
